<?xml version="1.0" encoding="utf-8"?>
<!-- Generator: Adobe Illustrator 24.0.2, SVG Export Plug-In . SVG Version: 6.00 Build 0)  -->
<svg version="1.1" xmlns="http://www.w3.org/2000/svg" xmlns:xlink="http://www.w3.org/1999/xlink" x="0px" y="0px"
	 viewBox="0 0 167.24 260.79" style="enable-background:new 0 0 167.24 260.79;" xml:space="preserve">
<style type="text/css">
	.st0{display:none;}
	.st1{display:inline;}
	.st2{fill:#FFFFFF;stroke:#000000;stroke-miterlimit:10;}
	.st3{fill:#BA3728;}
	.st4{fill:#DA9243;}
	.st5{fill:#EAE22B;}
	.st6{fill:#6CA751;}
	.st7{fill:#1881BF;}
	.st8{fill:#1A4988;}
	.st9{fill:#734381;}
	.st10{display:none;fill:#FFFFFF;stroke:#000000;stroke-miterlimit:10;}
	.st11{fill:#FFFFFF;}
	.st12{fill:url(#SVGID_1_);}
</style>
<g id="background">
</g>
<g id="Full" class="st0">
	<g id="Capa_5" class="st1">
	</g>
</g>
<g id="Capa_4">
	<g>
		<rect x="0" y="0" class="st11" width="167.24" height="260.79"/>
		<radialGradient id="SVGID_1_" cx="83.6221" cy="130.3937" r="109.5335" gradientUnits="userSpaceOnUse">
			<stop  offset="0" style="stop-color:#5982BD;stop-opacity:0"/>
			<stop  offset="1" style="stop-color:#B4D8F3"/>
		</radialGradient>
		<rect x="0" y="0" class="st12" width="167.24" height="260.79"/>
		<path class="st3" d="M134.65,0h-13.46c0,66.93-54.25,121.18-121.18,121.18v13.46C74.36,134.65,134.65,74.36,134.65,0z"/>
		<path class="st4" d="M0,107.72v13.46c66.93,0,121.18-54.25,121.18-121.18h-13.46C107.72,59.49,59.49,107.72,0,107.72z"/>
		<path class="st5" d="M107.72,0H94.25c0,52.05-42.2,94.25-94.25,94.25v13.46C59.49,107.72,107.72,59.49,107.72,0z"/>
		<path class="st6" d="M0,80.79v13.46c52.05,0,94.25-42.2,94.25-94.25H80.79C80.79,44.62,44.62,80.79,0,80.79z"/>
		<path class="st7" d="M80.79,0H67.32c0,37.18-30.14,67.32-67.32,67.32v13.46C44.62,80.79,80.79,44.62,80.79,0z"/>
		<path class="st8" d="M0,53.86v13.46c37.18,0,67.32-30.14,67.32-67.32H53.86C53.86,29.75,29.75,53.86,0,53.86z"/>
		<path class="st9" d="M53.86,0H40.39c0,22.31-18.08,40.39-40.39,40.39v13.46C29.75,53.86,53.86,29.75,53.86,0z"/>
		<g>
			<path class="st3" d="M32.6,260.79h13.46c0-66.93,54.25-121.18,121.18-121.18v-13.46C92.88,126.14,32.6,186.42,32.6,260.79z"/>
			<path class="st4" d="M167.24,153.07v-13.46c-66.93,0-121.18,54.25-121.18,121.18h13.46C59.53,201.3,107.75,153.07,167.24,153.07z
				"/>
			<path class="st5" d="M59.53,260.79h13.46c0-52.05,42.2-94.25,94.25-94.25v-13.46C107.75,153.07,59.53,201.3,59.53,260.79z"/>
			<path class="st6" d="M167.24,180v-13.46c-52.05,0-94.25,42.2-94.25,94.25h13.46C86.46,216.17,122.63,180,167.24,180z"/>
			<path class="st7" d="M86.46,260.79h13.46c0-37.18,30.14-67.32,67.32-67.32V180C122.63,180,86.46,216.17,86.46,260.79z"/>
			<path class="st8" d="M167.24,206.93v-13.46c-37.18,0-67.32,30.14-67.32,67.32h13.46C113.39,231.04,137.5,206.93,167.24,206.93z"
				/>
			<path class="st9" d="M113.39,260.79h13.46c0-22.31,18.08-40.39,40.39-40.39v-13.46C137.5,206.93,113.39,231.04,113.39,260.79z"/>
		</g>
	</g>
</g>
<g id="Capa_3">
</g>
</svg>
