<svg id="Capa_1" data-name="Capa 1" xmlns="http://www.w3.org/2000/svg" viewBox="0 0 167.24 260.79"><defs><style>.cls-1{fill:#fcfcfc;}</style></defs><path class="cls-1" d="M24.24,147.34l46-42.07c8.71,13.56,6,31.48-5.93,41.55A32,32,0,0,1,24.24,147.34Z"/><path d="M25.41,147.59l46-42.07-2.51.32A32.08,32.08,0,0,1,70.59,137,29.24,29.24,0,0,1,43.8,153.28a31.34,31.34,0,0,1-18.22-6.52,2,2,0,0,0-1.92,0c-.28.12-1.3.77-.76,1.19a34.32,34.32,0,0,0,35.2,3.85,32.47,32.47,0,0,0,18.65-28,33.14,33.14,0,0,0-5.19-19c-.45-.72-2.08-.08-2.51.32l-46,42.06c-.46.43-.28.9.29,1.06A2.47,2.47,0,0,0,25.41,147.59Z"/><path d="M32.41,140.86l26.26-24s5.39,16.21-2.49,25.61S32.41,140.86,32.41,140.86Z"/><path d="M33.55,141l23-21.06,3.24-3-2.59.21c1.9,5.77,2.53,12.58,1,18.47-1,3.85-3.3,8.32-7.4,9.51-3.52,1-7.53-.2-10.78-1.55a33.62,33.62,0,0,1-6.27-3.33,2.12,2.12,0,0,0-1.9,0c-.22.08-1.32.68-.8,1,5.08,3.54,11.84,6.32,18.1,5.47a13.67,13.67,0,0,0,10.61-8c2.08-4.27,2.41-9.23,2-13.9a37.89,37.89,0,0,0-1.65-8.56c-.28-.84-2.18-.16-2.6.21l-23,21.06-3.25,3C30.08,141.78,32.93,141.61,33.55,141Z"/><path class="cls-1" d="M96.72,105.27c-8.7,13.56-6,31.48,5.94,41.55a32,32,0,0,0,40,.52l-46-42.07"/><path d="M95.35,105.16a33.19,33.19,0,0,0-1.29,33.28c5.86,10.92,17.77,17.13,30,16.61a34.79,34.79,0,0,0,19.54-7.15c.28-.22.81-.8.4-1.17l-46-42.07c-.87-.79-3.61.36-2.67,1.22l46,42.06.4-1.17a30.34,30.34,0,0,1-32.37,3,30.89,30.89,0,0,1-16.31-26.74,32.06,32.06,0,0,1,5-17.68c.39-.61-.33-1-.84-1.06a2.09,2.09,0,0,0-1.9.84Z"/><path d="M107.27,115.83s-5.39,16.21,2.48,25.61,23.78-1.58,23.78-1.58l-26.26-24"/><path d="M105.88,115.67c-2.13,6.45-2.82,14.26-.58,20.74,1.53,4.44,4.62,8.4,9.35,9.53,4.14,1,8.46,0,12.35-1.5a35.87,35.87,0,0,0,7.49-3.92.9.9,0,0,0,.15-1.49l-23-21.06-3.25-3c-.94-.87-3.46.54-2.23,1.67l23,21.06,3.24,3,.16-1.5a31.71,31.71,0,0,1-5,2.76c-3.24,1.47-6.92,2.63-10.52,2.15-9.36-1.28-10.71-13.48-9.86-20.92a43.36,43.36,0,0,1,.92-5.19c.13-.54.27-1.08.43-1.62.07-.25,0,0,.11-.38.53-1.58-2.36-1.55-2.77-.33Z"/></svg>