<svg id="Capa_1" data-name="Capa 1" xmlns="http://www.w3.org/2000/svg" viewBox="0 0 167.24 260.79"><defs><style>.cls-1{fill:#fcfcfc;}</style></defs><ellipse class="cls-1" cx="56.63" cy="127.31" rx="33.85" ry="19.76" transform="translate(-77.89 163.65) rotate(-81.14)"/><path d="M76.3,130.38a60.86,60.86,0,0,1-2.64,10.39,46.39,46.39,0,0,1-4.6,9.71,28.6,28.6,0,0,1-7.24,8,17,17,0,0,1-4.93,2.5A12.48,12.48,0,0,1,46,159.46a17.29,17.29,0,0,1-4.09-3.82,29.21,29.21,0,0,1-4.84-9.87,55.47,55.47,0,0,1,6.12-42.27,29.72,29.72,0,0,1,7.65-8.22,18,18,0,0,1,5.25-2.51,14.09,14.09,0,0,1,6-.39,13.94,13.94,0,0,1,5.48,2.29,17.09,17.09,0,0,1,4.06,4.08A29.05,29.05,0,0,1,76,108.9a46.23,46.23,0,0,1,1.18,10.77A63.87,63.87,0,0,1,76.3,130.38Zm-.3,0a46.48,46.48,0,0,0-1.55-21,27.7,27.7,0,0,0-4.8-9.07,13,13,0,0,0-8-4.92,12.52,12.52,0,0,0-9,2.5,27.28,27.28,0,0,0-6.94,7.29A52.26,52.26,0,0,0,39,145.24a27.54,27.54,0,0,0,4.32,9.35A13.26,13.26,0,0,0,51.53,160a13.42,13.42,0,0,0,9.66-2.42,28.2,28.2,0,0,0,7.34-7.47A47.32,47.32,0,0,0,76,130.33Z"/><ellipse cx="52.98" cy="124.84" rx="9.6" ry="5.6" transform="translate(-78.53 157.95) rotate(-81.14)"/><path d="M58.67,125.72a20,20,0,0,1-2,5.81,8.49,8.49,0,0,1-2,2.49,4.52,4.52,0,0,1-3.29,1,4.86,4.86,0,0,1-3.06-1.81,9.12,9.12,0,0,1-1.56-3,15.59,15.59,0,0,1-.51-6.47,16.41,16.41,0,0,1,2-6.29,9.09,9.09,0,0,1,2.42-2.67,5.39,5.39,0,0,1,4-1,5,5,0,0,1,3.25,2.32A8.09,8.09,0,0,1,59,119.46,21.26,21.26,0,0,1,58.67,125.72Zm-.3,0a10.49,10.49,0,0,0-.89-5.78A7.65,7.65,0,0,0,56,117.71a3,3,0,0,0-1.74-.88,2.9,2.9,0,0,0-1.75.57,8.09,8.09,0,0,0-1.71,1.74,12.79,12.79,0,0,0-2.14,5,13.57,13.57,0,0,0,0,5.57,7.31,7.31,0,0,0,1,2.46,3.29,3.29,0,0,0,1.93,1.39,3.48,3.48,0,0,0,2.42-.49,7.69,7.69,0,0,0,2.13-1.91A11.33,11.33,0,0,0,58.37,125.68Z"/><ellipse class="cls-1" cx="115.98" cy="124.55" rx="30.57" ry="22.9" transform="translate(-24.96 219.96) rotate(-81.14)"/><path d="M138.76,128.11a43.63,43.63,0,0,1-3,10.12,34.45,34.45,0,0,1-5.57,9,25.47,25.47,0,0,1-8.4,6.56,18.18,18.18,0,0,1-20.44-2.94,26,26,0,0,1-6.41-8.75,39.88,39.88,0,0,1,6-41,26.4,26.4,0,0,1,8.87-6.68,20.08,20.08,0,0,1,11.15-1.55,19.28,19.28,0,0,1,10,5.11,25.79,25.79,0,0,1,6,9.11,34.75,34.75,0,0,1,2.35,10.44A45.12,45.12,0,0,1,138.76,128.11Zm-.3-.05a37.71,37.71,0,0,0,0-10.45,32.91,32.91,0,0,0-3.07-9.86c-3-6.11-8.51-11-14.94-11.92A17,17,0,0,0,111,97.27a23.81,23.81,0,0,0-7.92,5.82,37.05,37.05,0,0,0-6.39,38.2,24.44,24.44,0,0,0,5.77,8.27,17.14,17.14,0,0,0,18.85,3.19,24.75,24.75,0,0,0,8.38-5.95,33,33,0,0,0,5.77-8.69A38.36,38.36,0,0,0,138.46,128.06Z"/><ellipse cx="108.72" cy="124.84" rx="9.6" ry="5.6" transform="translate(-31.38 213.02) rotate(-81.14)"/><path d="M114.41,125.72a19.69,19.69,0,0,1-2,5.81,8.45,8.45,0,0,1-2,2.49,4.56,4.56,0,0,1-3.3,1,4.86,4.86,0,0,1-3.06-1.81,8.9,8.9,0,0,1-1.55-3,15.43,15.43,0,0,1-.52-6.47,16.26,16.26,0,0,1,2-6.29,8.92,8.92,0,0,1,2.41-2.67,5.39,5.39,0,0,1,4-1,5,5,0,0,1,3.25,2.32,8.09,8.09,0,0,1,1.08,3.27A21.26,21.26,0,0,1,114.41,125.72Zm-.3,0a10.49,10.49,0,0,0-.89-5.78,7.65,7.65,0,0,0-1.51-2.19,3,3,0,0,0-1.74-.88,2.86,2.86,0,0,0-1.74.57,7.9,7.9,0,0,0-1.72,1.74,12.79,12.79,0,0,0-2.14,5,13.57,13.57,0,0,0,0,5.57,7.52,7.52,0,0,0,1,2.46,3.32,3.32,0,0,0,1.93,1.39,3.52,3.52,0,0,0,2.43-.49,7.8,7.8,0,0,0,2.12-1.91A11.23,11.23,0,0,0,114.11,125.68Z"/></svg>