<svg id="Capa_1" data-name="Capa 1" xmlns="http://www.w3.org/2000/svg" viewBox="0 0 167.24 260.79"><defs><style>.cls-1{fill:#fff;}.cls-2{stroke:#000;stroke-miterlimit:10;}</style></defs><path class="cls-1" d="M139.82,123c-4,7-5,10-16,13-9.84,2.68-20-10-13-22"/><path class="cls-1" d="M28.82,120c3.93-4,27-8,29-5,3,4.48-1.82,13.6-7.68,18.67C42.82,140,24.74,124.19,28.82,120Z"/><path d="M17.22,132.26A47.28,47.28,0,0,1,28,119.72a48.81,48.81,0,0,1,14.77-8.24,55.53,55.53,0,0,1,8.37-2.25,28.15,28.15,0,0,1,8.64-.19,36.06,36.06,0,0,1,8.3,2.15,27.56,27.56,0,0,1,7.43,4.23l-.24.66c-2.86.06-5.54,0-8.18,0s-5.2,0-7.74,0l-7.53.09a35.26,35.26,0,0,0-7.52.74A41.37,41.37,0,0,0,37,119.17a50.18,50.18,0,0,0-19.22,13.5Z"/><path d="M28.16,121.81A32.21,32.21,0,0,0,37,130.76,17.69,17.69,0,0,0,42.48,134a9.06,9.06,0,0,0,6.19-.2,12.27,12.27,0,0,0,4.58-3.72,17.89,17.89,0,0,0,2.62-5.33,25.79,25.79,0,0,0,.76-12.45l.28-.11a16.47,16.47,0,0,1,2,13.47,15.15,15.15,0,0,1-3.54,6.27,11.69,11.69,0,0,1-2.86,2.27,10.35,10.35,0,0,1-1.67.74,18.1,18.1,0,0,1-1.76.44,19.17,19.17,0,0,1-6.87-.44,26.44,26.44,0,0,1-6.58-2.06,16.07,16.07,0,0,1-5.24-4.57,12.21,12.21,0,0,1-2.54-6.41Z"/><path d="M12.09,115.91a17.49,17.49,0,0,1,6.46,4.2,17.37,17.37,0,0,1,4.16,6.5,50.8,50.8,0,0,0-4.86-5.79A50.68,50.68,0,0,0,12.09,115.91Z"/><path d="M24.8,107.73a17.32,17.32,0,0,1,4.84,5,17,17,0,0,1,2.57,6.48c-1.11-2-2.17-4-3.41-5.94S26.21,109.59,24.8,107.73Z"/><path d="M46.41,113.1c-.86-1.68-1.52-3.37-2.22-5.06-.32-.86-.74-1.66-1.06-2.52a19.25,19.25,0,0,1-.87-2.66,19.27,19.27,0,0,1,1.57,2.32,17.73,17.73,0,0,1,1.28,2.49A17.12,17.12,0,0,1,46.41,113.1Z"/><path d="M59.41,112.19A20.57,20.57,0,0,1,59,99.4c.12,2.17.11,4.28.2,6.4S59.38,110,59.41,112.19Z"/><path d="M72.35,115.19A25.41,25.41,0,0,1,74,100.54c-.27,2.48-.65,4.89-.9,7.32S72.62,112.71,72.35,115.19Z"/><ellipse class="cls-2" cx="44.73" cy="126.13" rx="4.42" ry="3.67" transform="translate(-88.68 136.74) rotate(-75.02)"/><path d="M150,133.24a50.24,50.24,0,0,0-19.67-12.84,41.62,41.62,0,0,0-7.36-2.06,35.28,35.28,0,0,0-7.54-.48l-7.53.17c-2.54,0-5.11.14-7.74.27s-5.31.29-8.18.32l-.25-.65A27.23,27.23,0,0,1,99,113.49a36.2,36.2,0,0,1,8.22-2.43,27.8,27.8,0,0,1,8.64-.11,56.32,56.32,0,0,1,8.45,2,49.15,49.15,0,0,1,15,7.73,47.22,47.22,0,0,1,11.2,12.17Z"/><path d="M139.5,122.82a12.23,12.23,0,0,1-2.32,6.49,16,16,0,0,1-5.08,4.74,26,26,0,0,1-6.5,2.29,19.29,19.29,0,0,1-6.86.68c-.58-.12-1.19-.2-1.77-.38a10.77,10.77,0,0,1-1.7-.68,11.83,11.83,0,0,1-2.93-2.18,15.1,15.1,0,0,1-3.75-6.14,16.51,16.51,0,0,1,1.56-13.54l.28.11a25.76,25.76,0,0,0,1.2,12.41,17.6,17.6,0,0,0,2.79,5.24,12.48,12.48,0,0,0,4.71,3.57,9.11,9.11,0,0,0,6.2,0,17.72,17.72,0,0,0,5.36-3.43,31.87,31.87,0,0,0,8.52-9.24Z"/><path d="M155.07,116.29a51.34,51.34,0,0,0-5.58,5.1,52.72,52.72,0,0,0-4.66,6,17.5,17.5,0,0,1,3.93-6.63A17.7,17.7,0,0,1,155.07,116.29Z"/><path d="M142.1,108.55c-1.35,1.91-2.66,3.75-3.81,5.7s-2.17,4-3.21,6.06a17.06,17.06,0,0,1,2.35-6.57A17.31,17.31,0,0,1,142.1,108.55Z"/><path d="M120.68,114.66a17.65,17.65,0,0,1,1.11-5.48,17.2,17.2,0,0,1,1.2-2.53,20.06,20.06,0,0,1,1.49-2.37,18.9,18.9,0,0,1-.78,2.68c-.29.87-.68,1.7-1,2.57C122.09,111.24,121.48,113,120.68,114.66Z"/><path d="M107.66,114.2c0-2.18,0-4.28,0-6.4s-.07-4.23,0-6.4a20.59,20.59,0,0,1,0,12.8Z"/><path d="M95.83,117.7c-.36-2.47-.61-4.89-1-7.3s-.79-4.81-1.16-7.28a25.41,25.41,0,0,1,2.14,14.58Z"/><ellipse class="cls-2" cx="122.43" cy="127.83" rx="3.67" ry="4.42" transform="translate(-50.72 164.59) rotate(-58.22)"/></svg>