<svg id="Capa_1" data-name="Capa 1" xmlns="http://www.w3.org/2000/svg" viewBox="0 0 167.24 260.79"><path d="M146.9,105.07a37.24,37.24,0,0,1-7.47,14.78,43.57,43.57,0,0,1-13,10.72,42,42,0,0,1-16.22,4.65,42.51,42.51,0,0,1-16.44-1.81,105.06,105.06,0,0,0,15.86-2.08,57.88,57.88,0,0,0,14.47-5.18,61.08,61.08,0,0,0,12.51-9A74.7,74.7,0,0,0,146.9,105.07Z"/><path d="M155.62,120.14a9.44,9.44,0,0,1-4.07-.27,13.06,13.06,0,0,1-6.66-4.36,9.51,9.51,0,0,1-1.87-3.63,30.53,30.53,0,0,1,3.44,1.87c1,.64,2.06,1.29,3.07,2s2,1.33,3,2A31.18,31.18,0,0,1,155.62,120.14Z"/><path d="M144.89,130.78a8.92,8.92,0,0,1-3.57-1,12.19,12.19,0,0,1-2.92-2.17,12,12,0,0,1-2.14-2.94,8.63,8.63,0,0,1-1-3.58,21,21,0,0,1,2.87,2.14c.85.74,1.65,1.49,2.41,2.27s1.51,1.57,2.24,2.43A19.83,19.83,0,0,1,144.89,130.78Z"/><path d="M122.64,130a10.63,10.63,0,0,1,2.34,1.83,16,16,0,0,1,1.71,2.1,16.66,16.66,0,0,1,1.35,2.33,8.74,8.74,0,0,1,.78,2.9,8.19,8.19,0,0,1-2.65-1.46,9.51,9.51,0,0,1-2-2.09A10.1,10.1,0,0,1,123,133,7.18,7.18,0,0,1,122.64,130Z"/><path d="M112.1,133.58a8.5,8.5,0,0,1,2.26,2.63,12.18,12.18,0,0,1,1.24,3.1,11.91,11.91,0,0,1,.36,3.32,8.49,8.49,0,0,1-.78,3.38,14.56,14.56,0,0,1-1.55-3,24.35,24.35,0,0,1-1.49-6A14,14,0,0,1,112.1,133.58Z"/><path d="M98.87,133.75a10.79,10.79,0,0,1,1.95,3.4,15.52,15.52,0,0,1,.85,3.73,15.2,15.2,0,0,1-.11,3.81,10.39,10.39,0,0,1-1.26,3.72,19,19,0,0,1-1.09-3.67,34.18,34.18,0,0,1-.53-3.57,35.72,35.72,0,0,1-.17-3.6A19.09,19.09,0,0,1,98.87,133.75Z"/><path d="M25,102a75.16,75.16,0,0,0,9.47,12.79,60.68,60.68,0,0,0,11.86,9.81,57.67,57.67,0,0,0,14.08,6.17,105.25,105.25,0,0,0,15.67,3.17,42.46,42.46,0,0,1-16.52.67,42,42,0,0,1-15.86-5.76,43.57,43.57,0,0,1-12.26-11.58A37.46,37.46,0,0,1,25,102Z"/><path d="M15.31,116.43a31.36,31.36,0,0,1,3.24-2.19c1.06-.64,2.1-1.23,3.14-1.82s2.1-1.17,3.19-1.74a32.91,32.91,0,0,1,3.56-1.63,9.32,9.32,0,0,1-2.11,3.49,13.11,13.11,0,0,1-6.95,3.9A9.47,9.47,0,0,1,15.31,116.43Z"/><path d="M25.28,127.78A20.93,20.93,0,0,1,27.59,125c.79-.8,1.58-1.55,2.4-2.27s1.66-1.41,2.56-2.09a19.88,19.88,0,0,1,3-1.94,8.63,8.63,0,0,1-1.25,3.5A12.2,12.2,0,0,1,28.91,127,8.64,8.64,0,0,1,25.28,127.78Z"/><path d="M47.53,128.54a7.24,7.24,0,0,1-.52,3A9.87,9.87,0,0,1,45.59,134,9.12,9.12,0,0,1,43.48,136a8.14,8.14,0,0,1-2.74,1.28,8.71,8.71,0,0,1,1-2.84,16.76,16.76,0,0,1,1.51-2.23,15,15,0,0,1,1.85-2A10.38,10.38,0,0,1,47.53,128.54Z"/><path d="M55.79,133a14.46,14.46,0,0,1-.26,3.37,26.69,26.69,0,0,1-.77,3,25.39,25.39,0,0,1-1.14,2.91,14.26,14.26,0,0,1-1.76,2.89,8.83,8.83,0,0,1-.54-3.43,12.22,12.22,0,0,1,.58-3.29,12.08,12.08,0,0,1,1.46-3A8.52,8.52,0,0,1,55.79,133Z"/><path d="M70,134.19a19.1,19.1,0,0,1,.09,3.83,34.67,34.67,0,0,1-.42,3.58,33.49,33.49,0,0,1-.76,3.52,19.43,19.43,0,0,1-1.35,3.6,10.51,10.51,0,0,1-1-3.8,14.71,14.71,0,0,1,.16-3.81,15.12,15.12,0,0,1,1.09-3.66A10.69,10.69,0,0,1,70,134.19Z"/></svg>