<svg id="Capa_1" data-name="Capa 1" xmlns="http://www.w3.org/2000/svg" viewBox="0 0 167.24 260.79"><defs><style>.cls-1{stroke:#000;stroke-miterlimit:10;}</style></defs><ellipse class="cls-1" cx="65.23" cy="126.13" rx="4.42" ry="3.67" transform="translate(-59.07 57.47) rotate(-33.74)"/><path d="M156.9,139.12a95.1,95.1,0,0,0-10.08-12.2,73.75,73.75,0,0,0-5.72-5,54.43,54.43,0,0,0-6.11-4.3,63.31,63.31,0,0,0-13.74-6.12,143.75,143.75,0,0,0-15.51-3.69h0a.2.2,0,0,1-.15-.23.18.18,0,0,1,.17-.16,57.5,57.5,0,0,1,16.19,1,48.43,48.43,0,0,1,15.17,5.81,50.43,50.43,0,0,1,12.2,10.73,48,48,0,0,1,8,14.1.19.19,0,0,1-.34.18Z"/><ellipse class="cls-1" cx="116.93" cy="125.83" rx="3.67" ry="4.42" transform="translate(-51.62 158.97) rotate(-58.22)"/><path d="M25,135.25a34.38,34.38,0,0,1,8.3-14.66,42,42,0,0,1,14.07-9.9,40.73,40.73,0,0,1,16.94-3.09,38.77,38.77,0,0,1,16.31,3.89l0,0a.2.2,0,0,1,.09.26.21.21,0,0,1-.22.1,64.74,64.74,0,0,0-16-1.12,47.67,47.67,0,0,0-15.58,3.62A49.9,49.9,0,0,0,35.42,123a52.3,52.3,0,0,0-10.07,12.47.2.2,0,0,1-.27.08.2.2,0,0,1-.09-.22Z"/></svg>