<svg id="Capa_1" data-name="Capa 1" xmlns="http://www.w3.org/2000/svg" viewBox="0 0 167.24 260.79"><defs><style>.cls-1{fill:#fff;}.cls-1,.cls-2{stroke:#000;stroke-miterlimit:10;}</style></defs><ellipse class="cls-1" cx="58.74" cy="127.89" rx="33.95" ry="19.82" transform="translate(-81.63 138.09) rotate(-69.49)"/><ellipse class="cls-1" cx="115.88" cy="126.43" rx="19.32" ry="32.89" transform="translate(-26.49 30.8) rotate(-13.6)"/><path d="M70.64,96.09c-8.58-3.21-19.54,4.07-26.73,16.84,8.47,4.57,21.54,7.77,36.6,8.6C81.85,109.23,78.25,98.94,70.64,96.09Z"/><path d="M70.64,96.09a13,13,0,0,0-8.34,0,21.16,21.16,0,0,0-7.23,4.23,33.56,33.56,0,0,0-5.58,6.21,55,55,0,0,0-4.25,7.15l-.61-2.1a65.7,65.7,0,0,0,8.6,3.22c2.93.91,5.93,1.66,8.94,2.34s6.07,1.28,9.14,1.79,6.16,1,9.27,1.35l-1.32,1.12a36.22,36.22,0,0,0-.09-14.26,19.33,19.33,0,0,0-2.89-6.59A12.69,12.69,0,0,0,70.64,96.09Zm0,0a13.78,13.78,0,0,1,5.78,4.35,21,21,0,0,1,3.46,6.49,35.14,35.14,0,0,1,1.61,7.26,46.67,46.67,0,0,1,.27,7.48l0,1.12H80.44c-3.19,0-6.39-.08-9.58-.38A81,81,0,0,1,61.33,121,69.37,69.37,0,0,1,52,118.42a51.82,51.82,0,0,1-8.83-4.15l-1.39-.85.79-1.24a49.33,49.33,0,0,1,5.34-6.93,39.12,39.12,0,0,1,6.55-5.72,25.16,25.16,0,0,1,7.75-3.7A14.38,14.38,0,0,1,70.64,96.09Z"/><path class="cls-2" d="M117.3,118.52c-2.59.63-5.33,1.18-8.19,1.64a13.5,13.5,0,0,0,.61,7.17c1.73,5,5.5,8.26,8.43,7.25s3.89-5.88,2.17-10.9A14.46,14.46,0,0,0,117.3,118.52Z"/><path class="cls-2" d="M57,117.93a13.48,13.48,0,0,0-2.89,6.71c-.82,5.24,1,9.88,4,10.35s6.2-3.38,7-8.62a13.85,13.85,0,0,0-.48-6.69C62,119.18,59.42,118.59,57,117.93Z"/><path d="M108.14,94.45c-8.48,2.06-13.33,13.38-12.47,27.1,14.74-.77,27.61-3.81,36.18-8.18C126.37,100.47,116.74,92.37,108.14,94.45Z"/><path d="M108.14,94.45a12.68,12.68,0,0,0-6.58,4.34,20.26,20.26,0,0,0-3.57,7,31.2,31.2,0,0,0-1.24,7.79,50.07,50.07,0,0,0,.32,7.84l-1.47-1.32c3.06-.34,6.11-.76,9.14-1.23s6-1,9-1.65,5.94-1.36,8.86-2.17c1.46-.42,2.91-.87,4.33-1.39s2.84-1,4.23-1.63l-.67,1.85a52.09,52.09,0,0,0-3.29-7.27,31.82,31.82,0,0,0-4.67-6.52,20.32,20.32,0,0,0-6.46-4.78A12.67,12.67,0,0,0,108.14,94.45Zm0,0a14,14,0,0,1,8,.69,23.47,23.47,0,0,1,7,4.35,36.9,36.9,0,0,1,5.62,6.15,48.74,48.74,0,0,1,4.37,7.16l.57,1.16-1.25.69c-1.4.79-2.82,1.55-4.28,2.2s-3,1.23-4.45,1.78a68.41,68.41,0,0,1-9.19,2.55,80.47,80.47,0,0,1-9.39,1.37c-3.14.3-6.3.41-9.44.41H94.26v-1.32a43,43,0,0,1,2.9-16.09,23.38,23.38,0,0,1,4.22-6.91A13.89,13.89,0,0,1,108.14,94.45Z"/><ellipse class="cls-1" cx="61.12" cy="128.89" rx="3.5" ry="2" transform="translate(-81.02 140.97) rotate(-69.49)"/><ellipse class="cls-1" cx="114.12" cy="127.89" rx="2" ry="3.5" transform="translate(-37.58 48.1) rotate(-20.51)"/></svg>