<svg id="Capa_1" data-name="Capa 1" xmlns="http://www.w3.org/2000/svg" viewBox="0 0 167.24 260.79"><defs><style>.cls-1{fill:#fff;}.cls-1,.cls-2{stroke:#000;stroke-miterlimit:10;}</style></defs><ellipse class="cls-1" cx="55.92" cy="130.89" rx="19.82" ry="33.95" transform="translate(-2.65 1.16) rotate(-1.17)"/><ellipse class="cls-1" cx="113.06" cy="129.43" rx="19.32" ry="32.89" transform="translate(-27.27 30.23) rotate(-13.6)"/><path d="M55.23,97c-6.32.75-12.53,4.19-17.77,19,9.56,1.12,23.69,16.79,38,12C75.46,115,66.89,95.55,55.23,97Z"/><path d="M55.23,97a14.71,14.71,0,0,0-6.44,2.25A16.49,16.49,0,0,0,44.05,104a30.33,30.33,0,0,0-3,6c-.85,2.09-1.46,4.28-2.11,6.44l-1.27-2a18.58,18.58,0,0,1,5.4,1.43c1.66.69,3.23,1.47,4.77,2.27,3.06,1.61,6,3.34,8.92,4.85a43,43,0,0,0,9,3.57,18.35,18.35,0,0,0,9.25,0L74,128a41.31,41.31,0,0,0-.85-9.8,43.45,43.45,0,0,0-3.07-9.51,26.64,26.64,0,0,0-5.67-8.26,13.74,13.74,0,0,0-4.19-2.78A10.06,10.06,0,0,0,55.23,97Zm0,0a10.19,10.19,0,0,1,5,.64,15.57,15.57,0,0,1,4.33,2.65,30.53,30.53,0,0,1,6.34,8A50,50,0,0,1,75,117.71,40.71,40.71,0,0,1,76.94,128l0,1-1,.39a19,19,0,0,1-5.44,1.19,23,23,0,0,1-5.51-.37,37.09,37.09,0,0,1-10.07-3.63c-3.12-1.6-6.06-3.4-8.95-5.12s-5.8-3.38-8.68-4l-2-.4.72-1.63a58.13,58.13,0,0,1,3.17-6.31,38.18,38.18,0,0,1,4.08-5.76A20,20,0,0,1,48.65,99,17.67,17.67,0,0,1,55.23,97Z"/><path class="cls-2" d="M117.42,118c-2.53-.83-5.14-1.81-7.81-2.93a13.52,13.52,0,0,0-3.28,6.41c-1.17,5.17.32,9.92,3.33,10.61s6.42-2.95,7.6-8.12A14.46,14.46,0,0,0,117.42,118Z"/><path class="cls-2" d="M50.62,124.28a13.27,13.27,0,0,0-.21,7.31c1.17,5.17,4.57,8.81,7.59,8.12s4.51-5.44,3.33-10.61c-.56-2.46-2.08-2.13-3.37-3.6C55.26,126,53.12,124,50.62,124.28Z"/><path d="M105.32,97.45C96.84,99.51,94.46,108,93.46,114c14.74-.77,27,6.74,35.57,2.37C123.55,103.47,113.92,95.37,105.32,97.45Z"/><path d="M105.32,97.45a12.21,12.21,0,0,0-4.81,2.38A12.4,12.4,0,0,0,97.24,104a26.89,26.89,0,0,0-2.4,10.23l-1.46-1.63a44.66,44.66,0,0,1,9.32,0,85.2,85.2,0,0,1,9,1.5c3,.62,5.83,1.29,8.64,1.66a15.49,15.49,0,0,0,8-.69l-.68,1.85a48.38,48.38,0,0,0-3.27-7.28,32.46,32.46,0,0,0-4.68-6.51,20.09,20.09,0,0,0-6.46-4.79,13.85,13.85,0,0,0-3.9-1.12A12.06,12.06,0,0,0,105.32,97.45Zm0,0a13.47,13.47,0,0,1,8.05.69,24.33,24.33,0,0,1,7,4.34,42.91,42.91,0,0,1,10,13.32l.56,1.15-1.24.7a14.65,14.65,0,0,1-4.77,1.66,22.17,22.17,0,0,1-4.87.17,64.29,64.29,0,0,1-9.12-1.46c-5.87-1.27-11.56-2.56-17.39-2.62l-1.87,0,.41-1.61a30.71,30.71,0,0,1,4.43-10.23,16.47,16.47,0,0,1,3.88-3.89A14.92,14.92,0,0,1,105.32,97.45Z"/><ellipse class="cls-1" cx="58.11" cy="136" rx="2" ry="3.5" transform="translate(-2.75 1.21) rotate(-1.17)"/><ellipse class="cls-1" cx="109.78" cy="124.23" rx="3.5" ry="2" transform="matrix(0.2, -0.98, 0.98, 0.2, -33.61, 207.45)"/></svg>