<svg id="Capa_1" data-name="Capa 1" xmlns="http://www.w3.org/2000/svg" viewBox="0 0 167.24 260.79"><defs><style>.cls-1{stroke:#000;}.cls-1,.cls-2{stroke-linecap:round;stroke-miterlimit:10;}.cls-2{fill:#fff;stroke:#fff;}</style></defs><path d="M18.23,129.75a45.17,45.17,0,0,1,26.94-11.44c5-.45,10.06.32,14.88,1.07A53.91,53.91,0,0,1,67.4,121,23.51,23.51,0,0,1,71,122.45a12.79,12.79,0,0,1,3.39,2.34,9.38,9.38,0,0,1,1.37,1.69l.52,1c.16.34.25.7.38,1a10.24,10.24,0,0,1,.22,4.25,15.07,15.07,0,0,1-3.37,7.3,13.81,13.81,0,0,1-6.69,4.41,15.38,15.38,0,0,1-7.88.1,17.92,17.92,0,0,1-7-3.37,12.84,12.84,0,0,1-4.52-6.28,10.66,10.66,0,0,1,.84-7.55,13,13,0,0,1,2.08-3.12,12.76,12.76,0,0,1,2.87-2.33,12.87,12.87,0,0,0-4.19,5.77,9.65,9.65,0,0,0-.2,6.77,11.27,11.27,0,0,0,4.29,5.16,16.42,16.42,0,0,0,6.29,2.66,13.84,13.84,0,0,0,6.63-.32,11.16,11.16,0,0,0,5.27-3.71,12.45,12.45,0,0,0,2.66-5.9,7.41,7.41,0,0,0-.17-3,5.52,5.52,0,0,0-1.53-2.43,9.48,9.48,0,0,0-2.62-1.82,19.92,19.92,0,0,0-3.18-1.28,56.81,56.81,0,0,0-7-1.65c-2.37-.43-4.8-.9-7.14-1.17a47.45,47.45,0,0,0-7.13-.36A50,50,0,0,0,18.23,129.75Z"/><ellipse class="cls-1" cx="60.69" cy="131.78" rx="13.75" ry="10.88"/><circle class="cls-2" cx="68.48" cy="131.22" r="2.71"/><path d="M149.5,129.75a50,50,0,0,0-27-9.11,47.58,47.58,0,0,0-7.14.36c-2.33.27-4.77.74-7.14,1.17a56.81,56.81,0,0,0-7,1.65A20.3,20.3,0,0,0,98,125.1a9.63,9.63,0,0,0-2.62,1.82,5.52,5.52,0,0,0-1.53,2.43,7.25,7.25,0,0,0-.16,3,12.43,12.43,0,0,0,2.65,5.9,11.21,11.21,0,0,0,5.27,3.71,13.84,13.84,0,0,0,6.63.32,16.35,16.35,0,0,0,6.29-2.66,11.21,11.21,0,0,0,4.29-5.16,9.65,9.65,0,0,0-.2-6.77,12.87,12.87,0,0,0-4.19-5.77,12.54,12.54,0,0,1,2.87,2.33,13,13,0,0,1,2.08,3.12,10.6,10.6,0,0,1,.84,7.55,12.84,12.84,0,0,1-4.52,6.28,17.94,17.94,0,0,1-7,3.37,15.42,15.42,0,0,1-7.89-.1,13.81,13.81,0,0,1-6.69-4.41,15.07,15.07,0,0,1-3.37-7.3,10.24,10.24,0,0,1,.22-4.25c.13-.35.23-.71.39-1l.51-1a9.83,9.83,0,0,1,1.37-1.69,12.79,12.79,0,0,1,3.39-2.34,23.61,23.61,0,0,1,3.64-1.42,53.44,53.44,0,0,1,7.34-1.65c4.83-.75,9.85-1.52,14.89-1.07A45.14,45.14,0,0,1,149.5,129.75Z"/><ellipse class="cls-1" cx="107.04" cy="131.78" rx="13.75" ry="10.88"/><circle class="cls-2" cx="99.25" cy="131.22" r="2.71"/></svg>