<svg id="Capa_1" data-name="Capa 1" xmlns="http://www.w3.org/2000/svg" viewBox="0 0 167.24 260.79"><defs><style>.cls-1,.cls-2{fill:none;stroke:#000;stroke-linecap:round;stroke-width:3px;}.cls-1{stroke-linejoin:round;}.cls-2{stroke-miterlimit:10;}</style></defs><path class="cls-1" d="M18.15,112.1A171.73,171.73,0,0,0,46.8,123.32a204.59,204.59,0,0,0,29.13,6.2s-6.28,2.57-12.87,5c-8.36,3.11-19.37,8.95-31,20.9"/><path class="cls-2" d="M32.79,132.91a143.68,143.68,0,0,0,28.64-1.45c3.74-.57,7.29-1.26,10.65-2"/><path class="cls-1" d="M145.24,104.1c-16,16.69-42.8,23.35-42.8,23.35s32.49,6.71,41,23.36"/><path class="cls-2" d="M145.24,123.47a144,144,0,0,1-28.24,5c-3.77.29-7.39.42-10.83.42"/></svg>