<svg id="Capa_1" data-name="Capa 1" xmlns="http://www.w3.org/2000/svg" viewBox="0 0 167.24 260.79"><defs><style>.cls-1{fill:#fff;}</style></defs><ellipse class="cls-1" cx="55.08" cy="147.41" rx="24.88" ry="15.22" transform="translate(-100.45 171.41) rotate(-78.28)"/><path d="M70.13,150.53a47,47,0,0,1-2.41,7.63,32,32,0,0,1-3.89,7A20.9,20.9,0,0,1,58,170.81a11.91,11.91,0,0,1-8.11,1.7,12.12,12.12,0,0,1-7-4.6,21.64,21.64,0,0,1-3.53-7.51A37.15,37.15,0,0,1,39,144.08a37.92,37.92,0,0,1,6.4-15.16,22,22,0,0,1,6.28-5.78,14,14,0,0,1,4.18-1.57,10.56,10.56,0,0,1,8.7,1.94,14,14,0,0,1,3,3.17,21.46,21.46,0,0,1,3.05,7.78A41.13,41.13,0,0,1,70.13,150.53Zm-.3-.06a31.92,31.92,0,0,0-.73-15.61,19.84,19.84,0,0,0-3.5-6.68,10.34,10.34,0,0,0-5.77-3.67,10,10,0,0,0-6.6,1.34,19.54,19.54,0,0,0-5.48,4.89,34.44,34.44,0,0,0-6.4,13.82,35.08,35.08,0,0,0-.12,15.36,19.77,19.77,0,0,0,3,7A10.45,10.45,0,0,0,50.18,171a10.67,10.67,0,0,0,7.25-1.2,20.43,20.43,0,0,0,5.9-5A32.86,32.86,0,0,0,69.83,150.47Z"/><ellipse class="cls-1" cx="96.07" cy="140.3" rx="25.25" ry="33.49"/><path d="M121.47,140.3a47.32,47.32,0,0,1-1.55,11.48,37.66,37.66,0,0,1-4.57,10.68,28,28,0,0,1-8,8.47,20.09,20.09,0,0,1-22.62.25,28.5,28.5,0,0,1-8.44-8.36,43.3,43.3,0,0,1-.43-45.33,28.84,28.84,0,0,1,8.49-8.66,22.15,22.15,0,0,1,11.77-3.53,21.32,21.32,0,0,1,11.6,3.79,28.46,28.46,0,0,1,8.09,8.78,38.1,38.1,0,0,1,4.38,10.88A48.41,48.41,0,0,1,121.47,140.3Zm-.3,0A41.41,41.41,0,0,0,119.42,129a35.73,35.73,0,0,0-5-10.2,27,27,0,0,0-8.09-7.56,19.83,19.83,0,0,0-10.26-2.89A19,19,0,0,0,86,111.45a26.54,26.54,0,0,0-7.69,7.68,40.5,40.5,0,0,0-.42,42.62,26.71,26.71,0,0,0,7.73,8,19,19,0,0,0,21.1.26,27.34,27.34,0,0,0,8.13-7.87,36.74,36.74,0,0,0,4.81-10.4A42.29,42.29,0,0,0,121.17,140.3Z"/><path d="M45.34,90.6c2,1.74,4,3.61,5.89,5.51s3.71,3.92,5.44,6a42.11,42.11,0,0,1,4.93,6.44,27.85,27.85,0,0,1,3.09,7.58.16.16,0,0,1-.12.19.18.18,0,0,1-.14,0,49.59,49.59,0,0,1-5.33-6.08c-1.64-2.07-2.85-4.45-4.34-6.64s-3.06-4.34-4.66-6.47-3.28-4.21-5-6.28a.15.15,0,0,1,0-.21A.15.15,0,0,1,45.34,90.6Z"/><path d="M87.06,97.2a26.37,26.37,0,0,1,9.3-8.62A22.82,22.82,0,0,1,109,86a25.08,25.08,0,0,1,6.48,1.43,18.86,18.86,0,0,1,5.75,3.35,20.33,20.33,0,0,1,6.77,11,.15.15,0,0,1-.11.18.15.15,0,0,1-.16-.06,34.7,34.7,0,0,0-8.34-8.75,33.4,33.4,0,0,0-5.06-3,20.59,20.59,0,0,0-5.62-1.78A20.85,20.85,0,0,0,97,89.93a26.46,26.46,0,0,0-9.71,7.44h0a.15.15,0,0,1-.24-.18Z"/><ellipse cx="54.15" cy="148.14" rx="6.86" ry="4.01" transform="translate(-101.14 175.74) rotate(-80)"/><path d="M58.25,148.86A16.78,16.78,0,0,1,56.78,153a6.18,6.18,0,0,1-1.45,1.84,3.39,3.39,0,0,1-2.5.77,3.75,3.75,0,0,1-2.34-1.39A6.92,6.92,0,0,1,49.34,152a11.51,11.51,0,0,1-.32-4.77,12,12,0,0,1,1.53-4.65,6.66,6.66,0,0,1,1.87-2,4.25,4.25,0,0,1,3.18-.68,3.85,3.85,0,0,1,2.5,1.91,5.86,5.86,0,0,1,.67,2.51A18.84,18.84,0,0,1,58.25,148.86Zm-.3-.05a6.74,6.74,0,0,0-.74-4.08,4.93,4.93,0,0,0-1.11-1.43,1.77,1.77,0,0,0-1-.45,1.83,1.83,0,0,0-.94.34A5.41,5.41,0,0,0,53,144.27a8.44,8.44,0,0,0-1.62,3.38,9.28,9.28,0,0,0-.11,3.85c.22,1.23.85,2.4,1.82,2.66a2.41,2.41,0,0,0,1.62-.24,5.51,5.51,0,0,0,1.55-1.25A7.39,7.39,0,0,0,58,148.81Z"/><ellipse cx="96.07" cy="140.3" rx="10.57" ry="6.32" transform="translate(-58.78 210.55) rotate(-80)"/><path d="M102.45,141.42a20.48,20.48,0,0,1-2.37,6.36,9.06,9.06,0,0,1-2.34,2.65,5.12,5.12,0,0,1-3.63,1,5.48,5.48,0,0,1-3.32-2,9.78,9.78,0,0,1-1.68-3.29,16.81,16.81,0,0,1-.45-7.15,17.44,17.44,0,0,1,2.45-6.86,9.66,9.66,0,0,1,2.75-2.81,6,6,0,0,1,4.31-.91,5.6,5.6,0,0,1,3.48,2.52,9.15,9.15,0,0,1,1.22,3.57A22.07,22.07,0,0,1,102.45,141.42Zm-.3,0a11.8,11.8,0,0,0-.83-6.44,8.63,8.63,0,0,0-1.64-2.48,3.6,3.6,0,0,0-2-1.08,3.46,3.46,0,0,0-2.11.58,8.34,8.34,0,0,0-2,1.9A14,14,0,0,0,91,139.41a14.61,14.61,0,0,0,0,6.21,8.11,8.11,0,0,0,1.17,2.76A3.86,3.86,0,0,0,94.37,150a4.14,4.14,0,0,0,2.77-.48,8.43,8.43,0,0,0,2.42-2.06A12.45,12.45,0,0,0,102.15,141.37Z"/></svg>