<svg id="Capa_1" data-name="Capa 1" xmlns="http://www.w3.org/2000/svg" viewBox="0 0 167.24 260.79"><path d="M41.35,143.41a21.44,21.44,0,0,1-2-8.3,22.17,22.17,0,0,1,1.57-8.75,18.59,18.59,0,0,1,2.11-4.08,19,19,0,0,1,1.39-1.88A17.83,17.83,0,0,1,54.83,114l1.36-.16c.46,0,.91,0,1.37,0l.68,0,.65.1c.44.07.87.14,1.3.23a17,17,0,0,1,4.61,2,21,21,0,0,1,6.64,6.51,21.61,21.61,0,0,1,3,16.79v0a.2.2,0,0,1-.39,0,25.37,25.37,0,0,0-5.13-14.84,19.48,19.48,0,0,0-6-5.15,14.28,14.28,0,0,0-3.65-1.43,12.57,12.57,0,0,0-1.93-.24c-.32,0-.65,0-1,0l-1,.14a13.63,13.63,0,0,0-6.91,3.5,21,21,0,0,0-4.75,6.3,25,25,0,0,0-2,15.56.21.21,0,0,1-.16.23.22.22,0,0,1-.22-.11Z"/><path d="M96.13,143.49a25,25,0,0,1-1.63-8.34,25.56,25.56,0,0,1,1.42-8.68,18,18,0,0,1,.82-2.11c.16-.35.32-.69.5-1l.58-1a18.58,18.58,0,0,1,1.27-2,20.21,20.21,0,0,1,1.5-1.85,16.92,16.92,0,0,1,1.79-1.69,19.19,19.19,0,0,1,2.11-1.46,12.64,12.64,0,0,1,5.4-1.64,13.28,13.28,0,0,1,5.48,1.15,17.35,17.35,0,0,1,4.15,2.73A22.8,22.8,0,0,1,125,125a26.2,26.2,0,0,1,2.38,8.46,25.45,25.45,0,0,1-.69,8.47v0a.2.2,0,0,1-.25.14.2.2,0,0,1-.14-.19,35.32,35.32,0,0,0-1-7.94,28.6,28.6,0,0,0-3-7.37,22.24,22.24,0,0,0-5.13-6,15.58,15.58,0,0,0-3.34-2.06,9.38,9.38,0,0,0-3.77-.76,10.87,10.87,0,0,0-6.79,3.47,22.07,22.07,0,0,0-4.43,6.56,28.33,28.33,0,0,0-2.18,7.66,35.17,35.17,0,0,0-.13,8,.2.2,0,0,1-.18.22.22.22,0,0,1-.2-.13Z"/></svg>