<svg id="Capa_1" data-name="Capa 1" xmlns="http://www.w3.org/2000/svg" viewBox="0 0 167.24 260.79"><defs><style>.cls-1{fill:#fff;}.cls-2{stroke:#000;stroke-linecap:round;stroke-linejoin:round;}</style></defs><path class="cls-1" d="M21.91,101.37c13,7.89,18,27,28.76,50.94,8.34,18.54,48.24-8.94,17.55-29.16C62,119,29.12,106.82,22.28,101.21"/><path d="M21.91,101.37a27.1,27.1,0,0,1,4.46,3.09,34.24,34.24,0,0,1,3.81,3.9,58.23,58.23,0,0,1,6.1,9c3.51,6.37,6.32,13,9.19,19.65l4.31,9.89c.72,1.64,1.47,3.29,2.22,4.89a9,9,0,0,0,2.91,3.58c2.49,1.8,6,1.92,9.16,1a20.72,20.72,0,0,0,8.65-5,17.3,17.3,0,0,0,5.1-8.38,13.46,13.46,0,0,0-1.26-9.48A24.19,24.19,0,0,0,69.9,126c-.68-.54-1.38-1.06-2.11-1.55a20.44,20.44,0,0,0-2.19-1.31c-1.55-.83-3.16-1.61-4.78-2.38-3.24-1.54-6.52-3-9.8-4.51l-9.82-4.53q-4.89-2.32-9.71-4.82a51.91,51.91,0,0,1-9.21-5.69A32.88,32.88,0,0,0,27,103.87c1.61.8,3.24,1.55,4.89,2.28,3.29,1.45,6.62,2.8,10,4.16,6.66,2.73,13.37,5.35,20,8.24,1.66.72,3.32,1.46,5,2.3a21.85,21.85,0,0,1,2.46,1.41c.78.51,1.54,1,2.28,1.61a26.9,26.9,0,0,1,7.56,8.43,17.21,17.21,0,0,1,1.84,5.58,15.83,15.83,0,0,1-.26,5.9,20.23,20.23,0,0,1-5.9,9.88,23.49,23.49,0,0,1-10,5.63,16.47,16.47,0,0,1-5.87.54,11.2,11.2,0,0,1-9.5-6.83c-.75-1.68-1.45-3.32-2.15-5-1.39-3.34-2.76-6.68-4.07-10s-2.63-6.71-4-10-2.75-6.63-4.32-9.84a59.09,59.09,0,0,0-5.4-9.23A31.17,31.17,0,0,0,21.91,101.37Z"/><ellipse class="cls-2" cx="64.51" cy="141.44" rx="8.32" ry="8.84"/><path class="cls-1" d="M144.65,101.37c-13,7.89-18,27-28.76,50.94-8.34,18.54-48.24-8.94-17.55-29.16,6.24-4.11,39.1-16.33,45.94-21.94"/><path d="M144.65,101.37a31.17,31.17,0,0,0-7.61,7.5,59.09,59.09,0,0,0-5.4,9.23c-1.57,3.21-3,6.51-4.32,9.84s-2.68,6.68-4,10-2.68,6.7-4.07,10c-.7,1.67-1.4,3.31-2.15,5a11.2,11.2,0,0,1-9.5,6.83,16.45,16.45,0,0,1-5.87-.54,23.49,23.49,0,0,1-10-5.63,20.23,20.23,0,0,1-5.9-9.88,15.83,15.83,0,0,1-.26-5.9,17.21,17.21,0,0,1,1.84-5.58A26.78,26.78,0,0,1,95,123.87c.74-.56,1.5-1.1,2.28-1.61a21,21,0,0,1,2.46-1.41c1.65-.84,3.31-1.58,5-2.3,6.64-2.89,13.35-5.51,20-8.24,3.34-1.36,6.67-2.71,10-4.16,1.65-.73,3.28-1.48,4.89-2.28a32.88,32.88,0,0,0,4.69-2.66,51.91,51.91,0,0,1-9.21,5.69q-4.81,2.5-9.71,4.82l-9.82,4.53c-3.28,1.49-6.56,3-9.8,4.51-1.62.77-3.23,1.55-4.78,2.38a20.44,20.44,0,0,0-2.19,1.31c-.73.49-1.43,1-2.11,1.55A24.19,24.19,0,0,0,90,133.63a13.46,13.46,0,0,0-1.26,9.48,17.3,17.3,0,0,0,5.1,8.38,20.72,20.72,0,0,0,8.65,5c3.17.88,6.67.76,9.16-1a9,9,0,0,0,2.91-3.58c.75-1.6,1.5-3.25,2.22-4.89l4.31-9.89c2.86-6.61,5.68-13.28,9.19-19.65a58.23,58.23,0,0,1,6.1-9,34.24,34.24,0,0,1,3.81-3.9A27.1,27.1,0,0,1,144.65,101.37Z"/><ellipse class="cls-2" cx="102.05" cy="141.44" rx="8.32" ry="8.84"/></svg>