<svg id="Capa_1" data-name="Capa 1" xmlns="http://www.w3.org/2000/svg" viewBox="0 0 167.24 260.79"><defs><style>.cls-1{fill:#fff;}</style></defs><polygon class="cls-1" points="134.32 123.37 117.32 118.37 102.32 120.37 103.32 128.37 129.32 133.37 134.32 123.37"/><polygon class="cls-1" points="33.32 123.37 50.32 118.37 65.32 120.37 64.32 128.37 38.32 133.37 33.32 123.37"/><path class="cls-1" d="M66.6,121.62a17.24,17.24,0,0,1-15.37,19.66,17.45,17.45,0,0,1-19.14-16"/><path d="M66.6,121.62a14.86,14.86,0,0,1,1.11,7.29,19,19,0,0,1-35.08,3.75,15.17,15.17,0,0,1-.54-7.35,18.31,18.31,0,0,0,3.2,6,15.88,15.88,0,0,0,4,4.9,16.11,16.11,0,0,0,11.86,3.61,15.93,15.93,0,0,0,10.84-6,15.28,15.28,0,0,0,2.8-5.65A18.71,18.71,0,0,0,66.6,121.62Z"/><path d="M41.27,121.86a12.31,12.31,0,0,0,2.16,3.06,7.76,7.76,0,0,0,1.72,2.61,6.85,6.85,0,0,0,5.56,2.07,7.44,7.44,0,0,0,5.18-3.1,8.84,8.84,0,0,0,1.37-2.85A12.05,12.05,0,0,0,59,120.34a8.48,8.48,0,0,1,1.13,4.09,11.65,11.65,0,0,1-1.84,3.84,10.44,10.44,0,0,1-7.3,4.32,9.9,9.9,0,0,1-8-2.94,11.77,11.77,0,0,1-2.39-3.57A8.05,8.05,0,0,1,41.27,121.86Z"/><path class="cls-1" d="M135.15,125.31a17.45,17.45,0,0,1-19.14,16,17.23,17.23,0,0,1-15.36-19.66"/><path d="M135.15,125.31a14.85,14.85,0,0,1-.52,7.36,19.42,19.42,0,0,1-4.76,5.82,19.13,19.13,0,0,1-14.08,4.27,18.86,18.86,0,0,1-12.88-7.13,18.49,18.49,0,0,1-3.36-6.72,15.19,15.19,0,0,1,1.1-7.29,18,18,0,0,0,1.8,6.52,15.68,15.68,0,0,0,2.82,5.64,15.89,15.89,0,0,0,10.83,6A16.1,16.1,0,0,0,128,136.17a15.33,15.33,0,0,0,4-4.9A18.82,18.82,0,0,0,135.15,125.31Z"/><path d="M126,121.86a8.15,8.15,0,0,1,.63,4.22,11.59,11.59,0,0,1-2.39,3.57,9.89,9.89,0,0,1-8,2.94,10.42,10.42,0,0,1-7.29-4.32,11.48,11.48,0,0,1-1.85-3.84,8.48,8.48,0,0,1,1.13-4.09,12.33,12.33,0,0,0,1.76,3.31,8.66,8.66,0,0,0,1.38,2.85,7.42,7.42,0,0,0,5.17,3.1,6.86,6.86,0,0,0,5.57-2.07,7.58,7.58,0,0,0,1.71-2.61A12.6,12.6,0,0,0,126,121.86Z"/><path d="M21.5,131.87a36,36,0,0,1,5.63-6.08,56,56,0,0,1,7.34-3.8,50.25,50.25,0,0,1,16-3.91c1.37-.16,2.77-.12,4.15-.15a41.35,41.35,0,0,1,4.16.31,38.82,38.82,0,0,1,8.12,1.83,44.83,44.83,0,0,1,7.58,3.39,53.09,53.09,0,0,1,6,5.67c-2.56-1-5-2.2-7.47-3.06A43.36,43.36,0,0,0,66,122.91a37.48,37.48,0,0,0-7.53-1.7c-1.27-.18-2.56-.21-3.85-.28s-2.58,0-3.87.14a48.19,48.19,0,0,0-22,7.29A77.48,77.48,0,0,0,21.5,131.87Z"/><path d="M145.75,131.87a77.64,77.64,0,0,0-7.25-3.51,46.65,46.65,0,0,0-6.9-3.61,47.24,47.24,0,0,0-15.06-3.68c-1.3-.15-2.59-.1-3.88-.14s-2.57.1-3.85.28a37.38,37.38,0,0,0-7.52,1.7,43,43,0,0,0-7.07,3.16c-2.49.86-4.92,2-7.48,3.06a54,54,0,0,1,6-5.67,45.18,45.18,0,0,1,7.58-3.39,39,39,0,0,1,8.12-1.83,41.35,41.35,0,0,1,4.16-.31c1.38,0,2.79,0,4.15.15a50.37,50.37,0,0,1,16,3.91,55.9,55.9,0,0,1,7.33,3.8A36.43,36.43,0,0,1,145.75,131.87Z"/></svg>