<svg id="Capa_1" data-name="Capa 1" xmlns="http://www.w3.org/2000/svg" viewBox="0 0 167.24 260.79"><defs><style>.cls-1{fill:#fff;}.cls-2{stroke:#000;stroke-linecap:round;stroke-linejoin:round;}</style></defs><path class="cls-1" d="M94.27,127.87s17.2-10.1,27.61-12.55c18.1-4.27,31.65,11.73,31.65,11.73s-7.87,17.29-31,20.64C108.44,149.74,94.27,127.87,94.27,127.87Z"/><path d="M94.27,130.37a137,137,0,0,1,23-11.15,30,30,0,0,1,16.8-1.46,39.65,39.65,0,0,1,19.47,11.79v-5a27.37,27.37,0,0,1-3.62,5.54,40.78,40.78,0,0,1-12.37,10.25,44.47,44.47,0,0,1-10.26,3.93c-3.35.82-6.71,1.44-10.11.63-5.94-1.41-11-5.66-15.15-10a64.83,64.83,0,0,1-7.75-9.58,4.2,4.2,0,0,1,0,.73c0,.59,0,1.18,0,1.77s0,1.18,0,1.77c0,.16-.07.59,0,.73a63.61,63.61,0,0,0,6.18,7.9c4,4.48,8.85,8.88,14.61,11a17,17,0,0,0,9.23.65,45.42,45.42,0,0,0,11-3.44,41,41,0,0,0,13.54-10.09,29.08,29.08,0,0,0,4.71-6.83,8,8,0,0,0,0-2.5c0-.59,0-1.18,0-1.77,0-.14.07-.63,0-.73a37.61,37.61,0,0,0-17.44-11.27,28.62,28.62,0,0,0-16.94.3,102.75,102.75,0,0,0-15.4,6.64c-3.2,1.63-6.38,3.33-9.48,5.15a9.85,9.85,0,0,0,0,2.5A10.53,10.53,0,0,1,94.27,130.37Z"/><path class="cls-1" d="M73,127.87s-17.21-10.1-27.62-12.55c-18.09-4.27-31.64,11.73-31.64,11.73s7.87,17.29,31,20.64C58.81,149.74,73,127.87,73,127.87Z"/><path d="M73,125.37a137.06,137.06,0,0,0-23-11.15,30,30,0,0,0-16.8-1.46,36,36,0,0,0-13.44,6.36,35.67,35.67,0,0,0-6,5.43c-.29.34,0,2.06,0,2.5a7.22,7.22,0,0,0,0,2.5,27.37,27.37,0,0,0,3.62,5.54,40.66,40.66,0,0,0,12.37,10.25A44.13,44.13,0,0,0,40,149.27c3.34.82,6.7,1.44,10.11.63,5.94-1.41,11-5.66,15.14-10A64.9,64.9,0,0,0,73,130.37c.29-.45,0-2,0-2.5s0-1.18,0-1.77a2.57,2.57,0,0,1,0-.73,64.65,64.65,0,0,1-6.19,7.9c-4.05,4.48-8.85,8.88-14.61,11a16.93,16.93,0,0,1-9.22.65,45.63,45.63,0,0,1-11-3.44,41,41,0,0,1-13.54-10.09,29.34,29.34,0,0,1-4.7-6.83v5a37.58,37.58,0,0,1,17.43-11.27,28.61,28.61,0,0,1,16.94.3,102.75,102.75,0,0,1,15.4,6.64c3.21,1.63,6.39,3.33,9.49,5.15a13.13,13.13,0,0,1,0-2.5C73,127.57,73.23,125.51,73,125.37Z"/><path class="cls-2" d="M26.61,140.77a44,44,0,0,0,18,6.65c6.36.93,12.73-3,17.81-7.64-3.1-5.21-9.83-8.84-17.65-8.84C36.48,130.94,29.41,135,26.61,140.77Z"/><path class="cls-2" d="M140.64,140.77a44,44,0,0,1-18,6.65c-6.36.93-12.74-3-17.82-7.64,3.1-5.21,9.83-8.84,17.65-8.84C130.76,130.94,137.84,135,140.64,140.77Z"/></svg>