<svg id="Capa_1" data-name="Capa 1" xmlns="http://www.w3.org/2000/svg" viewBox="0 0 167.24 260.79"><defs><style>.cls-1{fill:#fff;}.cls-2{stroke:#000;stroke-linecap:round;stroke-linejoin:round;}</style></defs><path class="cls-1" d="M44.94,148.14c-1.24-3.57-3.43-11.6-.25-20.26,1-2.78,3.84-10.5,9.29-11.23,6.32-.84,11.78,8.31,12.9,10.2,6.93,11.62,2.06,29.8,2.06,29.8"/><path d="M44.8,148.19a30.4,30.4,0,0,1-.72-20.84,35.62,35.62,0,0,1,2.06-4.94,16.53,16.53,0,0,1,3.22-4.48,9.28,9.28,0,0,1,2.38-1.68,7.16,7.16,0,0,1,1.43-.51c.25,0,.5-.12.75-.16l.76,0a9.47,9.47,0,0,1,5.57,1.76A21,21,0,0,1,64.4,121a39.27,39.27,0,0,1,3.3,4.33,27,27,0,0,1,2.48,5,28.54,28.54,0,0,1,1.32,5.34,40.74,40.74,0,0,1,0,10.75,45.27,45.27,0,0,1-2.46,10.32.15.15,0,0,1-.19.09.15.15,0,0,1-.1-.16h0c.76-6.92,1-13.9-.26-20.48a29.28,29.28,0,0,0-3.37-9.24,24.91,24.91,0,0,0-6.28-7.62,7.27,7.27,0,0,0-4.17-1.56,6,6,0,0,0-4,1.66,14.7,14.7,0,0,0-3,3.87,34.34,34.34,0,0,0-2.16,4.63c-2.64,6.32-2.46,13.6-.4,20.22a.16.16,0,0,1-.1.19A.16.16,0,0,1,44.8,148.19Z"/><path d="M27,148.15a81.38,81.38,0,0,1,11.69-.2,89.78,89.78,0,0,1,11.64,1.52,54.06,54.06,0,0,1,11.35,3.23,40.66,40.66,0,0,1,10.05,6.18.14.14,0,0,1,0,.21.14.14,0,0,1-.16,0c-3.78-1.14-7.36-2.45-11-3.64s-7.13-2.67-10.82-3.69a87,87,0,0,0-11.24-2.37,94.05,94.05,0,0,0-11.52-1,.15.15,0,0,1,0-.3Z"/><path d="M31.27,135.58c1,1.16,2,2.3,3,3.36S36.4,141,37.5,142a32.87,32.87,0,0,1,3.39,2.79,20.46,20.46,0,0,1,1.44,1.72,12.24,12.24,0,0,1,1.28,2,.17.17,0,0,1-.08.23.15.15,0,0,1-.09,0,8,8,0,0,1-2.39-.61,10.8,10.8,0,0,1-2.1-1.11,14.27,14.27,0,0,1-3.19-3.43,32.94,32.94,0,0,1-2.66-3.81A33.91,33.91,0,0,1,31,135.73a.16.16,0,0,1,.08-.2A.17.17,0,0,1,31.27,135.58Z"/><path d="M39.51,112.37a14.53,14.53,0,0,1,4.64-9.1,14,14,0,0,1,10-3.64,14.92,14.92,0,0,1,5.39,1.28,12.63,12.63,0,0,1,7.15,13.54.14.14,0,0,1-.18.12.15.15,0,0,1-.12-.11,18.4,18.4,0,0,0-4.67-8.16,18.88,18.88,0,0,0-3.54-2.75A11.14,11.14,0,0,0,53.89,102a12,12,0,0,0-8.78,2.41,14.06,14.06,0,0,0-5.31,8,.15.15,0,0,1-.18.11A.15.15,0,0,1,39.51,112.37Z"/><path class="cls-2" d="M59.3,123.27c-.17,3.36-5.81,7.61-9.94,7.61s-4.91-3-3.11-5.8c1.57-2.47,4.78-8,8.89-7.72C59.67,117.71,59.46,120,59.3,123.27Z"/><path class="cls-1" d="M127.63,147c1.24-3.57,3.43-11.61.26-20.26-1-2.79-3.85-10.5-9.29-11.23-6.32-.85-11.78,8.31-12.91,10.2-6.93,11.62-2.06,29.8-2.06,29.8"/><path d="M127.49,146.93c2-6.62,2.24-13.9-.41-20.22a33.16,33.16,0,0,0-2.16-4.63,14.7,14.7,0,0,0-3-3.87,5.91,5.91,0,0,0-4.05-1.66,7.29,7.29,0,0,0-4.17,1.56,25.19,25.19,0,0,0-6.28,7.62A29.32,29.32,0,0,0,104,135c-1.29,6.59-1,13.57-.26,20.49h0a.16.16,0,0,1-.13.17.18.18,0,0,1-.16-.1A45.4,45.4,0,0,1,101,145.21a40.74,40.74,0,0,1,0-10.75,27.81,27.81,0,0,1,1.33-5.34,26.33,26.33,0,0,1,2.48-5,38,38,0,0,1,3.29-4.33,21.38,21.38,0,0,1,4.15-3.71,9.48,9.48,0,0,1,5.57-1.75l.76,0c.26,0,.5.11.75.16a7.16,7.16,0,0,1,1.43.51,9.51,9.51,0,0,1,2.39,1.68,16.74,16.74,0,0,1,3.22,4.48,36.28,36.28,0,0,1,2.05,4.94,30.28,30.28,0,0,1-.72,20.84.15.15,0,0,1-.19.08A.14.14,0,0,1,127.49,146.93Z"/><path d="M140.36,134.6a34.56,34.56,0,0,1-2.08,4.12,33.4,33.4,0,0,1-2.67,3.81,14.27,14.27,0,0,1-3.19,3.43,10.52,10.52,0,0,1-2.1,1.11,7.71,7.71,0,0,1-2.39.61.16.16,0,0,1-.18-.16.14.14,0,0,1,0-.09,12.7,12.7,0,0,1,1.29-2,18.63,18.63,0,0,1,1.43-1.72,34,34,0,0,1,3.39-2.79c1.1-1,2.18-2,3.22-3.07s2-2.2,3-3.36a.15.15,0,0,1,.25.15Z"/><path d="M125.8,112.84a14.06,14.06,0,0,0-5.31-8,12,12,0,0,0-8.78-2.41,11,11,0,0,0-4.24,1.53,17.93,17.93,0,0,0-8.21,10.91.15.15,0,0,1-.3,0,12.63,12.63,0,0,1,7.15-13.55A15.13,15.13,0,0,1,111.5,100a14,14,0,0,1,10,3.65,14.51,14.51,0,0,1,4.64,9.09.15.15,0,0,1-.29.06Z"/><path class="cls-2" d="M112.94,131.06c3.36-.17,7.61-5.81,7.61-9.93s-3-4.92-5.8-3.12c-2.47,1.57-8,4.78-7.72,8.89C107.38,131.43,109.71,131.22,112.94,131.06Z"/><path d="M137.71,147.51c-1.77.09-3.54.13-5.28.29a45,45,0,0,0-5.16.81c-1.71.35-3.4.79-5.09,1.27s-3.35.94-5,1.55c-3.2,1.26-6.29,2.76-9.48,4.16a100.19,100.19,0,0,1-9.82,4.1.15.15,0,0,1-.19-.1.16.16,0,0,1,0-.17,61.81,61.81,0,0,1,8.64-6.33,37.68,37.68,0,0,1,4.81-2.48,41.27,41.27,0,0,1,5.17-1.73,54.07,54.07,0,0,1,5.3-1.15c1.75-.3,3.52-.58,5.31-.77a46.14,46.14,0,0,1,10.71.25.16.16,0,0,1,.14.17A.15.15,0,0,1,137.71,147.51Z"/></svg>