<svg id="Capa_1" data-name="Capa 1" xmlns="http://www.w3.org/2000/svg" viewBox="0 0 167.24 260.79"><defs><style>.cls-1{stroke:#000;stroke-linecap:round;stroke-linejoin:round;}</style></defs><path class="cls-1" d="M74,151.74a4.05,4.05,0,0,0,3.39-5.17c-1.83-6.26-5.47-17.61-9.4-24-7.4-12-21.15-13.88-27.42-14.11a4.07,4.07,0,0,0-4.12,3.28c-1.2,6-2.2,19.36,8.18,33.27C50.86,153.4,66.23,152.71,74,151.74Z"/><path class="cls-1" d="M93.26,151.74a4.06,4.06,0,0,1-3.39-5.17c1.83-6.26,5.47-17.61,9.41-24,7.4-12,21.15-13.88,27.41-14.11a4.05,4.05,0,0,1,4.12,3.28c1.21,6,2.21,19.36-8.18,33.27C116.38,153.4,101,152.71,93.26,151.74Z"/></svg>