<svg id="Capa_1" data-name="Capa 1" xmlns="http://www.w3.org/2000/svg" viewBox="0 0 167.24 260.79"><defs><style>.cls-1{fill:#fff;}.cls-1,.cls-2{stroke:#000;stroke-linecap:round;stroke-linejoin:round;stroke-width:3px;}</style></defs><path d="M75.41,173.81a100,100,0,0,0-21.69-68.67c-1.79-2.25-4.42-4.83-7.27-5.64-2-.56-3.39,0-1.69,2.18A94.48,94.48,0,0,1,64.87,167c-.22,3.29,10.38,9.25,10.54,6.86Z"/><circle class="cls-1" cx="42.37" cy="93.25" r="12.87"/><circle class="cls-2" cx="38.47" cy="88.57" r="3.87"/><path d="M104.11,159.39a92.81,92.81,0,0,1,2.53-29.33,74,74,0,0,1,2.7-8.52c.39-1,.78-1.93,1.22-2.91,0,0,1-2.25.51-1.12s1.47-2.54.15-.35c.15-.25,1.91-2.92,1.24-1.94s1-1.41,1.17-1.62c-1,1.29.81-1,.92-1.16a61.74,61.74,0,0,0,9.55-16.53c1.49-4,.54-5.53-2.65-1.53C102,118.82,88,149.61,90.09,181.36c.19,2.85,6.71-6.36,7-6.83,2.39-3.74,7.32-10.32,7-15.14Z"/><circle class="cls-1" cx="124.87" cy="93.25" r="12.87"/><circle class="cls-2" cx="120.78" cy="88.57" r="3.87"/></svg>