<svg id="Capa_1" data-name="Capa 1" xmlns="http://www.w3.org/2000/svg" viewBox="0 0 167.24 260.79"><defs><style>.cls-1{fill:#fff;stroke:#000;stroke-linecap:round;stroke-linejoin:round;stroke-width:3px;}</style></defs><path class="cls-1" d="M62.48,144.3C57.31,125,47.77,109.07,27.91,109.07A36,36,0,0,1,72,134.82"/><path class="cls-1" d="M62.48,144.3C57.31,125,47.77,109.07,27.91,109.07a36.11,36.11,0,0,0,21.6,46.31"/><path class="cls-1" d="M104.76,144.3c5.17-19.29,14.72-35.23,34.57-35.23a36,36,0,0,0-44.05,25.75"/><path class="cls-1" d="M104.76,144.3c5.17-19.29,14.72-35.23,34.57-35.23a36.11,36.11,0,0,1-21.59,46.31"/></svg>