<svg id="Capa_1" data-name="Capa 1" xmlns="http://www.w3.org/2000/svg" viewBox="0 0 167.24 260.79"><defs><style>.cls-1{fill:#fff;stroke:#000;stroke-miterlimit:10;stroke-width:3px;}</style></defs><path class="cls-1" d="M110.12,96.94c-4.48,2.14-9,4.29-13.28,6.65a114.19,114.19,0,0,0-12.28,7.53l-1.4,1c-.45.35-.87.7-1.3,1s-.87.71-1.24,1.07-.82.72-1.15,1.08l-1,1.07c-.25.34-.57.7-.8,1a9.88,9.88,0,0,0-.85,1.48,1.29,1.29,0,0,1-.12.28s0,.06,0,.11,0,.08,0,.13a2.48,2.48,0,0,0,1,1.25,29.48,29.48,0,0,0,5.82,3.16,55.53,55.53,0,0,1,7.39,3.76,16.68,16.68,0,0,1,3.72,3.22,10.5,10.5,0,0,1,2.32,5,11.2,11.2,0,0,1-.44,5.18,17.93,17.93,0,0,1-2,4.1,36,36,0,0,1-5.36,6.25,92.31,92.31,0,0,1-12.38,9.52c-4.29,2.84-8.7,5.45-13.16,8,4.07-3.09,8.07-6.28,11.88-9.64A89.63,89.63,0,0,0,86,148.5a30.77,30.77,0,0,0,3.85-6c.95-2,1.32-4.08.82-5.36a3.93,3.93,0,0,0-1.17-1.69,9.91,9.91,0,0,0-2.33-1.42,50.51,50.51,0,0,0-6.65-2.25,37,37,0,0,1-8.09-3.13A12.76,12.76,0,0,1,68,124.63a11.18,11.18,0,0,1-1.73-6.85c.06-.54.13-1.09.22-1.63a12.62,12.62,0,0,1,.39-1.47,16.43,16.43,0,0,1,1-2.62c.38-.8.81-1.48,1.24-2.23s.88-1.3,1.34-2,.93-1.18,1.4-1.78,1-1.14,1.45-1.66,1-1.07,1.47-1.58l1.51-1.47A126.08,126.08,0,0,1,88.88,91c4.27-3.18,8.64-6.08,13-9a8.51,8.51,0,0,1,9.33,14.24,7.86,7.86,0,0,1-1,.56Z"/><path class="cls-1" d="M73.23,168.62a8.52,8.52,0,0,1,.57.83c1.14,1.86,1,5.15-2.06,7.89l-1.07.83c-3.27,2.16-8.78,2.92-18.49.23-.13-10.08,2-15.21,4.93-17.82l1.08-.83c3.42-2.25,6.64-1.56,8.15,0,.25.27.47.52.66.77,1.53,2,1.35,3.65.8,5.82,2.23,0,3.89.26,5.43,2.26"/></svg>