<svg id="Capa_1" data-name="Capa 1" xmlns="http://www.w3.org/2000/svg" viewBox="0 0 167.24 260.79"><defs><style>.cls-1{fill:#fff;stroke:#000;stroke-linecap:round;stroke-linejoin:round;stroke-width:2px;}</style></defs><path class="cls-1" d="M73.55,127.84a60.91,60.91,0,0,0-4.9,13.94,24.53,24.53,0,0,0-.51,9.81c.36,2.19.77,4.41,2.58,6.19s3.72,2.07,6.19,2.58a21.79,21.79,0,0,0,6.71.26,41.8,41.8,0,0,0,5.42-1c8.1-1.81,9.12-2.24,9.8-3.36s.58-2.22.52-4.64a24.84,24.84,0,0,0-1-6.46"/><path class="cls-1" d="M74.2,109.46a84.05,84.05,0,0,0-1.06,8.71A31.13,31.13,0,0,0,73,124a26,26,0,0,0,1.74,7.26,26.32,26.32,0,0,0,5.13,8A21.37,21.37,0,0,0,84,142.94a19.82,19.82,0,0,0,6.68,2.9c2,.51,3.77.92,5.71.2a4.41,4.41,0,0,0,2-1.26c.72-.86.74-1.76.39-6.39-.27-3.54-.38-4.33-1-5.32a7.27,7.27,0,0,0-2.13-2.23A107.4,107.4,0,0,1,86,122.91a23.76,23.76,0,0,1-4.55-5.42c-1.49-2.57-1.86-4.54-4-6.29A9.51,9.51,0,0,0,74.2,109.46Z"/><path class="cls-1" d="M76.23,88.75c-.22,0-.67.25-1.74,5a31.71,31.71,0,0,0-.87,4.84,27.41,27.41,0,0,0,.19,4.74,26.65,26.65,0,0,0,.68,4.74c.36,1.26.69,1.68,3.19,5.71,2.86,4.61,13.65,15.2,15.39,15.87,1.32.51,1.71.36,1.84.29.74-.36.91-1.58.77-5a71.81,71.81,0,0,0-.77-8.13c-.54-3.63-.86-4.6-1.45-5.61s-1.09-4.51-2.34-5.82c-1.74-1.83-1-2.28-2.47-3.68-1-1-2.89-.94-4.21-3-1.87-2.87-2.82-2.73-5-6.42C78.34,90.49,77.18,88.55,76.23,88.75Z"/><path class="cls-1" d="M78.84,75.68a5.83,5.83,0,0,0-2.7,2.91,8.36,8.36,0,0,0-.39,3.29c0,.92.06,1,.19,3.19a25.36,25.36,0,0,0,.2,3,10.7,10.7,0,0,0,1.45,3.39c3,5.5,12,16.06,13.64,17.42,1.3,1.07,1.79,1.11,2,1,2.32-1.39-.62-19.59-3.09-22.06-4.52-4.52-1.88-2-2.91-2.81-2-1.66-2.54-1.62-3.87-3a24.57,24.57,0,0,1-2-2.61C80.26,77.84,79.41,76.55,78.84,75.68Z"/><path class="cls-1" d="M82.38,64.21a4.36,4.36,0,0,0-2.08,1.46,10.53,10.53,0,0,0-1.07,2.66,18.9,18.9,0,0,0-.53,1.88c-.14.69-.09.75-.24,1.5-.19.93-.31,1.12-.49,1.94a12.71,12.71,0,0,0-.24,1.74c0,.91.5,1.61,2.52,3.68a46.38,46.38,0,0,0,4.35,4.16c1.24,1,4.28,3.36,4.74,3a2,2,0,0,0,.49-1.6,49.89,49.89,0,0,0-.78-7.06c-.56-2.83-.83-4.25-1.11-6.24A16.82,16.82,0,0,0,87,67.6a6.86,6.86,0,0,0-1.45-2.42,6.79,6.79,0,0,0-1.16-.92,2.07,2.07,0,0,0-1-.43A1.57,1.57,0,0,0,82.38,64.21Z"/></svg>