<svg id="Capa_1" data-name="Capa 1" xmlns="http://www.w3.org/2000/svg" viewBox="0 0 167.24 260.79"><defs><style>.cls-1{fill:none;stroke:#000;stroke-miterlimit:10;stroke-width:3px;}</style></defs><path class="cls-1" d="M83.49,153.33c1.74-32.32-22.3-39.09-33.8-39.09A16.67,16.67,0,0,0,33,130.91a13.33,13.33,0,0,0,13.33,13.33A10.67,10.67,0,0,0,57,133.57,8.53,8.53,0,0,0,48.49,125a6.83,6.83,0,0,0-6.83,6.83,5.47,5.47,0,0,0,5.46,5.46A4.37,4.37,0,0,0,51.49,133"/><path class="cls-1" d="M83.49,153.33c5.42-61.16-43-43.35-40.6-77.76.63-9.18,9.78-15.41,18.89-14.09A13.34,13.34,0,0,1,73.05,76.6a10.66,10.66,0,0,1-12.09,9,8.53,8.53,0,0,1-7.21-9.68,6.82,6.82,0,0,1,7.73-5.77,5.46,5.46,0,0,1,4.62,6.19,4.37,4.37,0,0,1-4.95,3.7"/><path class="cls-1" d="M83.49,153.33C92,110.17,75.1,96,76.75,84.6a16.67,16.67,0,0,1,18.9-14.09,13.33,13.33,0,0,1,11.27,15.11,10.66,10.66,0,0,1-12.09,9A8.53,8.53,0,0,1,87.61,85a6.83,6.83,0,0,1,7.74-5.78,5.47,5.47,0,0,1,4.62,6.2,4.37,4.37,0,0,1-5,3.69"/><path class="cls-1" d="M83.49,153.33c5.23-36.19,15.29-42.26,24.51-49.13a16.65,16.65,0,0,1,23.32,3.39,13.33,13.33,0,0,1-2.72,18.66,10.66,10.66,0,0,1-14.92-2.17,8.53,8.53,0,0,1,1.74-11.94,6.81,6.81,0,0,1,9.55,1.39,5.47,5.47,0,0,1-1.11,7.64,4.38,4.38,0,0,1-6.12-.89"/></svg>