<svg id="Capa_1" data-name="Capa 1" xmlns="http://www.w3.org/2000/svg" viewBox="0 0 167.24 260.79"><defs><style>.cls-1{fill:#fff;}.cls-1,.cls-2,.cls-3{stroke:#000;}.cls-1,.cls-2{stroke-miterlimit:10;stroke-width:3px;}.cls-2,.cls-3{fill:none;}.cls-3{stroke-linecap:round;stroke-linejoin:round;}</style></defs><path class="cls-1" d="M44.56,147c-3.69-7.7,2.27-20,5-25.74a49.46,49.46,0,0,1,12.19-16.07c3.32-2.77,8.9-7.46,17.62-8.9a34.49,34.49,0,0,1,15.87,1.36c3.55,1,9.41,2.69,14.71,7.74,4.54,4.32,6.56,9.1,8.51,13.74.47,1.1.75,1.87,3.88,11.81,2.09,6.67,3.14,10,3.09,10.45C124,154.08,53.9,166.44,44.56,147Z"/><path class="cls-2" d="M122.37,130.91c-1.48,12.72-69.06,23.93-78.4,4.46"/><path class="cls-3" d="M106.88,122.1c0-14.51-10-26.25-22.46-26.25"/><path class="cls-3" d="M65.17,124.13c0-15.58,7.58-28.19,16.93-28.19"/><path class="cls-3" d="M86.56,116.87c0-11.39-3.2-20.61-7.16-20.61"/></svg>