<svg id="Capa_1" data-name="Capa 1" xmlns="http://www.w3.org/2000/svg" viewBox="0 0 167.24 260.79"><defs><style>.cls-1{fill:none;stroke-width:3px;}.cls-1,.cls-2{stroke:#000;stroke-linecap:round;stroke-linejoin:round;}.cls-2{fill:#fff;}</style></defs><path class="cls-1" d="M77.31,154.88c3.63-29.92.65-43,0-59.35C77,86.34,69.85,78.87,60.65,78.87A13.33,13.33,0,0,0,47.32,92.2,10.67,10.67,0,0,0,58,102.87a8.54,8.54,0,0,0,8.54-8.54,6.82,6.82,0,0,0-6.83-6.82"/><circle class="cls-2" cx="59.76" cy="91.41" r="4.89"/><path class="cls-1" d="M89.93,154.88c-3.62-29.92-.64-43,0-59.35.36-9.19,7.46-16.66,16.66-16.66A13.33,13.33,0,0,1,119.93,92.2a10.67,10.67,0,0,1-10.67,10.67,8.54,8.54,0,0,1-8.53-8.54,6.82,6.82,0,0,1,6.82-6.82"/><circle class="cls-2" cx="107.48" cy="91.41" r="4.89"/></svg>