<svg id="Capa_1" data-name="Capa 1" xmlns="http://www.w3.org/2000/svg" viewBox="0 0 167.24 260.79"><path d="M63.63,141.73c-7.93,4.46-19.57,6.83-27.33.65-6.83-5.44-11.19-14.15-6-22.35,2.16-3.4,5.81-6.16,9.92-6.37,4.73-.25,8.15,3.22,10.75,6.78-1.93,0-3.63-1.73-5.47-2.21a10.16,10.16,0,0,0-6.76.62,9.87,9.87,0,0,0-5.41,11.34c3.06,10.3,15.74,9,22,2.72,7.83-7.91,4.94-20.14,7.79-29.92A17.17,17.17,0,0,1,71,92.79c4.58-2.68,9.08-1,12.58,2.78,3-3.23,7.35-5.44,11.55-3.34A17.26,17.26,0,0,1,104.07,103c2.85,9.78,0,22,7.79,29.92,6.25,6.32,18.93,7.58,22-2.72a9.83,9.83,0,0,0-4.4-10.79,10.11,10.11,0,0,0-6.64-1.39c-2.32.31-4.33,2.45-6.6,2.43,2.32-3.19,5.41-6.52,9.58-6.78s7.75,2.14,10.33,5.32c6.36,7.83,1.94,16.63-4.27,22.55-7,7.06-19.14,4.83-27,.87a57,57,0,0,1-21.2-20.26C81.08,126.15,71.86,137.09,63.63,141.73Z"/></svg>