<svg id="Capa_1" data-name="Capa 1" xmlns="http://www.w3.org/2000/svg" viewBox="0 0 167.24 260.79"><path d="M98.45,135.53l-.15-.06-.14-.06-.29-.13-.27-.14-.14-.07-.14-.07-.27-.15-.26-.14-.25-.16-.13-.07a1.25,1.25,0,0,1-.12-.08,15.12,15.12,0,0,1-1.81-1.33A15.4,15.4,0,0,1,93,131.62a17.94,17.94,0,0,1-1.14-1.49l-.25-.36c-.07-.12-.15-.24-.23-.36s-.14-.24-.22-.35-.14-.23-.21-.35l-.1-.17-.06-.08,0-.08-.21-.32c0-.06-.07-.11-.1-.16l-.09-.15-.2-.3c-.14-.18-.27-.36-.41-.53l-.11-.12a1.14,1.14,0,0,1-.11-.11,1.51,1.51,0,0,0-.23-.21,2.54,2.54,0,0,0-1.08-.56,2.75,2.75,0,0,0-1.33,0l-.37.12-.18.08a.66.66,0,0,0-.19.09,4.84,4.84,0,0,0-.75.47L85,127l-.18.18-.18.18c-.11.13-.23.27-.34.42l-.09.11-.08.11-.15.24a4.27,4.27,0,0,0-.3.51c-.09.18-.18.37-.26.56s-.15.4-.22.61-.11.43-.17.66a7.94,7.94,0,0,0,0,3A9.85,9.85,0,0,0,84.39,137a13.92,13.92,0,0,0,3,3.34l.25.19.24.19c.17.13.34.26.52.38l.54.37.56.36.29.17.3.17.61.33.64.31.32.15.34.15.34.14a3.34,3.34,0,0,0,.38.15l.82.31.94.29.12,0,.13,0,.26.07.53.14.14,0,.14,0,.28.07.58.13.29.05.3.06.59.11.63.09.64.1.33,0,.33,0,.69.07c.23,0,.46,0,.7.06l.72.05h.75l.75,0h1.17l.39,0,.8,0,.4,0,.41,0,.41,0,.2,0,.21,0,.82-.1.21,0,.21,0,.41-.06c.28,0,.56-.08.84-.14l.84-.16.11,0,.1,0,.21,0,.42-.1.42-.1.42-.11.84-.23a34.49,34.49,0,0,0,3.28-1.16,28.59,28.59,0,0,0,3.08-1.55l.73-.44.71-.46.17-.12.17-.12.34-.25.34-.25.32-.26.32-.25.16-.13.15-.14.61-.54.57-.57.14-.14.13-.15.27-.29c.08-.1.17-.19.26-.29l.24-.3c.16-.21.33-.4.48-.61l.44-.62.4-.64a14.22,14.22,0,0,0,1.23-2.63l.2-.65.1-.32c0-.11,0-.22.07-.33l.15-.66a.94.94,0,0,0,0-.16l0-.17,0-.33c.08-.43.11-.88.15-1.31,0-.06,0-.11,0-.17v-1.14l0-.65V126a1,1,0,0,1,0-.16l0-.32,0-.32a3.11,3.11,0,0,0,0-.32l-.13-.63,0-.16,0-.08,0-.08-.08-.31c-.06-.2-.11-.41-.18-.61l-.2-.61-.11-.3-.12-.3-.25-.58c-.09-.2-.19-.39-.28-.58l-.14-.28-.08-.14-.08-.14-.32-.55c0-.09-.11-.18-.17-.27l-.17-.27-.17-.26-.18-.26-.38-.51a2.35,2.35,0,0,0-.19-.25l-.2-.25a21.78,21.78,0,0,0-3.57-3.43,25.94,25.94,0,0,0-3.93-2.46,30.42,30.42,0,0,0-3.7-1.57l-.42-.14-.2-.07-.1,0-.11,0-.78-.24-.37-.1-.35-.1-.67-.17c-.85-.19-1.51-.33-2-.41l-.7-.12.65.22c.43.13,1,.36,1.8.66l.59.25.32.14c.11,0,.21.1.32.15l.68.32.09,0,.09.05.17.09.36.19a23.26,23.26,0,0,1,3,1.92,19.59,19.59,0,0,1,2.91,2.67,15.79,15.79,0,0,1,2.28,3.36,11.9,11.9,0,0,1,1,7.91l0,.13,0,.12-.07.25-.07.25,0,.13s0,.08,0,.12c-.12.33-.22.66-.37,1l-.1.24-.05.12a.67.67,0,0,1-.06.12l-.24.48c0,.08-.07.16-.11.23l-.14.24-.27.46a12.76,12.76,0,0,1-1.28,1.67l-.37.38-.4.37c-.12.12-.27.24-.41.36l-.2.17-.22.17-.22.16-.1.09-.12.08-.45.31-.47.29-.11.08-.13.06-.24.14-.24.14-.25.13-.24.12-.13.07-.12.05-.51.24-.51.21a20.58,20.58,0,0,1-2.09.71c-.71.19-1.41.34-2.1.46a21.06,21.06,0,0,1-4,.26h-.46l-.44,0h-.22l-.22,0-.42,0-.41-.05-.2,0-.2,0-.39-.07-.38-.06-.36-.08-.18,0-.17,0-.34-.08-.33-.08-.31-.08-.15,0-.15,0-.26-.08-.12,0-.06,0-.06,0-.23-.08-.11,0-.06,0,0,0-.41-.15-.35-.15-.17-.07Z"/><path d="M75.29,143.11l.33-.15.32-.15.64-.31.61-.33.3-.17.29-.17.57-.36.54-.37c.18-.12.34-.25.51-.38l.25-.19.24-.19a13.71,13.71,0,0,0,3-3.34,9.89,9.89,0,0,0,1.34-3.38,8.13,8.13,0,0,0,0-3A6.36,6.36,0,0,0,84,130l-.21-.61c-.08-.19-.18-.38-.27-.56a4.21,4.21,0,0,0-.29-.51l-.16-.24a.76.76,0,0,0-.08-.11l-.08-.11c-.12-.15-.23-.29-.35-.42s-.11-.12-.18-.18L82.2,127l-.37-.31a4.41,4.41,0,0,0-.75-.47.76.76,0,0,0-.18-.09l-.19-.08a2.53,2.53,0,0,0-.36-.12,2.79,2.79,0,0,0-1.34,0,2.6,2.6,0,0,0-1.08.56,1.45,1.45,0,0,0-.22.21l-.11.11-.11.12c-.15.17-.28.35-.41.53l-.2.3-.1.15s-.07.1-.1.16a3.45,3.45,0,0,0-.2.32l0,.08-.05.08-.11.17c-.07.12-.13.23-.21.35s-.14.23-.22.35-.16.24-.23.36l-.25.36a16,16,0,0,1-1.14,1.49,15.4,15.4,0,0,1-1.46,1.45A15,15,0,0,1,71,134.4l-.13.08-.12.07-.26.16-.26.14-.27.15-.13.07-.14.07-.28.14-.29.13-.14.06-.15.06-.15.07-.16.07-.36.15-.4.15-.06,0,0,0-.11,0-.24.08-.05,0-.07,0-.12,0-.26.08-.14,0-.15,0-.32.08-.33.08-.33.08-.18,0-.18,0-.36.08-.38.06-.38.07-.2,0-.2,0-.41.05-.43,0-.21,0h-.22l-.45,0h-.45a21,21,0,0,1-3.95-.26c-.7-.12-1.4-.27-2.1-.46a19.78,19.78,0,0,1-2.09-.71l-.52-.21-.5-.24-.13-.05L52,135.1l-.25-.12-.25-.13-.24-.14-.24-.14-.12-.06-.12-.08-.47-.29-.45-.31-.11-.08-.11-.09-.22-.16-.21-.17-.21-.17-.41-.36-.39-.37-.37-.38a12.84,12.84,0,0,1-1.29-1.67l-.26-.46-.14-.24-.12-.23-.24-.48a.61.61,0,0,1-.05-.12l-.06-.12-.1-.24c-.15-.32-.24-.65-.36-1a.56.56,0,0,1,0-.12l0-.13-.07-.25-.06-.25,0-.12,0-.13a11.84,11.84,0,0,1,1-7.91,15.47,15.47,0,0,1,2.29-3.36,18.65,18.65,0,0,1,2.91-2.67,23.88,23.88,0,0,1,3-1.92l.36-.19.18-.09.08-.05.09,0,.68-.32.32-.15.32-.14.59-.25c.77-.3,1.38-.53,1.8-.66l.66-.22-.7.12c-.46.08-1.13.22-2,.41l-.66.17-.36.1-.37.1-.78.24-.1,0-.1,0-.21.07-.42.14a30.42,30.42,0,0,0-3.7,1.57A25.38,25.38,0,0,0,46,114a21.39,21.39,0,0,0-3.57,3.43l-.21.25-.19.25-.37.51a2.4,2.4,0,0,0-.18.26l-.18.26-.17.27c-.06.09-.12.18-.17.27l-.32.55-.08.14s-.05.09-.07.14l-.14.28c-.1.19-.19.38-.28.58l-.25.58-.13.3c0,.1-.07.2-.1.3l-.21.61c-.06.2-.11.41-.17.61l-.09.31,0,.08V124l0,.16-.12.63a1.64,1.64,0,0,0,0,.32l0,.32,0,.32a.78.78,0,0,0,0,.16v.16l0,.65v1.14a1,1,0,0,0,0,.17c0,.43.06.88.14,1.31l0,.33,0,.17,0,.16.15.66c0,.11.05.22.08.33l.1.32.2.65a14.84,14.84,0,0,0,1.22,2.63l.41.64.44.62c.14.21.31.4.47.61l.25.3c.08.1.17.19.26.29l.26.29.14.15a.93.93,0,0,0,.14.14l.57.57.6.54.16.14.16.13.32.25.32.26.33.25.34.25.17.12.18.12.7.46.73.44a29.71,29.71,0,0,0,3.09,1.55,34.49,34.49,0,0,0,3.28,1.16l.84.23.41.11.42.1.42.1.21,0,.11,0,.1,0,.84.16c.28.06.56.1.84.14l.42.06.2,0,.21,0,.83.1.2,0,.21,0,.41,0,.4,0,.41,0,.79,0,.4,0H63.9l.76,0h.74l.72-.05c.24,0,.48,0,.71-.06l.68-.07.34,0,.33,0,.64-.1.62-.09.6-.11.29-.06.29-.05.58-.13.29-.07.14,0,.13,0,.54-.14.25-.07.13,0,.12,0,.94-.29.83-.31c.13,0,.25-.1.37-.15Z"/></svg>