<svg id="Capa_1" data-name="Capa 1" xmlns="http://www.w3.org/2000/svg" viewBox="0 0 167.24 260.79"><defs><style>.cls-1{fill:#fff;}</style></defs><path class="cls-1" d="M39.51,113.71,66,123.63a1.6,1.6,0,0,0,.53.09,1.49,1.49,0,0,0,1.37-.89L81.06,93l16.27,22.88a1.52,1.52,0,0,0,1.23.63,1.46,1.46,0,0,0,.77-.22l26.29-15.91-20.88,42a67.42,67.42,0,0,0-18-2.44,66.31,66.31,0,0,0-33.4,9Z"/><path d="M81.37,96l8.39,11.79,6.35,8.94A3,3,0,0,0,98.56,118a2.92,2.92,0,0,0,1.55-.44l18.43-11.14,3.44-2.09-18,36.28a68,68,0,0,0-49.8,6.17l-7.25-18.41L42.14,116.3l6.41,2.39,17,6.34a3,3,0,0,0,1,.19,3,3,0,0,0,2.74-1.79l7.1-16.13,5-11.29M80.75,90,66.56,122.22,36.88,111.13q7.88,20,15.74,40a65.26,65.26,0,0,1,52.91-7q11.86-23.88,23.74-47.74Q113.91,105.71,98.56,115L80.75,90Z"/><path class="cls-1" d="M36.88,117.75a7,7,0,1,1,7-7A7.06,7.06,0,0,1,36.88,117.75Z"/><path d="M36.88,104.15a6.55,6.55,0,1,1-6.55,6.55,6.56,6.56,0,0,1,6.55-6.55m0-1a7.55,7.55,0,1,0,7.55,7.55,7.55,7.55,0,0,0-7.55-7.55Z"/><path class="cls-1" d="M80.82,97a7,7,0,1,1,7-7.05A7.05,7.05,0,0,1,80.82,97Z"/><path d="M80.82,83.42A6.55,6.55,0,1,1,74.27,90a6.54,6.54,0,0,1,6.55-6.54m0-1A7.55,7.55,0,1,0,88.36,90a7.55,7.55,0,0,0-7.54-7.54Z"/><path class="cls-1" d="M130.36,102.65a7.05,7.05,0,1,1,7-7.05A7.05,7.05,0,0,1,130.36,102.65Z"/><path d="M130.36,89.05a6.55,6.55,0,1,1-6.54,6.55,6.56,6.56,0,0,1,6.54-6.55m0-1a7.55,7.55,0,1,0,7.55,7.55,7.55,7.55,0,0,0-7.55-7.55Z"/></svg>