<svg id="Capa_1" data-name="Capa 1" xmlns="http://www.w3.org/2000/svg" viewBox="0 0 167.24 260.79"><defs><style>.cls-1{fill:#fff;stroke-linejoin:round;}.cls-1,.cls-2{stroke:#000;stroke-linecap:round;stroke-width:3px;}.cls-2{fill:none;stroke-miterlimit:10;}</style></defs><path class="cls-1" d="M126.17,101.55a43.88,43.88,0,0,1-85.09,0,64.06,64.06,0,0,0-1.33,13.06,58.85,58.85,0,0,0,6.5,28,56.79,56.79,0,0,0,13.32,16.67,26.09,26.09,0,0,1,48.91-.66c11.48-9.63,19-25.73,19-44A64.77,64.77,0,0,0,126.17,101.55Z"/><path class="cls-2" d="M42,128.81A17.69,17.69,0,0,1,52,121.45"/><path class="cls-2" d="M46.72,142.89A19.66,19.66,0,0,1,62,129.45"/><path class="cls-2" d="M125.65,128.81a17.65,17.65,0,0,0-4.25-4.52,18,18,0,0,0-5.81-2.84"/><path class="cls-2" d="M120.89,142.89a19.66,19.66,0,0,0-15.24-13.44"/></svg>