<svg id="Capa_1" data-name="Capa 1" xmlns="http://www.w3.org/2000/svg" xmlns:xlink="http://www.w3.org/1999/xlink" viewBox="0 0 167.24 260.79"><defs><style>.cls-1,.cls-5{fill:none;}.cls-2,.cls-3{fill:#fff;}.cls-2,.cls-3,.cls-5{stroke:#000;stroke-linecap:round;stroke-width:2px;}.cls-2,.cls-5{stroke-miterlimit:10;}.cls-3{stroke-linejoin:round;}.cls-4{clip-path:url(#clip-path);}.cls-6{clip-path:url(#clip-path-2);}</style><clipPath id="clip-path"><path class="cls-1" d="M82.67,168.67,72,158a2.74,2.74,0,0,1-.7-2.68l13.56-47.54,13.56,47.54a2.71,2.71,0,0,1-.69,2.68L87,168.67A3,3,0,0,1,82.67,168.67Z"/></clipPath><clipPath id="clip-path-2"><rect class="cls-1" x="74.92" y="83.84" width="19.8" height="19.8" rx="1.41" transform="translate(91.13 -32.52) rotate(45)"/></clipPath></defs><path class="cls-2" d="M117.85,76.84c0,1.53-1.67,2.8-3.89,3-9.77,1-19.55,5.39-29.32,5.39s-19.31-4.36-29-5.39c-2.22-.23-3.88-1.5-3.88-3h0c0-1.92,2.58-3.4,5.35-3,9,1.29,18.08,5.2,27.12,5.2,9.42,0,18.84-4,28.25-5.23,2.77-.37,5.33,1.1,5.33,3Z"/><rect class="cls-2" x="74.92" y="83.84" width="19.8" height="19.8" rx="1.41" transform="translate(91.13 -32.52) rotate(45)"/><path class="cls-3" d="M82.67,168.67,72,158a2.74,2.74,0,0,1-.7-2.68l13.56-47.54,13.56,47.54a2.71,2.71,0,0,1-.69,2.68L87,168.67A3,3,0,0,1,82.67,168.67Z"/><g class="cls-4"><line class="cls-5" x1="66.68" y1="170.99" x2="111.8" y2="153.23"/><line class="cls-5" x1="64.4" y1="165.1" x2="109.51" y2="147.34"/><line class="cls-5" x1="62.26" y1="159.61" x2="107.38" y2="141.85"/><line class="cls-5" x1="60.13" y1="154.13" x2="105.25" y2="136.37"/><line class="cls-5" x1="57.85" y1="148.24" x2="102.96" y2="130.48"/><line class="cls-5" x1="55.71" y1="142.75" x2="100.83" y2="124.99"/><line class="cls-5" x1="53.58" y1="137.27" x2="98.7" y2="119.51"/><line class="cls-5" x1="51.3" y1="131.38" x2="96.41" y2="113.62"/><line class="cls-5" x1="49.17" y1="125.89" x2="94.28" y2="108.13"/></g><g class="cls-6"><line class="cls-5" x1="49.76" y1="103.4" x2="92.38" y2="126.51"/><line class="cls-5" x1="52.79" y1="97.86" x2="95.42" y2="120.97"/><line class="cls-5" x1="55.62" y1="92.7" x2="98.24" y2="115.81"/><line class="cls-5" x1="58.45" y1="87.54" x2="101.07" y2="110.65"/><line class="cls-5" x1="61.48" y1="82" x2="104.11" y2="105.11"/><line class="cls-5" x1="64.31" y1="76.84" x2="106.94" y2="99.95"/><line class="cls-5" x1="67.14" y1="71.68" x2="109.76" y2="94.79"/><line class="cls-5" x1="70.18" y1="66.13" x2="112.8" y2="89.24"/><line class="cls-5" x1="73" y1="60.97" x2="115.63" y2="84.08"/></g></svg>