<svg id="Capa_1" data-name="Capa 1" xmlns="http://www.w3.org/2000/svg" viewBox="0 0 167.24 260.79"><defs><style>.cls-1{fill:#fff;}.cls-1,.cls-2{stroke:#000;stroke-linecap:round;stroke-miterlimit:10;stroke-width:3px;}.cls-2{fill:none;}</style></defs><path class="cls-1" d="M105.59,136.65l5.6,1.5,7.47-27.86-13.46-3.6-7.47,27.85.26.07A72.89,72.89,0,0,1,105.59,136.65Z"/><path class="cls-1" d="M57.8,137.45a72.39,72.39,0,0,1,10.81-3l-7.43-27.73-13.46,3.6,7.46,27.86Z"/><path class="cls-1" d="M117.06,70.06l-21.51,28c-1.49,1.94-1.87,5.54,2.14,9,4.78,4.15,19.74,7.81,26.12,7,5.35-.69,6.68-4.33,6.36-6.75l-4.6-35C125.1,68.82,119.21,67.25,117.06,70.06Z"/><path class="cls-1" d="M39.67,72.64l-4.6,35c-.32,2.43,1.15,5.74,6.36,6.75,6.22,1.2,21-3.1,26.12-7,4.29-3.27,3.63-7.08,2.14-9l-21.51-28C46,67.55,40.14,69.13,39.67,72.64Z"/><path class="cls-2" d="M31.13,154.46a73.12,73.12,0,0,1,103.46,0"/></svg>