<svg id="Capa_1" data-name="Capa 1" xmlns="http://www.w3.org/2000/svg" viewBox="0 0 167.24 260.79"><path d="M82.43,151.64a96.28,96.28,0,0,1,4-25.81,81.58,81.58,0,0,1,11.37-23.39A62,62,0,0,1,116.7,84.78a47.22,47.22,0,0,1,24.65-6.64,46.72,46.72,0,0,0-24.13,7.5,60.37,60.37,0,0,0-17.73,17.93,79,79,0,0,0-10.13,23.08,92.48,92.48,0,0,0-2.93,25h0a2,2,0,0,1-4,.06Z"/><path d="M82.43,151.64a27.33,27.33,0,0,0-4.38-15.34A40,40,0,0,0,66.3,124.6a56.34,56.34,0,0,0-15.39-7.07A67.94,67.94,0,0,0,34,114.89a68.55,68.55,0,0,1,17.17,1.67,58,58,0,0,1,16.2,6.34,42.64,42.64,0,0,1,13.18,11.72,30.78,30.78,0,0,1,5.89,17,2,2,0,1,1-4,.11Z"/><path d="M82.18,148c.06-3.63,0-7.27-.15-10.9s-.51-7.26-1-10.88a115,115,0,0,0-4.74-21.3,67.7,67.7,0,0,0-9.77-19.45,33.57,33.57,0,0,0-7.85-7.52,23.8,23.8,0,0,0-4.9-2.43,20.48,20.48,0,0,0-5.4-1,20.33,20.33,0,0,1,5.48.73A23.69,23.69,0,0,1,59,77.5a34.47,34.47,0,0,1,8.37,7.33A68.83,68.83,0,0,1,78.2,104.22,117.71,117.71,0,0,1,84,125.75q.94,5.5,1.49,11.07c.35,3.71.56,7.43.66,11.16a2,2,0,1,1-4,.11V148Z"/><path d="M82.43,151.64a60.75,60.75,0,0,1,4.47-21.58,57.83,57.83,0,0,1,11.92-18.32,54.07,54.07,0,0,1,17.84-12.29,51,51,0,0,1,21.08-4,50.61,50.61,0,0,0-20.67,4.92,52.77,52.77,0,0,0-16.78,12.74,55.31,55.31,0,0,0-10.59,18,57.22,57.22,0,0,0-3.27,20.51,2,2,0,0,1-4,.09Z"/><path d="M82.43,151.64a15.9,15.9,0,0,1,3.67-9.17,22.47,22.47,0,0,1,7.38-5.79,35.51,35.51,0,0,1,17.61-3.42,34.55,34.55,0,0,0-16.61,5.15,20.1,20.1,0,0,0-6,5.83,12.45,12.45,0,0,0-2.09,7.4,2,2,0,0,1-4,.23.81.81,0,0,1,0-.22Z"/><path d="M82.43,151.64a80.74,80.74,0,0,0-.71-14,63.85,63.85,0,0,0-3.38-13.6,38.45,38.45,0,0,0-7-12.11,20.52,20.52,0,0,0-5.4-4.46,15,15,0,0,0-6.75-2,15.27,15.27,0,0,1,7,1.52,21.59,21.59,0,0,1,5.9,4.22,40.4,40.4,0,0,1,8.1,12,67.39,67.39,0,0,1,4.49,13.86,85,85,0,0,1,1.75,14.5,2,2,0,1,1-4,.14v-.13Z"/><path d="M82.18,148c.19-8,.69-15.91,1.64-23.82A192.74,192.74,0,0,1,88,100.68,108.57,108.57,0,0,1,96,78.21a42.57,42.57,0,0,1,6.62-9.91,20.2,20.2,0,0,1,4.63-3.76A11.09,11.09,0,0,1,112.89,63a11,11,0,0,0-5.57,1.75,20.18,20.18,0,0,0-4.38,3.87,42,42,0,0,0-6.09,10A107.25,107.25,0,0,0,90,101.12a190.88,190.88,0,0,0-3.15,23.33c-.61,7.83-.78,15.69-.63,23.53v0a2,2,0,0,1-4,.07Z"/></svg>