<svg id="Capa_1" data-name="Capa 1" xmlns="http://www.w3.org/2000/svg" viewBox="0 0 167.24 260.79"><defs><style>.cls-1{fill:none;stroke:#000;stroke-linecap:round;stroke-linejoin:round;stroke-width:3px;}</style></defs><path class="cls-1" d="M123.63,116.12a4,4,0,0,1-4,4,5,5,0,0,1-5-5,6.21,6.21,0,0,1,6.21-6.21,7.77,7.77,0,0,1,7.76,7.77,9.85,9.85,0,0,1-9.7,9.7H90.54"/><path class="cls-1" d="M43.61,116.12a4,4,0,0,0,4,4,5,5,0,0,0,5-5,6.2,6.2,0,0,0-6.2-6.21,7.76,7.76,0,0,0-7.76,7.77,9.84,9.84,0,0,0,9.7,9.7H76.73"/></svg>