<svg id="Capa_1" data-name="Capa 1" xmlns="http://www.w3.org/2000/svg" viewBox="0 0 167.24 260.79"><defs><style>.cls-1{fill:#fff;stroke:#000;stroke-linecap:round;stroke-linejoin:round;stroke-width:3px;}</style></defs><path class="cls-1" d="M67.1,171.12c0-19.82-10.85-63.74-24.26-63.74l4.63-5.22c16.13,0,29.18,41.86,29.18,59.16"/><path class="cls-1" d="M40.7,91.64c-5.84,3.22-9.83,11.1-7.23,15.48,2.77,4.67,12.52,4.51,18.33.26,4.15-3,7.91-9.36,5.67-13.68C55,89,46.3,88.55,40.7,91.64Z"/><path class="cls-1" d="M43.59,97.29c-2,1.25-2.57,4.41-1.29,5.68s3.49.3,3.61.25c2-.78,3.87-3.2,3.1-4.9S45.44,96.13,43.59,97.29Z"/><path class="cls-1" d="M100.15,171.12c0-19.82,10.85-63.74,24.25-63.74l-4.63-5.22c-16.12,0-29.17,41.86-29.17,59.16"/><path class="cls-1" d="M126.55,91.64c5.83,3.22,9.82,11.1,7.22,15.48-2.77,4.67-12.51,4.51-18.32.26-4.16-3-7.92-9.36-5.68-13.68C112.23,89,121,88.55,126.55,91.64Z"/><path class="cls-1" d="M123.65,97.29c2,1.25,2.57,4.41,1.29,5.68s-3.49.3-3.61.25c-2-.78-3.86-3.2-3.1-4.9S121.81,96.13,123.65,97.29Z"/></svg>