<svg id="Capa_1" data-name="Capa 1" xmlns="http://www.w3.org/2000/svg" viewBox="0 0 167.24 260.79"><defs><style>.cls-1{fill:#fff;stroke:#000;stroke-linecap:round;stroke-linejoin:round;stroke-width:3px;}</style></defs><path d="M33.87,117.21a33.19,33.19,0,0,1,12.47-1.69,19.1,19.1,0,0,1,3.77.76,14.66,14.66,0,0,1,3.82,1.86,14.11,14.11,0,0,1,3.21,3.11,12.21,12.21,0,0,1,1.16,1.86,15.93,15.93,0,0,1,.78,1.85,27.62,27.62,0,0,1,1.25,6.2c.19,1.84.29,3.54.41,5.22.23,3.35.49,6.59.89,9.84s.91,6.48,1.52,9.69a46.25,46.25,0,0,0,2.39,8.83,10.91,10.91,0,0,0,.82,1.54,5,5,0,0,0,.94,1.05,7.8,7.8,0,0,0,3.07,1.41A11.68,11.68,0,0,0,78,168c.28-.14.56-.3.82-.46s.51-.33.74-.51a6.79,6.79,0,0,0,1.17-1.22A13.65,13.65,0,0,0,82.43,162c.95-3,1.71-6.36,2.56-9.63,1.67-6.6,3.52-13.15,5.67-19.63a46.15,46.15,0,0,1,4.21-9.55A28.62,28.62,0,0,1,98,119a32.81,32.81,0,0,1,3.73-3.63,21.6,21.6,0,0,1,9.28-4.55,20.39,20.39,0,0,1,10.12.54,20,20,0,0,0-9.93.25,20.43,20.43,0,0,0-8.39,5,30.12,30.12,0,0,0-3.24,3.7A27.22,27.22,0,0,0,97,124.39a43.65,43.65,0,0,0-3.2,9.26c-1.59,6.5-2.9,13.1-4,19.72-.59,3.33-1.05,6.63-1.85,10.15a19.62,19.62,0,0,1-2.11,5.55,12.86,12.86,0,0,1-2.1,2.62c-.41.38-.84.71-1.26,1.06s-.87.61-1.33.88a18.48,18.48,0,0,1-12,2.31,15.19,15.19,0,0,1-6.25-2.33,13,13,0,0,1-2.7-2.46,18.3,18.3,0,0,1-1.83-2.76A52.75,52.75,0,0,1,54.45,158c-.92-3.37-1.75-6.75-2.44-10.18s-1.27-6.89-1.77-10.25c-.25-1.68-.49-3.34-.77-4.85a17.33,17.33,0,0,0-1-3.65,1.85,1.85,0,0,0-1-1,4.81,4.81,0,0,0-2-.33,22.21,22.21,0,0,0-7.37,1.81h0a6.51,6.51,0,1,1-4.84-12.09Z"/><path class="cls-1" d="M108.5,113c-.11-.35-2-6.45,1.37-11,2.09-2.81,3.75-1.69,10.26-5.89,3.44-2.21,5.93-3.85,7.53-7,1.7-3.31,1.2-6,1.92-6,1.06-.09,3.85,5.63,2,10.27-1.86,4.8-7.86,6.46-7.53,7.25.42,1,10.13-1.09,10.13-1.09s-9.45,6.21-8.62,9.44c.78,3,11,4.1,11,4.1s-7.8,5.86-14.92,7c-5.08.81-7.2,0-8.35-.68A11,11,0,0,1,108.5,113Z"/></svg>