<?xml version="1.0" encoding="utf-8"?>
<!-- Generator: Adobe Illustrator 24.0.2, SVG Export Plug-In . SVG Version: 6.00 Build 0)  -->
<svg version="1.1"
	 id="svg2" inkscape:version="0.47 r22583" sodipodi:docname="eco_systemedic_01_sun.svg" xmlns:cc="http://creativecommons.org/ns#" xmlns:dc="http://purl.org/dc/elements/1.1/" xmlns:inkscape="http://www.inkscape.org/namespaces/inkscape" xmlns:ns1="http://sozi.baierouge.fr" xmlns:rdf="http://www.w3.org/1999/02/22-rdf-syntax-ns#" xmlns:sodipodi="http://sodipodi.sourceforge.net/DTD/sodipodi-0.dtd" xmlns:svg="http://www.w3.org/2000/svg"
	 xmlns="http://www.w3.org/2000/svg" xmlns:xlink="http://www.w3.org/1999/xlink" x="0px" y="0px" viewBox="0 0 610 610"
	 style="enable-background:new 0 0 610 610;" xml:space="preserve">
<style type="text/css">
	.st0{fill:#474747;}
	.st1{fill:#FFFFFF;}
</style>
<sodipodi:namedview  bordercolor="#666666" borderopacity="1.0" gridtolerance="1" guidetolerance="10000" id="base" inkscape:current-layer="layer4" inkscape:cx="-60.283316" inkscape:cy="307.96481" inkscape:document-units="px" inkscape:guide-bbox="true" inkscape:pageopacity="0.0" inkscape:pageshadow="2" inkscape:window-height="1025" inkscape:window-maximized="0" inkscape:window-width="1680" inkscape:window-x="0" inkscape:window-y="0" inkscape:zoom="0.70000002" pagecolor="#ffffff" showgrid="false" showguides="true">
	<sodipodi:guide  id="guide4755" orientation="1,0" position="5,715"></sodipodi:guide>
	<sodipodi:guide  id="guide4757" orientation="1,0" position="605,835"></sodipodi:guide>
	<sodipodi:guide  id="guide4761" orientation="0,1" position="889.89361,890.40123"></sodipodi:guide>
	<inkscape:grid  empspacing="50" enabled="true" id="grid5833" snapvisiblegridlinesonly="true" type="xygrid" visible="true">
		</inkscape:grid>
	<sodipodi:guide  id="guide5835" orientation="1,0" position="305,565"></sodipodi:guide>
	<sodipodi:guide  id="guide5842" orientation="0,1" position="405,305"></sodipodi:guide>
	<sodipodi:guide  id="guide5844" orientation="0,1" position="505,605"></sodipodi:guide>
	<sodipodi:guide  id="guide5846" orientation="0,1" position="405,5"></sodipodi:guide>
	<sodipodi:guide  id="guide5848" orientation="1,0" position="55,205"></sodipodi:guide>
	<sodipodi:guide  id="guide5850" orientation="0,1" position="405,555"></sodipodi:guide>
	<sodipodi:guide  id="guide5852" orientation="1,0" position="555,255"></sodipodi:guide>
	<sodipodi:guide  id="guide5854" orientation="0,1" position="455,55"></sodipodi:guide>
</sodipodi:namedview>
<g id="g2978">
	<g id="g2991">
		<g id="g4666" transform="matrix(7.2051 0 0 7.2051 -1495.2 -978.38)">
			<path id="path4656" class="st0" d="M275.78,182.39l4.11,13.62l-9.61-1.11l-3.25,13.86l-7.76-5.77l-9.74,10.38l-3.84-8.88
				l-13.62,4.11l1.11-9.61l-13.86-3.25l5.77-7.76l-10.38-9.74l8.88-3.84l-4.11-13.62l9.61,1.11l3.25-13.86l7.76,5.77l9.74-10.38
				l3.84,8.88l13.62-4.11l-1.11,9.61l13.86,3.25l-5.77,7.76l10.38,9.74L275.78,182.39L275.78,182.39z"/>
			<path id="path4664" class="st1" d="M270.43,178.32c0,11.59-9.39,20.98-20.98,20.98c-11.59,0-20.98-9.39-20.98-20.98
				c0-11.59,9.39-20.98,20.98-20.98C261.04,157.33,270.43,166.73,270.43,178.32z"/>
		</g>
	</g>
</g>
</svg>
