<svg id="Capa_1" data-name="Capa 1" xmlns="http://www.w3.org/2000/svg" viewBox="0 0 167.24 260.79"><defs><style>.cls-1{fill:#1d1d1b;}.cls-2{fill:#fff;stroke:#000;}.cls-2,.cls-3{stroke-miterlimit:10;}.cls-3{fill:none;stroke:#1d1d1b;stroke-width:3px;}</style></defs><path class="cls-1" d="M28,98.68a9.4,9.4,0,0,0,7.28,9.07c2.25.48,4.34-.12,6.5-.72a10.18,10.18,0,0,0,5-2.88,9.4,9.4,0,0,0,2.42-6.49c0,.23-2.9.51-2.89.78A9.36,9.36,0,0,1,41.25,107c-.21.11-.43.21-.65.3a6.62,6.62,0,0,1-.62.24q3-.73,1.44-.42a8.41,8.41,0,0,1-1.73.09,9.34,9.34,0,0,1-8.77-9.26c0,.23-2.9.51-2.9.78Z"/><polyline class="cls-2" points="111.65 153.59 101.27 135.14 95.42 164.11"/><path class="cls-1" d="M136.33,95a9.49,9.49,0,0,1-2.67,6.51,9.19,9.19,0,0,1-2.76,1.94c-.28.13-.57.23-.86.34,2-.48,2.47-.61,1.41-.41l-.49.07a10.23,10.23,0,0,1-1.75,0,9.39,9.39,0,0,1-8.27-9.47c0,.25-2.9.48-2.9.78a9.42,9.42,0,0,0,6.84,9.2,11.72,11.72,0,0,0,6.29-.43,11.21,11.21,0,0,0,5.39-2.8,9.45,9.45,0,0,0,2.67-6.51c0,.25-2.9.48-2.9.78Z"/><polyline class="cls-2" points="55.43 153.59 65.81 135.14 71.66 164.11"/><path class="cls-3" d="M37.51,107.56c-3,32.41,21.81,57.77,45.85,57.79,25.06,0,50.74-27.5,45.35-61.21"/></svg>