<svg id="Capa_1" data-name="Capa 1" xmlns="http://www.w3.org/2000/svg" viewBox="0 0 167.24 260.79"><defs><style>.cls-1{fill:#fff;stroke:#000;stroke-miterlimit:10;}</style></defs><polygon class="cls-1" points="42.46 129.8 48.82 123.06 56.8 116.21 65.53 113.09 72.76 112.84 78.25 114.83 81.12 116.95 85.11 117.08 90.1 114.46 95.83 112.71 100.7 113.34 105.93 114.83 110.67 116.58 116.41 120.94 123.64 129.05 124.52 131.67 123.39 132.42 123.02 135.91 119.03 141.4 108.93 146.38 94.34 147.75 75.76 147.88 62.66 146.13 53.44 144.89 48.2 141.52 44.83 136.66 43.46 133.04 42.71 131.04 42.46 129.8"/><g id="layer1"><path id="path4853" d="M72.73,150c-7.28-.3-13-1.3-17.69-3.11-4.44-1.7-7.53-3.78-9.3-6.26-1.47-2.05-2.93-5.68-2.94-7.29,0-.46-.08-.5-1.69-.69-1.92-.24-3.76-1.21-3.76-2,0-.39.26-.6,1.09-.9a19.73,19.73,0,0,0,4-2.08,26.11,26.11,0,0,0,4.75-4.81,36,36,0,0,1,12.38-10,20.71,20.71,0,0,1,8.89-2.21c5.08-.23,6.74.22,11.77,3.16l2.08,1.22H85l2.08-1.22c5-2.94,6.69-3.39,11.77-3.16a20.71,20.71,0,0,1,8.89,2.21,36,36,0,0,1,12.39,10,24.86,24.86,0,0,0,4.71,4.78,19.62,19.62,0,0,0,4,2.11c.84.3,1.1.51,1.1.9,0,.77-1.85,1.74-3.77,2-1.6.19-1.68.23-1.68.69,0,1.61-1.47,5.24-2.94,7.29-2.52,3.53-7.92,6.36-15.23,8A72.41,72.41,0,0,1,93.87,150c-4.49.19-16.51.18-21.14,0Zm20.34-4c7-.22,11.58-.83,16.09-2.14a26,26,0,0,0,10.42-5.42,9.51,9.51,0,0,0,2.59-4.73l.08-.81-.64.08c-1.31.18-4-.33-7.65-1.47-5.85-1.8-10.63-2.62-14.4-2.45-1.7.07-2.28.32-5,2.12-3.84,2.51-5.47,3.14-8.93,3.48a18.35,18.35,0,0,1-3.92,0c-3.7-.36-4.47-.69-10.49-4.46a6.57,6.57,0,0,0-4.11-1.17,46.16,46.16,0,0,0-13.78,2.48c-3.68,1.14-6.34,1.65-7.65,1.47l-.63-.08.07.81a9.67,9.67,0,0,0,2.59,4.73c4.88,4.57,13.71,7.17,25.63,7.55,5.4.17,14.38.18,19.78,0Zm-5.69-16.26a41.81,41.81,0,0,0,4.81-2.14c2.11-1.06,4.13-2,4.48-2.08a40.4,40.4,0,0,1,8,.08c3.1.4,5.42,1,11.62,3a26.31,26.31,0,0,0,5.07,1.29c2.47.27,2.5.24,1-1a31.3,31.3,0,0,1-2.62-2.57,39.08,39.08,0,0,0-10.87-8.86,19.53,19.53,0,0,0-10.65-3.07,13.76,13.76,0,0,0-3.92.17,22.2,22.2,0,0,0-5.54,2.68c-2.15,1.36-3.26,1.74-5.15,1.74-2.12,0-3-.32-5.85-2.14a21.73,21.73,0,0,0-4.92-2.28,13.76,13.76,0,0,0-3.92-.17c-4.28.12-6.59.79-10.65,3.07a39.08,39.08,0,0,0-10.87,8.86,31.3,31.3,0,0,1-2.62,2.57c-1.49,1.24-1.46,1.27,1,1a26.67,26.67,0,0,0,5.07-1.29c8.42-2.68,11.13-3.21,16.3-3.21,3.43,0,3.6.05,7.84,2.24,3.55,1.84,4.63,2.24,6.48,2.41a24.5,24.5,0,0,0,5.84-.26Z"/></g></svg>