<svg id="Capa_1" data-name="Capa 1" xmlns="http://www.w3.org/2000/svg" viewBox="0 0 167.24 260.79"><defs><style>.cls-1,.cls-2{fill:#fff;}.cls-1{stroke:#1d1d1b;stroke-linecap:round;stroke-linejoin:round;stroke-width:3px;}.cls-3{fill:#1d1d1b;}</style></defs><path class="cls-1" d="M70,137.38c3.06,1,4.55,6.87,5.3,11.23a15,15,0,0,0,8.18-9A60.24,60.24,0,0,1,70,137.38Z"/><path class="cls-1" d="M130.4,119.11a46.42,46.42,0,0,1-8.32,8.31,58.15,58.15,0,0,1-11.59,7,59.48,59.48,0,0,1-11.58,3.8c2.34,1.66,4.51,5.29,6,8.23a15.06,15.06,0,0,0,5-9.95c3.11,4.44,7.6,7.35,9.09,6.72,2.23-1-1.48-10.27,2.16-12.66,2.79-1.84,8.22,1.54,11.92,4.24A15,15,0,0,0,130.4,119.11Z"/><path class="cls-1" d="M57.22,132.09a57.85,57.85,0,0,1-10.92-8,46.23,46.23,0,0,1-7.91-9.6c-5.1,5.31-6.39,14.41-4.7,15.75,1.91,1.51,8.3-6.21,12.15-4.15,2.95,1.57,2.58,8,2,12.5a15.09,15.09,0,0,0,9.62-5c-.91,5.41.32,10.74,1.84,11.32,2.27.87,6.06-8.41,10.34-7.6a1.66,1.66,0,0,1,.21.06A58.12,58.12,0,0,1,57.22,132.09Z"/><path class="cls-1" d="M83.81,139.59c1.08,4.5,3.35,8.06,4.77,8.15,1.83.1,2.75-5.54,4.94-8.56A63,63,0,0,1,83.81,139.59Z"/><path class="cls-2" d="M86,141.13c-.83,0-1.66,0-2.49,0a60.73,60.73,0,0,1-27-7.7,58.9,58.9,0,0,1-11.22-8.23,46.8,46.8,0,0,1-8.65-10.74,1.5,1.5,0,0,1,2.11-2A110.54,110.54,0,0,0,61,123.56a79.45,79.45,0,0,0,23.07,4.54l1.5,0c.77,0,1.54.05,2.31.05s1.38,0,2-.07l1.18,0a16,16,0,0,0,1.73-.08l.89-.09c.73-.07,1.45-.15,2.18-.19a91.19,91.19,0,0,0,11.62-2.13,113.07,113.07,0,0,0,23.18-9.12,1.44,1.44,0,0,1,.69-.17,1.5,1.5,0,0,1,1.24,2.35,45.41,45.41,0,0,1-9.57,9.93,60.13,60.13,0,0,1-11.89,7.23A60,60,0,0,1,86,141.13Z"/><path class="cls-3" d="M37.92,113.68A112.42,112.42,0,0,0,60.51,125,80.88,80.88,0,0,0,84,129.6c1.29,0,2.58.09,3.87.09.7,0,1.4,0,2.09-.07,1-.05,2,0,3-.13s2-.2,3-.27a91.45,91.45,0,0,0,11.89-2.17,115.09,115.09,0,0,0,23.5-9.24,44.62,44.62,0,0,1-9.26,9.61,58.15,58.15,0,0,1-11.59,7A58.31,58.31,0,0,1,86,139.63c-.81,0-1.62,0-2.44,0a59.33,59.33,0,0,1-26.35-7.5,57.85,57.85,0,0,1-10.92-8,44.94,44.94,0,0,1-8.38-10.39m93.42,4.13h0m-93.43-7.13a3,3,0,0,0-2.06.83,3,3,0,0,0-.55,3.65,48.13,48.13,0,0,0,8.93,11.09,61,61,0,0,0,11.5,8.44,62.16,62.16,0,0,0,27.7,7.9c.88,0,1.73,0,2.57,0a61.35,61.35,0,0,0,25.72-5.44,61.88,61.88,0,0,0,12.2-7.41,47.63,47.63,0,0,0,9.83-10.19,2.94,2.94,0,0,0,.58-1.78,3,3,0,0,0-2.94-3h-.06l-.32,0a3,3,0,0,0-1.11.34,111.37,111.37,0,0,1-22.83,9,90.12,90.12,0,0,1-11.4,2.09c-.74.05-1.45.12-2.15.18l-.84.09h-.1a14.91,14.91,0,0,1-1.56.07c-.4,0-.8,0-1.19,0h-.09c-.55,0-1.16.06-1.86.06s-1.48,0-2.27,0l-1.51,0a78.29,78.29,0,0,1-22.6-4.45,109.21,109.21,0,0,1-22-11,2.93,2.93,0,0,0-1.61-.47Z"/></svg>