<svg id="Capa_1" data-name="Capa 1" xmlns="http://www.w3.org/2000/svg" viewBox="0 0 167.24 260.79"><defs><style>.cls-1{fill:#fff;stroke-width:3px;}.cls-1,.cls-2{stroke:#1d1d1b;stroke-linecap:round;stroke-linejoin:round;}.cls-2{fill:none;stroke-width:10px;}</style></defs><path class="cls-1" d="M51.59,130H69.66a0,0,0,0,1,0,0v18.46a5.8,5.8,0,0,1-5.8,5.8H57.39a5.8,5.8,0,0,1-5.8-5.8V130A0,0,0,0,1,51.59,130Z" transform="translate(35.75 -10.37) rotate(13.83)"/><path class="cls-1" d="M103.39,130h6.47a5.8,5.8,0,0,1,5.8,5.8v18.46a0,0,0,0,1,0,0H97.59a0,0,0,0,1,0,0V135.81A5.8,5.8,0,0,1,103.39,130Z" transform="translate(244.13 254.65) rotate(166.17)"/><path class="cls-2" d="M36.91,109.43c2.68,3,18.77,20.42,45.42,21.16,27.89.78,45.38-17.32,48-20.13"/></svg>