<svg id="Capa_1" data-name="Capa 1" xmlns="http://www.w3.org/2000/svg" viewBox="0 0 167.24 260.79"><defs><style>.cls-1{fill:#fff;}.cls-1,.cls-2{stroke:#1d1d1b;stroke-linecap:round;stroke-linejoin:round;stroke-width:3px;}.cls-2{fill:none;}</style></defs><path class="cls-1" d="M65.3,118.26H83.36a0,0,0,0,1,0,0v18.46a5.8,5.8,0,0,1-5.8,5.8H71.1a5.8,5.8,0,0,1-5.8-5.8V118.26A0,0,0,0,1,65.3,118.26Z"/><path class="cls-1" d="M83.88,118.26h18.06a0,0,0,0,1,0,0v18.46a5.8,5.8,0,0,1-5.8,5.8H89.68a5.8,5.8,0,0,1-5.8-5.8V118.26A0,0,0,0,1,83.88,118.26Z"/><line class="cls-2" x1="48.78" y1="118.26" x2="118.46" y2="118.26"/></svg>