<svg id="Capa_1" data-name="Capa 1" xmlns="http://www.w3.org/2000/svg" viewBox="0 0 167.24 260.79"><defs><style>.cls-1{fill:#1d1d1b;}.cls-2{fill:#fff;}.cls-3{fill:none;stroke:#1d1d1b;stroke-miterlimit:10;stroke-width:3px;}</style></defs><path class="cls-1" d="M39.19,99.18a7.47,7.47,0,0,0,5.78,7.2c1.94.41,3.77-.19,5.63-.7a8.28,8.28,0,0,0,4.08-2.32,7.46,7.46,0,0,0,1.92-5.15s-1.33.34-1.45.37a9.4,9.4,0,0,0-1.45.4,7.38,7.38,0,0,1-4,6.76q-.25.14-.51.24a4.09,4.09,0,0,1-.49.18c2.18-.52,2.75-.68,1.73-.49a7,7,0,0,1-1.37.08,7.42,7.42,0,0,1-7-7.35s-1.34.34-1.46.37a9.22,9.22,0,0,0-1.44.41Z"/><polyline class="cls-2" points="73.13 149.38 64.89 164.03 60.25 141.03"/><path class="cls-1" d="M74.43,150.12l-8.78,14.34,0,.06a.86.86,0,0,1-1.58-.31L60.25,141l5.49,22.82-1.62-.25,7.7-15Z"/><path class="cls-1" d="M125.16,96.22a7.5,7.5,0,0,1-2.12,5.17,7.43,7.43,0,0,1-2.19,1.54c-.22.1-.45.18-.67.27q3.24-.78,1.71-.48l-.4,0a8,8,0,0,1-1.38,0,7.45,7.45,0,0,1-6.57-7.52s-1.34.35-1.45.38a8.15,8.15,0,0,0-1.45.4,7.49,7.49,0,0,0,5.43,7.31,9.9,9.9,0,0,0,5.33-.44,9.27,9.27,0,0,0,4.54-2.29,7.52,7.52,0,0,0,2.12-5.16s-1.34.34-1.46.37a8.28,8.28,0,0,0-1.44.4Z"/><polyline class="cls-2" points="93.99 149.38 102.23 164.03 106.87 141.03"/><path class="cls-1" d="M95.29,148.65l7.7,15-1.62.25,5.5-22.82-3.78,23.17a.87.87,0,0,1-1,.71.85.85,0,0,1-.6-.4l0-.06-8.79-14.34Z"/><path class="cls-3" d="M47,106.14C44.63,131.87,64.33,152,83.41,152c19.9,0,40.28-21.82,36-48.58"/></svg>