<svg id="Capa_1" data-name="Capa 1" xmlns="http://www.w3.org/2000/svg" viewBox="0 0 167.24 260.79"><defs><style>.cls-1{fill:#fff;stroke-linecap:round;stroke-linejoin:round;}.cls-1,.cls-2{stroke:#1d1d1b;stroke-width:3px;}.cls-2{fill:none;stroke-miterlimit:10;}</style></defs><path class="cls-1" d="M40.46,142.78c-.83-.67-9.34-7.68-8.13-17,.2-1.52.78-6,4.65-8.9a11.53,11.53,0,0,1,8.9-1.94c6,1.25,10.95,8.6,11.23,18.2"/><path class="cls-1" d="M71,127.1a35.71,35.71,0,0,1,3.49-10.45c1.75-3.39,3-4.47,4.45-4.84a6.34,6.34,0,0,1,3.48.19A5.34,5.34,0,0,1,85,113.74a5.7,5.7,0,0,1,1,3.29c.13,1.87.24,4.29.2,7.16"/><path class="cls-1" d="M86.33,124.19a34,34,0,0,1,1.94-11A50,50,0,0,1,96.2,99.81c1.41-1.7,2-2.17,2.71-2.52a5.67,5.67,0,0,1,4.45-.19,6,6,0,0,1,2.91,2.9,8.12,8.12,0,0,1,1,4.65,9.72,9.72,0,0,1-2.32,5.22c-1.81,2.29-4.17,6.42-6.38,14.52"/><path class="cls-1" d="M97.75,125c1-2.74,1.94-5.09,2.71-7,1.22-3,1.6-3.75,2.52-4.26.76-.42,2.58-.16,6.19.39,1.92.29,2.93.51,3.48,1.36a3.74,3.74,0,0,1,.39,1.93,28.09,28.09,0,0,1-.19,4.07c-.14,2.32.09,2.48-.2,3.48a6.73,6.73,0,0,1-1.54,2.71"/><path class="cls-1" d="M57.69,133.29a11.85,11.85,0,0,1-1.94-8.71A10.77,10.77,0,0,1,60,117.81c.86-.58,2.87-1.94,5-1.36a6.59,6.59,0,0,1,3.1,2.33,12.85,12.85,0,0,1,2.13,3.48,17.35,17.35,0,0,1,1.35,6.58"/><path class="cls-2" d="M31.56,152.07a97.7,97.7,0,0,1,32.13-20.91,75.88,75.88,0,0,1,24-5.8c7-.47,17.9-1.07,29.8,4.64a51.73,51.73,0,0,1,18.2,14.71"/></svg>