<svg id="Capa_1" data-name="Capa 1" xmlns="http://www.w3.org/2000/svg" viewBox="0 0 167.24 260.79"><defs><style>.cls-1{fill:none;}.cls-1,.cls-2{stroke:#1d1d1b;stroke-linecap:round;stroke-linejoin:round;stroke-width:3px;}.cls-2{fill:#fff;}</style></defs><path class="cls-1" d="M39,108.43a32.53,32.53,0,0,1,14.33,3.73c2,1.12,4.55,2.58,6,5.3a10.1,10.1,0,0,1,1,5.61,16.51,16.51,0,0,1-2.9,8.57,23.14,23.14,0,0,1-6.19,5.92,32.94,32.94,0,0,1-4.84,2.8"/><path class="cls-1" d="M128.25,108.43a32.49,32.49,0,0,0-14.32,3.73c-2,1.12-4.56,2.58-6,5.3a10.11,10.11,0,0,0-1,5.61,16.6,16.6,0,0,0,2.9,8.57,23.16,23.16,0,0,0,6.2,5.92,32.43,32.43,0,0,0,4.84,2.8"/><line class="cls-1" x1="60.28" y1="124.3" x2="107.12" y2="124.3"/><path class="cls-2" d="M73.51,125.07a40,40,0,0,1-2.32,7.48,3.44,3.44,0,0,0-.39,2.07A3.35,3.35,0,0,0,72,136.55c1.05.84,2.42.69,5.16.39A10.68,10.68,0,0,0,80,136.3a4.23,4.23,0,0,0,1.68-.91c.76-.77.83-1.79.9-3.48a29.28,29.28,0,0,0-.26-4.39c-.1-1-.19-1.86-.25-2.45"/><path class="cls-2" d="M82,125.14c-.23,2-.37,3.62-.46,4.77,0,.69-.1,1.38-.12,2.26,0,.47,0,1.18,0,2.58,0,1.69,0,1.89.19,2.19a3,3,0,0,0,1.74,1.23,5,5,0,0,0,2.19.19,22.8,22.8,0,0,0,6.07-1.48,3.06,3.06,0,0,0,1.55-.84,3.57,3.57,0,0,0,.58-2.71,8.94,8.94,0,0,0-1.36-3.61,43.22,43.22,0,0,1-2.25-4.91"/></svg>