<svg id="Capa_1" data-name="Capa 1" xmlns="http://www.w3.org/2000/svg" viewBox="0 0 167.24 260.79"><defs><style>.cls-1{fill:#1d1d1b;stroke:#1d1d1b;stroke-linecap:round;stroke-linejoin:round;stroke-width:3px;}.cls-2{fill:#fff;}</style></defs><path class="cls-1" d="M38.2,107.54c7-10.32,17-14.79,21.29-16.64,8.45-3.67,15.5-4.22,23.42-4.84a76.28,76.28,0,0,1,19.74.77,58.66,58.66,0,0,1,12,3.48,37.18,37.18,0,0,1,8.9,4.84,28.33,28.33,0,0,1,7.55,8.13,30.68,30.68,0,0,1,3.1,7.55,45,45,0,0,1,1.93,11.23c.16,4.56-.5,7.75-1.55,12.77-1.13,5.47-2.14,10.32-5,16.26a51.55,51.55,0,0,1-7.16,11,35.49,35.49,0,0,1-11,9.29,34.35,34.35,0,0,1-12.78,3.49c-2.94.31-7.29-.05-15.87-.78-6.82-.58-10.28-.88-12.38-1.35A51.78,51.78,0,0,1,45.17,159a51,51,0,0,1-8.91-11.61,36.75,36.75,0,0,1-5-14.9A35.2,35.2,0,0,1,33,118.19,41.2,41.2,0,0,1,38.2,107.54Z"/><path class="cls-2" d="M51.94,105.7c1.46-1.53,2.52-2,5.32-3.87,2-1.29,2.34-1.64,3.39-1.93a6,6,0,0,1,3.29-.1c.63.18,2,.57,2.42,1.64.32.87-.16,1.72-1,3.1a11.48,11.48,0,0,1-3.58,4.16,10.8,10.8,0,0,1-4.45,1.74,7.09,7.09,0,0,1-4-.09c-.3-.11-2.62-1-2.71-2.52C50.66,107.44,50.78,106.92,51.94,105.7Z"/><path class="cls-2" d="M79,92.25c-3.87.63-4.9.46-5.81,1.55A4.52,4.52,0,0,0,72.36,97,6.29,6.29,0,0,0,75,101.35a6.82,6.82,0,0,0,6.68,1.16,7.54,7.54,0,0,0,5-4.45,5.6,5.6,0,0,0,.68-3.49,4.5,4.5,0,0,0-1.74-2.8C84.37,91,83.39,91.54,79,92.25Z"/><path class="cls-2" d="M55.23,161.54c-.48-.34-1.34-1-2.42-1.84-1.4-1.14-1.6-1.43-1.74-1.74a3.34,3.34,0,0,1,.29-3.1,3.9,3.9,0,0,1,3.19-1.55,11,11,0,0,1,3.1,1.07,11.61,11.61,0,0,1,3,1.55,8.69,8.69,0,0,1,1.55,1.64A7.7,7.7,0,0,1,63.46,160a3.88,3.88,0,0,1,.19,2.32,3.28,3.28,0,0,1-1.74,1.94,4.14,4.14,0,0,1-3.2-.39C58.29,163.69,58,163.54,55.23,161.54Z"/><path class="cls-2" d="M72.75,161.64c.8-.57,1.4-.35,4.83-.29,1.84,0,2.76,0,3.68,0,2.6-.13,3.49-.47,4.45.19A3.79,3.79,0,0,1,87,163.28a6.12,6.12,0,0,1,.49,3.68,3.93,3.93,0,0,1-1.07,2.42c-.65.56-1.33.53-4.45.39-1.81-.09-3.61-.28-5.42-.29a12.32,12.32,0,0,1-2.9-.29,3.84,3.84,0,0,1-2.23-1c-1-1.13-.39-3-.1-4A4.42,4.42,0,0,1,72.75,161.64Z"/><path class="cls-2" d="M100.23,161.15c1.36-.61,1.28-.67,3-1.45a27.73,27.73,0,0,1,2.71-1.06,7,7,0,0,1,2.13-.49,3.35,3.35,0,0,1,2,.39,3.56,3.56,0,0,1,1.36,2.23,3.35,3.35,0,0,1,.09,2.13c-.3.78-.93,1-2.51,1.93-2.31,1.35-1.94,1.44-3.49,2.23-1.84.93-1.79.51-3.58,1.45a6.65,6.65,0,0,1-2.8,1.16,3.07,3.07,0,0,1-1.94-.39A3.28,3.28,0,0,1,96,167.44a4.69,4.69,0,0,1-.19-2.51,4.37,4.37,0,0,1,.87-1.94C97.33,162.15,97.91,162.2,100.23,161.15Z"/><path class="cls-2" d="M115.13,157.67c-.69-1.17-1.27-1.13-1.64-1.94a3.18,3.18,0,0,1,0-2.22c.28-1.07.73-1.21,1.74-2.81.58-.92.36-.76,1.55-2.9a13.6,13.6,0,0,1,1.55-2.42,9.66,9.66,0,0,1,1.55-1.45,3.15,3.15,0,0,1,1.45-.78,3.41,3.41,0,0,1,1.35.2,7.52,7.52,0,0,1,1.36.48,4.17,4.17,0,0,1,1.06.58,2.16,2.16,0,0,1,.78,1.07,1.88,1.88,0,0,1,0,1,16.63,16.63,0,0,1-1.07,3.39c-.69,1.37-.9,1.53-2.52,4.16a13.45,13.45,0,0,1-1.83,2.71,8.39,8.39,0,0,1-2.62,1.74c-.73.32-1.47.62-2,.29C115.48,158.54,115.5,158.29,115.13,157.67Z"/></svg>