<svg id="Capa_1" data-name="Capa 1" xmlns="http://www.w3.org/2000/svg" viewBox="0 0 167.24 260.79"><defs><style>.cls-1{fill:#fff;}.cls-1,.cls-2,.cls-3{stroke:#1d1d1b;stroke-miterlimit:10;}.cls-1,.cls-2{stroke-width:3px;}.cls-2,.cls-3{fill:none;}</style></defs><path class="cls-1" d="M33.12,129.33c.81-6.91,3.62-12,5.61-15.67a50.16,50.16,0,0,1,4.45-6.78,26,26,0,0,1,4.84-5,21.74,21.74,0,0,1,4.45-2.52c3.53-1.4,6.24-.94,12.39-.38,10.09.9,8.57.19,13.94,1,5.91.86,7.33,1.68,11.8,1.55,2.3-.06,3.25-.31,7-.38a72.09,72.09,0,0,1,7.74.19c7,.59,6.66,1.85,10.07,1.55,5.1-.46,6.63-3.37,10.06-2.33,1.78.55,2.8,1.77,4.07,3.3,3.69,4.44,4.33,9.58,4.64,12.38.52,4.61-.09,8-1,13A75,75,0,0,1,130.47,140c-1.36,4.14-2,6.2-3.48,8.51a26.27,26.27,0,0,1-9.29,8.71c-5.84,3.51-11.2,4.18-17,4.84-5.61.64-10.39.3-19.94-.38-4.62-.33-8.76-.64-14.32-1.55-6.7-1.1-10.69-1.78-15.68-4.07a39.6,39.6,0,0,1-9.87-6.38c-2.29-2-4.62-4.16-6.19-7.75a21.45,21.45,0,0,1-1.55-5.8A26.11,26.11,0,0,1,33.12,129.33Z"/><path class="cls-2" d="M32.73,129A94.84,94.84,0,0,0,46.28,132c4,.61,6.57.75,13,1.16,17.06,1.12,14.84,1.22,19.35,1.36,3.29.1,9.55-.13,22.07-.58,13-.48,16.12-.7,20.51-1.94a51.64,51.64,0,0,0,12.2-5.22"/><path class="cls-3" d="M55,99.53a50.66,50.66,0,0,0-8.25,16.84,42.48,42.48,0,0,0-1.22,15.09"/><path class="cls-3" d="M71.63,99.14a40.91,40.91,0,0,0-8.41,17,32.67,32.67,0,0,0,1.1,17.23"/><path class="cls-3" d="M85.18,100.11a145.29,145.29,0,0,0,1.16,33.68"/><path class="cls-3" d="M100.47,101.27q1,6.89,1.75,14.52c.54,6,.84,11.8,1,17.22"/><path class="cls-3" d="M115.18,101.66a75.36,75.36,0,0,1,6.1,16.06,68.49,68.49,0,0,1,2,13.74"/><path class="cls-3" d="M46.67,153.14a22.46,22.46,0,0,1-2.29-10.65,23.26,23.26,0,0,1,2.87-10.06"/><path class="cls-3" d="M68.73,159.91A31.72,31.72,0,0,1,64,147.53a28.48,28.48,0,0,1,1.57-14.13"/><path class="cls-3" d="M89.83,161.46A63.9,63.9,0,0,1,85,134.56"/><path class="cls-3" d="M101.25,161.08a54.49,54.49,0,0,0,2.51-13.75A53.81,53.81,0,0,0,102.6,133"/><path class="cls-3" d="M117.7,156.62a33.65,33.65,0,0,0,6.23-12.19,25,25,0,0,0,0-12.39"/></svg>