<svg id="Capa_1" data-name="Capa 1" xmlns="http://www.w3.org/2000/svg" viewBox="0 0 167.24 260.79"><defs><style>.cls-1,.cls-2,.cls-4{fill:#fff;}.cls-1,.cls-4{stroke:#1d1d1b;}.cls-1{stroke-miterlimit:10;}.cls-3{fill:#1d1d1b;}.cls-4{stroke-linecap:round;stroke-linejoin:round;}</style></defs><path class="cls-1" d="M58.08,154.67c.51-1.87,8.35-.24,24.74-.81,18.18-.63,27.13-3.28,27.72-1.52s-8.69,6.77-17.4,9.08a41.61,41.61,0,0,1-18.65,1.29C66,161.22,57.53,156.7,58.08,154.67Z"/><polygon class="cls-2" points="43.37 108.98 43.87 100.59 44.35 100.13 123.24 97.03 123.76 97.49 124.39 105.36 123.92 105.9 43.89 109.51 43.37 108.98"/><path class="cls-3" d="M123.26,97.53l.64,7.87-80,3.61.51-8.39,78.89-3.09m0-1L44.33,99.62l-1,.94-.5,8.39,1,1.06,80-3.61,1-1.08-.63-7.87-1-.92Z"/><polyline class="cls-4" points="58.7 100.17 66.06 119.66 73.28 99.78"/><polyline class="cls-4" points="93.03 98.53 98.7 114.53 106.19 97.88"/><path class="cls-1" d="M65.93,159.3c.13-.39,6.84-14.71,6.84-14.71l5.42,17.68"/><polyline class="cls-1" points="90.19 162.01 94.96 143.3 101.93 159.04"/><path class="cls-3" d="M123.22,98.4l-.13,23a39.87,39.87,0,0,1-39.87,39.87h0a39.87,39.87,0,0,1-39.87-39.87l.13-19.75,79.74-3.22m0-3h-.12L43.36,98.63a3,3,0,0,0-2.88,3l-.13,19.75a42.87,42.87,0,1,0,85.74,0l.13-23a3,3,0,0,0-3-3Zm0,6Z"/></svg>