<svg id="Capa_1" data-name="Capa 1" xmlns="http://www.w3.org/2000/svg" viewBox="0 0 167.24 260.79"><defs><style>.cls-1{fill:#fff;}.cls-1,.cls-2{stroke:#000;stroke-linecap:round;stroke-linejoin:round;stroke-width:3px;}.cls-2{fill:none;}</style></defs><path class="cls-1" d="M75.49,119.21a23.62,23.62,0,0,0-1.55,12.39c.39,2.47.89,5.66,3.49,8.52a13.1,13.1,0,0,0,9.68,4.26,12.86,12.86,0,0,0,7.35-2.71c4.29-3.21,5.29-8,5.81-10.46a23.11,23.11,0,0,0-1.55-13.93"/><path class="cls-2" d="M86.94,133a26.08,26.08,0,0,1-1.16-7.36,25.8,25.8,0,0,1,.78-6.58"/><line class="cls-2" x1="36.78" y1="120.05" x2="130.46" y2="115.41"/></svg>