<svg id="Capa_1" data-name="Capa 1" xmlns="http://www.w3.org/2000/svg" viewBox="0 0 167.24 260.79"><defs><style>.cls-1{fill:#fff;stroke-linecap:round;stroke-linejoin:round;stroke-width:2px;}.cls-1,.cls-2{stroke:#000;}.cls-2{fill:none;stroke-miterlimit:10;stroke-width:3px;}</style></defs><path class="cls-1" d="M78.06,107.37a15.49,15.49,0,0,0-1.39,9c.34,2,.87,2.28,3,8.3,1.58,4.38,1.78,5.57,1.89,6.42.25,2.06,1.51,3.84.55,7.86-.43,1.82-2.57,2.09-4.63,3.4-3.2,2-7,1.17-7.07,1.78,0,.32,1,.69,1.61.88a18.59,18.59,0,0,0,8.42.51,6.92,6.92,0,0,0-.45.86,7.47,7.47,0,0,0,1.11,7.74,4.81,4.81,0,0,0,.41.38,12.93,12.93,0,0,0,2.15,1.72c.81-.18-2.75-4.68.41-9.92,1.14-1.91,2.58-3.66,2.94-5.77.54-3.19.26-5-.89-10.61-.09-.46-.42-2-1.09-5a28.57,28.57,0,0,1-.54-3,22.06,22.06,0,0,1-.12-3.65,18.7,18.7,0,0,1,.51-3.66,14.73,14.73,0,0,1,3.43-6.21"/><line class="cls-2" x1="39.53" y1="104.12" x2="134.53" y2="112.85"/></svg>