<svg id="Capa_1" data-name="Capa 1" xmlns="http://www.w3.org/2000/svg" viewBox="0 0 167.24 260.79"><defs><style>.cls-1{fill:#fff;}.cls-1,.cls-2{stroke:#1d1d1b;}.cls-1,.cls-3{stroke-linecap:round;stroke-linejoin:round;}.cls-1,.cls-2,.cls-3{stroke-width:3px;}.cls-2,.cls-3{fill:none;}.cls-2{stroke-miterlimit:10;}.cls-3{stroke:#000;}</style></defs><path class="cls-1" d="M126.72,114.47c.83.67,9.33,7.67,8.12,17-.19,1.52-.78,6.06-4.64,8.91a11.53,11.53,0,0,1-8.9,1.93c-6-1.25-11-8.59-11.23-18.19"/><path class="cls-1" d="M96.14,130.15a35.71,35.71,0,0,1-3.49,10.45c-1.76,3.38-3.05,4.46-4.45,4.84a6.43,6.43,0,0,1-3.48-.19,5.25,5.25,0,0,1-2.52-1.75,5.74,5.74,0,0,1-1-3.29c-.13-1.86-.23-4.28-.19-7.16"/><path class="cls-1" d="M69.43,132.28c-1,2.73-2,5.08-2.71,7-1.23,3-1.61,3.75-2.52,4.25s-2.59.16-6.19-.38c-1.92-.29-2.93-.51-3.49-1.36a3.9,3.9,0,0,1-.38-1.93,26.73,26.73,0,0,1,.19-4.07c.13-2.32-.09-2.48.19-3.48a6.85,6.85,0,0,1,1.55-2.71"/><path class="cls-2" d="M135.62,105.18a97.47,97.47,0,0,1-32.13,20.9,75.63,75.63,0,0,1-24,5.81c-7,.47-17.91,1.07-29.81-4.64a51.88,51.88,0,0,1-18.19-14.71"/><path class="cls-3" d="M124.61,132.16a25.26,25.26,0,0,0-2.58-7,25.79,25.79,0,0,0-3.88-5.37"/></svg>