<svg id="Capa_1" data-name="Capa 1" xmlns="http://www.w3.org/2000/svg" viewBox="0 0 167.24 260.79"><defs><style>.cls-1{fill:none;}.cls-1,.cls-2{stroke:#000;stroke-linecap:round;stroke-linejoin:round;stroke-width:3px;}.cls-2{fill:#fff;}</style></defs><path class="cls-1" d="M34.57,129.32A14.23,14.23,0,0,0,43.34,139"/><path class="cls-2" d="M53.92,127.87c-.81-1.33-1.36,2.57-1.24,7.17.08,3.18.32,7.62,1,13a103.33,103.33,0,0,1,5.8-11.49c2.49-4.23,4.36-8.95,3.2-7.61C59.7,132.35,56.54,132.13,53.92,127.87Z"/><path class="cls-2" d="M110.61,122.26c-.7-.71,3.49,3.33,4.86,4.87a34.68,34.68,0,0,1,4.39,5.67,31.08,31.08,0,0,1,2.06,4.13c1.39,3.37,1.61,5.58,1.94,5.55s.49-18.33-.42-19.76"/><path class="cls-1" d="M132.67,112.76c-.45,3.12-.84,6.3-1.16,9.56-.24,2.45-.44,4.89-.59,7.3"/><path class="cls-1" d="M41,133a13.57,13.57,0,0,1,3.48-7.48,6.92,6.92,0,0,1,3.75-2.33,5.4,5.4,0,0,1,4.12.78c1.1.84.72,1.53,2.46,4.25C56,130,56.6,130.4,57,130.62a4.35,4.35,0,0,0,3,.39c1.41-.37,2.17-1.48,3.1-2.84a41.78,41.78,0,0,0,2.19-4.26c.62-1.19,1.18-2.13,1.55-2.71L75.09,126l7.22-2.59a3.68,3.68,0,0,1,2.19-1.54c1.83-.33,2.9,1.49,5,2.57,2.37,1.21,4.93.72,10.06-.26,3.6-.68,3.16-1,8.39-2.2s7.22-1.15,8.77-.9c2.51.39,2.79,1.09,4.9,1.41s5.11.15,9-2.07"/></svg>