<svg id="Capa_1" data-name="Capa 1" xmlns="http://www.w3.org/2000/svg" viewBox="0 0 167.24 260.79"><defs><style>.cls-1{fill:#fff;}.cls-2{fill:#1d1d1b;}</style></defs><path class="cls-1" d="M85.88,164.51c-3.08,0-5.93-.22-8.69-.44a74,74,0,0,1-14.64-2.57A49.88,49.88,0,0,1,50,156.32a49.61,49.61,0,0,1-11.36-9.56c-3.41-3.65-6.36-6.81-8.6-12a37.18,37.18,0,0,1-2.63-10.51c-.38-3.7-.68-6.63.44-10.27a20.15,20.15,0,0,1,8.81-11.11A20,20,0,0,1,47,100.29h1.3c2.26,0,5.19.38,14.06,3.78a86.12,86.12,0,0,1,8.84,3.84,15.44,15.44,0,0,0,4,1.53,35.36,35.36,0,0,0,8.45,1,33.31,33.31,0,0,0,9-1.21,48.25,48.25,0,0,0,11.08-5.08c2.36-1.34,3.82-2.35,5-3.16a18.63,18.63,0,0,1,5.75-3c2.71-.86,5.53-1.11,11.16-1.61,1.25-.11,2-.16,2.69-.16a8.37,8.37,0,0,1,2.76.42c3.84,1.3,5.73,4.68,6.64,6.31,2.65,4.74,2.57,9.29,2.51,12.95a40.47,40.47,0,0,1-3,14.67,44.76,44.76,0,0,1-8.37,12.8,66.18,66.18,0,0,1-12.69,11.1,55.25,55.25,0,0,1-15.1,7.74A48.8,48.8,0,0,1,85.88,164.51Z"/><path class="cls-2" d="M128.24,97.78a6.46,6.46,0,0,1,2.28.35c3.23,1.08,4.91,4,5.81,5.61,2.4,4.31,2.38,8.46,2.32,12.19a39,39,0,0,1-2.9,14.13,43.15,43.15,0,0,1-8.13,12.39,64.85,64.85,0,0,1-12.39,10.84,54,54,0,0,1-14.71,7.54A47.24,47.24,0,0,1,85.88,163c-3,0-5.87-.22-8.58-.43A71.08,71.08,0,0,1,63,160.06a48.52,48.52,0,0,1-12.19-5,48.21,48.21,0,0,1-11-9.29c-3.38-3.62-6.19-6.62-8.33-11.61a35.66,35.66,0,0,1-2.51-10.07c-.37-3.6-.65-6.33.39-9.68a18.48,18.48,0,0,1,8.12-10.25A18.48,18.48,0,0,1,47,101.79h1.26c2.06,0,4.88.35,13.55,3.68,9.8,3.76,8.76,4.36,13,5.42A36,36,0,0,0,83.6,112,35,35,0,0,0,93,110.71a49.22,49.22,0,0,0,11.42-5.23c5.93-3.37,6.28-4.67,10.45-6,2.56-.81,5.32-1.06,10.84-1.55,1.08-.09,1.89-.15,2.56-.15m0-3c-.71,0-1.53,0-2.82.16-5.74.51-8.62.77-11.48,1.68a19.79,19.79,0,0,0-6.15,3.17c-1.15.79-2.58,1.78-4.88,3.08a46.55,46.55,0,0,1-10.75,4.95A31.81,31.81,0,0,1,83.6,109a32.91,32.91,0,0,1-8.08-1,14.17,14.17,0,0,1-3.66-1.41,88,88,0,0,0-9-3.9c-9.09-3.49-12.18-3.83-14.57-3.88H47a21.48,21.48,0,0,0-11.08,2.74,21.63,21.63,0,0,0-9.49,12c-1.22,3.93-.89,7.14-.51,10.87a38.84,38.84,0,0,0,2.75,10.94C31,140.78,34,144,37.56,147.79a50.59,50.59,0,0,0,11.68,9.81,51.56,51.56,0,0,0,12.89,5.34,75.44,75.44,0,0,0,14.93,2.63c2.8.21,5.68.44,8.82.44a50.26,50.26,0,0,0,15.55-2.31,56.83,56.83,0,0,0,15.48-7.93,67.76,67.76,0,0,0,13-11.36,45.84,45.84,0,0,0,8.63-13.2A42.19,42.19,0,0,0,141.65,116c.06-3.63.14-8.6-2.7-13.7-.92-1.65-3.08-5.52-7.47-7a9.7,9.7,0,0,0-3.24-.5Z"/><path class="cls-2" d="M126.13,105.54l-4.25-7.09-4.13,10.32-5.55-7.1-3.49,12.52-4.64-8.52-3,10.71-5.58-6.51-.83.3-2,9.31-6-7.65-.3,0-3.75,7.37-4-7.22-4.52,9.29L69.88,109.8l-5,10.2-5.16-14.33-5.42,9.55-5.42-12.51-2.19,10.71-8.9-8.91,1.29,13-9.55-3.34-.12,0a1.83,1.83,0,0,0-.07.23c-1,3.35-.76,6.08-.39,9.68a35.66,35.66,0,0,0,2.51,10.07,34.27,34.27,0,0,0,7.09,10.28l.14-.41,6.19-4.26,2.58,11.74,5.55-4.9L56.33,157l4-5,4.38,7.74,4.52-5.55,3.1,7.23,5.16-7.36,5.29,8,3.35-8,5.68,8.26,1.68-8.9,5.81,6.83.51-9,6.45,5.68,1.16-8,6.2,4.77.77-9.93,6.71,2.71-1.55-9.68,6.58,2.71-1.29-8.9,8.52,1.8-5.94-9.16,10.2-.13.18.31a40,40,0,0,0,.85-7.47c.06-3.73.08-7.88-2.32-12.19a13.24,13.24,0,0,0-3.8-4.59Z"/></svg>