<svg id="Capa_1" data-name="Capa 1" xmlns="http://www.w3.org/2000/svg" viewBox="0 0 167.24 260.79"><defs><style>.cls-1{fill:#fff;stroke-miterlimit:10;}.cls-1,.cls-2{stroke:#1d1d1b;}.cls-2{fill:none;stroke-linecap:round;stroke-linejoin:round;stroke-width:3px;}</style></defs><path class="cls-1" d="M86.41,120.29H80.93c-1.52,0-2.74-1.56-2.74-3.48l2.19-10.68h11l-2.2,10.68C89.15,118.73,87.93,120.29,86.41,120.29Z"/><path class="cls-1" d="M66.45,129.26H61a2.51,2.51,0,0,0-2.74,2.19l.41,10.37,12.8-2.88-2.25-7.49A2.51,2.51,0,0,0,66.45,129.26Z"/><path class="cls-1" d="M107.71,133l5.13.49c1.42.14,2.5.95,2.42,1.82l-1.11,7.4-11.79-3.22,2.63-5.17C105.07,133.42,106.29,132.83,107.71,133Z"/><path class="cls-2" d="M39,152.48c2.13-9.95,3.19-14.92,3.49-15.67A50.47,50.47,0,0,1,63.6,111.65c3.87-2.38,8.25-5.08,14.71-6.2a37.07,37.07,0,0,1,15.29.78,47.55,47.55,0,0,1,14.71,6.19,41.73,41.73,0,0,1,9.1,7,37.66,37.66,0,0,1,7.16,10.26c1.91,4.14,2.42,7.43,3.29,13,.65,4.11,1,6.16.39,6.78-2.92,3.13-13.42-8.34-31.36-10.84-8.78-1.23-16.78.06-27.29,1.74a53.39,53.39,0,0,0-12.19,3.1c-4.95,2-9.84,3.93-14.13,8.51-1.73,1.85-3.49,4.26-4.26,3.88S38.81,153.5,39,152.48Z"/></svg>