<svg id="Capa_1" data-name="Capa 1" xmlns="http://www.w3.org/2000/svg" viewBox="0 0 167.24 260.79"><defs><style>.cls-1{fill:none;}.cls-1,.cls-2{stroke:#1d1d1b;stroke-linecap:round;stroke-miterlimit:10;stroke-width:3px;}.cls-2{fill:#fff;}</style></defs><path class="cls-1" d="M42.54,111c-1.87,10.92,2.62,21.37,11,26.09.63.36,11.16,6.09,20.32.28,7.41-4.7,10.75-4.86,7.42-14.66"/><path class="cls-1" d="M122.79,111c1.88,10.92-2.62,21.37-11,26.09-.63.36-11.17,6.09-20.33.28-7.4-4.7-10.31-4.11-7-13.92"/><path class="cls-2" d="M68,96.74c5.28-3.54,23.93-5.09,29.12-.82,8.28,6.82-3.42,26.3-12.91,26.92C74.25,123.48,59.38,102.53,68,96.74Z"/></svg>