<svg id="Capa_1" data-name="Capa 1" xmlns="http://www.w3.org/2000/svg" viewBox="0 0 167.24 260.79"><defs><style>.cls-1{fill:none;}.cls-1,.cls-2,.cls-3{stroke:#1d1d1b;stroke-linecap:round;stroke-miterlimit:10;stroke-width:3px;}.cls-2{fill:#fff;}</style></defs><path class="cls-1" d="M43.5,111c-1.88,10.92,2.62,21.37,11,26.09.63.36,11.17,6.09,20.33.28,7.4-4.7,10.75-4.86,7.42-14.66"/><path class="cls-1" d="M123.75,111c1.87,10.92-2.62,21.37-11,26.09-.63.36-11.16,6.09-20.33.28-7.4-4.7-10.31-4.11-7-13.92"/><path class="cls-2" d="M69,96.74c5.28-3.54,23.92-5.09,29.11-.82,8.28,6.82-3.42,26.3-12.91,26.92C75.2,123.48,60.34,102.53,69,96.74Z"/><circle class="cls-3" cx="59.56" cy="115.07" r="1.43"/><circle class="cls-3" cx="53.66" cy="121.86" r="1.43"/><circle class="cls-3" cx="61.46" cy="122.59" r="1.43"/><circle class="cls-3" cx="108.27" cy="115.07" r="1.43"/><circle class="cls-3" cx="114.17" cy="121.86" r="1.43"/><circle class="cls-3" cx="106.37" cy="122.59" r="1.43"/></svg>