<svg id="Capa_1" data-name="Capa 1" xmlns="http://www.w3.org/2000/svg" viewBox="0 0 167.24 260.79"><defs><style>.cls-1{fill:#fff;stroke-width:3px;}.cls-1,.cls-2{stroke:#1d1d1b;stroke-linecap:round;stroke-miterlimit:10;}.cls-2{fill:none;stroke-width:2px;}</style></defs><path class="cls-1" d="M37.5,148.19c-.76-3.1,17.41-4.48,39.93-20.15,0,0,11.29-7.85,32.33-15.59a12.15,12.15,0,0,1,5.7-.76,13.81,13.81,0,0,1,8,4.18c2.87,2.82,3.82,5.9,4.94,9.51,1,3.33,1.77,5.68,1.14,8.74a13.79,13.79,0,0,1-3.42,6.47c-4.33,4.44-11.2,4.22-14.83,4.18-10-.11-20,2.55-30,2.66C48.85,147.81,38.1,150.63,37.5,148.19Z"/><path class="cls-2" d="M71.63,141.54c0-3.79-2.06-6.85-4.61-6.85"/><path class="cls-2" d="M78.76,134.55c0-3.78-1.91-4.85-4.46-4.85"/><path class="cls-2" d="M88.6,136.4c0-3.78-4-10.48-6.51-10.48"/><path class="cls-2" d="M112,130c-3.8-10.69-7.54-12.56-10.27-13.79"/><path class="cls-2" d="M93.74,129.42c0-2.59-3.33-7.17-5.47-7.17"/><path class="cls-2" d="M104.29,135c0-5.42-5.32-15-8.74-15"/></svg>