<svg id="Capa_1" data-name="Capa 1" xmlns="http://www.w3.org/2000/svg" viewBox="0 0 167.24 260.79"><defs><style>.cls-1{fill:#fff;}.cls-1,.cls-2{stroke:#1d1d1b;stroke-linecap:round;stroke-miterlimit:10;stroke-width:3px;}.cls-2{fill:none;}</style></defs><path class="cls-1" d="M81.45,87.83a123.34,123.34,0,0,0-1,13.34c-.13,5.64.22,7.57-1.09,10.46-1.45,3.21-3.79,5-7.32,7.74-5.55,4.25-6.83,3.41-10.31,6.32-5.46,4.57-7.29,10.82-8.27,14.16a30.58,30.58,0,0,0-.86,15.24A23.75,23.75,0,0,0,57,165.39a22.73,22.73,0,0,0,9.46,7.08c4.74,1.9,8.7,1.63,12,1.4,3.77-.26,9.9-1.29,10-3,.1-1.83-7.28-2.57-7.45-5.18-.18-2.9,8.79-5.37,8.42-6.75-.31-1.18-6.66,1.13-12.35-2.14A10.89,10.89,0,0,1,72,151.26c-1.77-5.19,2.29-10.6,4.65-13.75,3.08-4.11,6.35-6.36,10.45-9.14,7.25-4.9,9.17-4.34,14.48-8.38a35.67,35.67,0,0,0,10-10.91c4.92-8.82,3.7-18.14,2.85-22.33"/><path class="cls-2" d="M89.86,109.47c-1,2.84-5.68,3.81-10.54,2.16"/><path class="cls-2" d="M80.31,122c-.44,1.32-4.57,1.11-9.24-.47"/><path class="cls-2" d="M67.29,133.3c-.59,1.73-5.16,1.73-10.22,0"/><path class="cls-2" d="M63,147.19c-.62,1.85-5.23,2-10.3.24"/><path class="cls-2" d="M65.66,159c-1.14,3.38-5.67,4.89-10.13,3.39"/></svg>