<svg id="Capa_1" data-name="Capa 1" xmlns="http://www.w3.org/2000/svg" viewBox="0 0 167.24 260.79"><defs><style>.cls-1{fill:#fff;stroke:#1d1d1b;stroke-linecap:round;stroke-miterlimit:10;stroke-width:3px;}</style></defs><path class="cls-1" d="M70.86,132.56c-2.9-1.16-7.34-.28-9,1.94-2.18,2.95-.62,7.27,1.93,9.29,2.93,2.3,7.66,2,10.84-1.16"/><path class="cls-1" d="M97.31,132.65c2.89-1.16,6.94-.28,8.57,1.94,2.17,2.95.62,7.27-1.94,9.29-2.92,2.3-7.65,2-10.83-1.16"/><path class="cls-1" d="M74,115.1c-.38.79-6.63,15,.39,24.39.84,1.13,4.64,6.22,10.45,6.19,6.72,0,10.73-6.89,11.22-7.74,3.77-6.44,2.7-15.27-2.32-22.84"/></svg>