<svg id="Capa_1" data-name="Capa 1" xmlns="http://www.w3.org/2000/svg" viewBox="0 0 167.24 260.79"><defs><style>.cls-1{fill:#fff;}.cls-2{stroke:#000;stroke-linecap:round;stroke-miterlimit:10;stroke-width:3px;}</style></defs><path class="cls-1" d="M83.62,165.38c-17.63,0-32-9.23-32-20.57,0-7.28,6.14-14.1,16-17.79a1.51,1.51,0,0,0,1-1.6,14.53,14.53,0,0,1-.14-2c0-11.17,8-45.86,15.14-45.86s15.15,34.69,15.15,45.86a14.68,14.68,0,0,1-.15,2,1.52,1.52,0,0,0,1,1.6c9.88,3.69,16,10.51,16,17.79C115.61,156.15,101.26,165.38,83.62,165.38Z"/><path d="M83.62,79.1c1,0,4.73,3.32,8.88,18.05,3.11,11,4.77,22.36,4.77,26.31a13.52,13.52,0,0,1-.13,1.77,3,3,0,0,0,1.92,3.19c9.28,3.47,15,9.75,15,16.39,0,4.86-3,9.51-8.46,13.1-5.84,3.85-13.66,6-22,6s-16.18-2.12-22-6c-5.46-3.59-8.46-8.24-8.46-13.1,0-6.64,5.76-12.92,15-16.39a3,3,0,0,0,1.93-3.19,13.52,13.52,0,0,1-.13-1.77c0-3.95,1.65-15.29,4.76-26.31,4.15-14.73,7.9-18.05,8.88-18.05m0-3C74.43,76.1,67,114.26,67,123.46a16.87,16.87,0,0,0,.15,2.15c-10.14,3.79-17,11-17,19.2,0,12.19,15,22.07,33.48,22.07s33.49-9.88,33.49-22.07c0-8.23-6.85-15.41-17-19.2a16.86,16.86,0,0,0,.16-2.15c0-9.2-7.46-47.36-16.65-47.36Z"/><path class="cls-2" d="M58.11,156.88C60,150.81,66,148,70,149.4c4.3,1.52,7.26,8.34,3.88,14.45"/><path class="cls-2" d="M109.13,156.91c-1.88-6.07-7.89-8.89-11.87-7.48C93,151,90,157.77,93.39,163.88"/></svg>