<svg id="Capa_1" data-name="Capa 1" xmlns="http://www.w3.org/2000/svg" viewBox="0 0 56.69 56.69"><defs><style>.cls-1{fill:#fff;}</style></defs><path class="cls-1" d="M42,34.51c-3.29-3.47-10.3-2.8-14.06,0s-8.2,3-13.35,0V22.18c4.47,3.52,9,3.66,13.54,0,3.61-2.89,11.87-2.69,13.87,0Z"/><path d="M21.49,24.87a12.52,12.52,0,0,0,7.1-2.44,11.71,11.71,0,0,1,13.24,0,.45.45,0,0,0,.49-.75,12.57,12.57,0,0,0-14.22,0c-4.45,3-8.78,3-13.24,0a.44.44,0,0,0-.49.74A12.6,12.6,0,0,0,21.49,24.87Z"/><path d="M42.32,27.86a12.57,12.57,0,0,0-14.22,0c-4.45,3-8.78,3-13.24,0a.44.44,0,0,0-.61.12.45.45,0,0,0,.12.62A12.6,12.6,0,0,0,21.49,31a12.52,12.52,0,0,0,7.1-2.44,11.73,11.73,0,0,1,13.24,0,.44.44,0,0,0,.62-.13A.45.45,0,0,0,42.32,27.86Z"/><path d="M42.32,34A12.58,12.58,0,0,0,28.1,34c-4.45,3-8.78,3-13.24,0a.43.43,0,0,0-.61.12.45.45,0,0,0,.12.62,12.58,12.58,0,0,0,7.12,2.43,12.58,12.58,0,0,0,7.1-2.43,11.69,11.69,0,0,1,13.24,0,.45.45,0,0,0,.62-.13A.46.46,0,0,0,42.32,34Z"/></svg>