<svg id="Capa_1" data-name="Capa 1" xmlns="http://www.w3.org/2000/svg" viewBox="0 0 167.24 260.79"><defs><style>.cls-1{fill:none;}.cls-1,.cls-2{stroke:#000;stroke-miterlimit:10;stroke-width:3px;}.cls-2{fill:#fff;}</style></defs><path class="cls-1" d="M21.88,109.14c0-31.44,16.91-56.89,37.8-56.89"/><path class="cls-1" d="M58.49,52c0-4.61,5.32-8.34,11.9-8.34"/><path class="cls-1" d="M58.49,53.25c0,4.61,5.32,8.33,11.9,8.33"/><line class="cls-1" x1="58.5" y1="52.53" x2="69.44" y2="52.53"/><path class="cls-1" d="M142.2,109.14c0-31.44-16.91-56.89-37.8-56.89"/><path class="cls-1" d="M105.59,52c0-4.61-5.32-8.34-11.9-8.34"/><path class="cls-1" d="M105.59,53.25c0,4.61-5.32,8.33-11.9,8.33"/><line class="cls-1" x1="105.58" y1="52.53" x2="94.64" y2="52.53"/><line class="cls-1" x1="65.01" y1="152.76" x2="45.91" y2="204.37"/><line class="cls-1" x1="31.98" y1="214.43" x2="45.91" y2="204.37"/><line class="cls-1" x1="52.11" y1="218.05" x2="45.91" y2="204.37"/><line class="cls-1" x1="42.04" y1="216.24" x2="45.4" y2="205.92"/><line class="cls-1" x1="99.07" y1="152.76" x2="118.17" y2="204.37"/><line class="cls-1" x1="132.11" y1="214.43" x2="118.17" y2="204.37"/><line class="cls-1" x1="111.98" y1="218.05" x2="118.17" y2="204.37"/><line class="cls-1" x1="122.04" y1="216.24" x2="118.69" y2="205.92"/><g id="layer1"><path id="path2361" class="cls-2" d="M53.68,86.89c-36.39-.63-70.06,54.64,28,111.94a.42.42,0,0,1,.63,0c101.28-59.15,62.13-116.13,24.53-111.7C92.22,88.87,85.3,96.77,82,103.56,78.78,96.77,71.86,88.87,57.2,87.13c-1.17-.13-2.35-.22-3.52-.24Z"/></g></svg>