<svg id="Capa_1" data-name="Capa 1" xmlns="http://www.w3.org/2000/svg" viewBox="0 0 167.24 260.79"><defs><style>.cls-1{fill:#fff;stroke:#1d1d1b;stroke-linecap:round;stroke-linejoin:round;stroke-width:3px;}</style></defs><path class="cls-1" d="M91.21,54.94l14.66,29.72a10,10,0,0,0,7.55,5.48l32.8,4.77A10,10,0,0,1,151.78,112l-23.73,23.13a10,10,0,0,0-2.89,8.88l5.61,32.66a10,10,0,0,1-14.56,10.57L86.88,171.84a10.06,10.06,0,0,0-9.33,0L48.21,187.26a10,10,0,0,1-14.55-10.57L39.26,144a10,10,0,0,0-2.88-8.88L12.65,112A10,10,0,0,1,18.2,94.91L51,90.14a10,10,0,0,0,7.55-5.48L73.22,54.94A10,10,0,0,1,91.21,54.94Z"/></svg>