<svg id="Capa_1" data-name="Capa 1" xmlns="http://www.w3.org/2000/svg" viewBox="0 0 167.24 260.79"><defs><style>.cls-1,.cls-2{fill:#fff;}.cls-1{stroke:#000;stroke-miterlimit:10;stroke-width:3px;}</style></defs><path class="cls-1" d="M140.7,77c-5.36-5.37-12.72-6.71-16.43-3-2.48,2.48-2.69,6.6-1,10.66L110.2,97.74a38.15,38.15,0,0,0-54,.58L43.25,85.41c2.12-4.31,2.06-8.81-.59-11.45C39,70.25,31.6,71.59,26.23,77s-6.7,12.72-3,16.43c2.49,2.48,6.61,2.69,10.67,1l14.82,14.82a38.21,38.21,0,0,0,13.13,47.31v20c-4.54,1.55-7.68,4.77-7.68,8.51,0,5.24,6.16,9.5,13.74,9.5s13.74-4.26,13.74-9.5c0-3.51-2.77-6.57-6.87-8.21V162.17A38.17,38.17,0,0,0,93,162v14.46c-4.54,1.55-7.67,4.77-7.67,8.51,0,5.24,6.15,9.5,13.74,9.5s13.73-4.26,13.73-9.5c0-3.51-2.76-6.57-6.87-8.21V155.89a38.18,38.18,0,0,0,12-47.51L132.26,94c4.3,2.11,8.8,2,11.44-.59C147.41,89.68,146.07,82.32,140.7,77Z"/><path class="cls-2" d="M21.79,87.26a4,4,0,0,1-3.17-2L15.68,80.5a2.66,2.66,0,0,1-.29-2.68A1.82,1.82,0,0,1,17,76.91a3.32,3.32,0,0,1,1.7.54l4.77,2.93a4.1,4.1,0,0,1,2,3A1.91,1.91,0,0,1,24.88,85a17,17,0,0,0-1.64,1.65,1.87,1.87,0,0,1-1.45.61Z"/><path d="M17,77.41a2.83,2.83,0,0,1,1.44.46l4.77,2.94c1.59,1,2.27,3,1.3,3.81a19.37,19.37,0,0,0-1.69,1.7,1.4,1.4,0,0,1-1.07.44A3.54,3.54,0,0,1,19,85l-2.93-4.77c-1-1.56-.32-2.83.93-2.83m0-1A2.35,2.35,0,0,0,15,77.58a3.11,3.11,0,0,0,.31,3.18l2.93,4.77a4.5,4.5,0,0,0,3.6,2.23A2.36,2.36,0,0,0,23.61,87a17.15,17.15,0,0,1,1.6-1.59A2.42,2.42,0,0,0,26,83.3,4.58,4.58,0,0,0,23.77,80L19,77a3.8,3.8,0,0,0-2-.61Z"/><path class="cls-2" d="M27.15,81.9a4,4,0,0,1-3.17-2l-2.93-4.77a2.64,2.64,0,0,1-.29-2.68,1.81,1.81,0,0,1,1.65-.91,3.3,3.3,0,0,1,1.69.53L28.87,75a4.08,4.08,0,0,1,2,3,1.94,1.94,0,0,1-.61,1.66,17,17,0,0,0-1.65,1.64,1.86,1.86,0,0,1-1.45.62Z"/><path d="M22.41,72.05a2.77,2.77,0,0,1,1.43.46l4.77,2.93c1.6,1,2.27,3,1.31,3.82A18.07,18.07,0,0,0,28.22,81a1.34,1.34,0,0,1-1.07.45,3.51,3.51,0,0,1-2.74-1.76l-2.93-4.77c-1-1.56-.33-2.82.93-2.82m0-1a2.34,2.34,0,0,0-2.09,1.16,3.14,3.14,0,0,0,.3,3.19l2.94,4.77a4.51,4.51,0,0,0,3.59,2.23A2.36,2.36,0,0,0,29,81.61,17.15,17.15,0,0,1,30.57,80a2.36,2.36,0,0,0,.78-2.07,4.58,4.58,0,0,0-2.22-3.35l-4.77-2.93a3.76,3.76,0,0,0-1.95-.61Z"/><path class="cls-2" d="M32.52,76.53a4,4,0,0,1-3.17-2l-2.94-4.77a2.66,2.66,0,0,1-.29-2.68,1.82,1.82,0,0,1,1.65-.91,3.32,3.32,0,0,1,1.7.54l4.77,2.93a4.1,4.1,0,0,1,2,3,1.91,1.91,0,0,1-.61,1.66A17,17,0,0,0,34,75.92a1.89,1.89,0,0,1-1.45.61Z"/><path d="M27.77,66.68a2.83,2.83,0,0,1,1.44.46L34,70.08c1.59,1,2.27,3,1.3,3.81a19.37,19.37,0,0,0-1.69,1.7,1.4,1.4,0,0,1-1.07.44,3.54,3.54,0,0,1-2.75-1.75l-2.93-4.77c-1-1.56-.32-2.83.93-2.83m0-1a2.35,2.35,0,0,0-2.09,1.17A3.11,3.11,0,0,0,26,70l2.93,4.77A4.5,4.5,0,0,0,32.52,77a2.36,2.36,0,0,0,1.82-.79,17.15,17.15,0,0,1,1.6-1.59,2.42,2.42,0,0,0,.78-2.08,4.58,4.58,0,0,0-2.22-3.34l-4.77-2.94a3.8,3.8,0,0,0-2-.61Z"/><path class="cls-2" d="M134.73,75.68a1.86,1.86,0,0,1-1.45-.61,17.13,17.13,0,0,0-1.65-1.65,1.94,1.94,0,0,1-.61-1.66,4.12,4.12,0,0,1,2-3l4.77-2.93a3.29,3.29,0,0,1,1.69-.54,1.81,1.81,0,0,1,1.65.91,2.64,2.64,0,0,1-.29,2.68l-2.93,4.77a4,4,0,0,1-3.17,2Z"/><path d="M139.47,65.83c1.26,0,1.89,1.27.93,2.83l-2.93,4.77a3.52,3.52,0,0,1-2.74,1.75,1.4,1.4,0,0,1-1.08-.44A18.07,18.07,0,0,0,132,73c-1-.83-.29-2.83,1.31-3.81L138,66.3a2.7,2.7,0,0,1,1.43-.47m0-1a3.76,3.76,0,0,0-1.95.61l-4.77,2.94a4.55,4.55,0,0,0-2.22,3.34,2.42,2.42,0,0,0,.77,2.08,17.15,17.15,0,0,1,1.6,1.59,2.36,2.36,0,0,0,1.83.79A4.49,4.49,0,0,0,138.32,74l2.94-4.77a3.12,3.12,0,0,0,.3-3.18,2.35,2.35,0,0,0-2.09-1.17Z"/><path class="cls-2" d="M140.09,81.05a1.83,1.83,0,0,1-1.45-.62A16.92,16.92,0,0,0,137,78.79a1.91,1.91,0,0,1-.61-1.66,4.07,4.07,0,0,1,2-3l4.77-2.94a3.3,3.3,0,0,1,1.7-.53,1.83,1.83,0,0,1,1.65.91,2.64,2.64,0,0,1-.3,2.68l-2.93,4.77a4,4,0,0,1-3.17,2Z"/><path d="M144.84,71.2c1.25,0,1.89,1.27.93,2.83l-2.94,4.77a3.51,3.51,0,0,1-2.74,1.75A1.34,1.34,0,0,1,139,80.1a19.25,19.25,0,0,0-1.69-1.69c-1-.84-.3-2.83,1.3-3.82l4.77-2.93a2.83,2.83,0,0,1,1.44-.46m0-1a3.8,3.8,0,0,0-2,.61l-4.77,2.93a4.61,4.61,0,0,0-2.22,3.35,2.39,2.39,0,0,0,.78,2.07,16,16,0,0,1,1.59,1.6,2.39,2.39,0,0,0,1.83.79,4.53,4.53,0,0,0,3.6-2.23l2.93-4.77a3.1,3.1,0,0,0,.3-3.18,2.3,2.3,0,0,0-2.08-1.17Z"/><path class="cls-2" d="M145.46,86.41A1.86,1.86,0,0,1,144,85.8a18.35,18.35,0,0,0-1.65-1.65,1.94,1.94,0,0,1-.61-1.66,4.12,4.12,0,0,1,2-3l4.77-2.93a3.29,3.29,0,0,1,1.69-.54,1.81,1.81,0,0,1,1.65.91,2.64,2.64,0,0,1-.29,2.68l-2.93,4.77a4,4,0,0,1-3.17,2Z"/><path d="M150.2,76.56c1.26,0,1.89,1.27.93,2.83l-2.93,4.77a3.52,3.52,0,0,1-2.74,1.75,1.4,1.4,0,0,1-1.08-.44,18.07,18.07,0,0,0-1.69-1.7c-1-.83-.29-2.83,1.31-3.81L148.77,77a2.7,2.7,0,0,1,1.43-.47m0-1a3.76,3.76,0,0,0-1.95.61l-4.77,2.94a4.55,4.55,0,0,0-2.22,3.34,2.42,2.42,0,0,0,.77,2.08,17.15,17.15,0,0,1,1.6,1.59,2.36,2.36,0,0,0,1.83.79,4.49,4.49,0,0,0,3.59-2.23L152,79.91a3.12,3.12,0,0,0,.3-3.18,2.35,2.35,0,0,0-2.09-1.17Z"/></svg>