<svg id="Capa_1" data-name="Capa 1" xmlns="http://www.w3.org/2000/svg" viewBox="0 0 167.24 260.79"><defs><style>.cls-1{fill:#fff;}.cls-2{fill:#1d1d1b;}</style></defs><path class="cls-1" d="M130.07,184.84a14,14,0,0,1-14-14,13.83,13.83,0,0,1,.54-3.79l1-3.61-3.22,1.92a60.46,60.46,0,0,1-61.59,0l-3.23-1.92,1,3.61a14.2,14.2,0,0,1,.53,3.79,14,14,0,0,1-14,14c-6.33,0-12.18-4.09-14-9.75V112.43l0-.75a60.41,60.41,0,0,1,120.78,0l.05,1.46v62C142.25,180.75,136.41,184.84,130.07,184.84Z"/><path class="cls-2" d="M83.62,54.44a58.92,58.92,0,0,1,58.89,57.28l.05,1v62.12c-1.68,4.88-7,8.5-12.49,8.5a12.44,12.44,0,0,1-12-15.86l2-7.22-6.45,3.83a59,59,0,0,1-60.06,0l-6.44-3.83,2,7.22a12.81,12.81,0,0,1,.47,3.38,12.5,12.5,0,0,1-12.48,12.48c-5.52,0-10.81-3.62-12.48-8.5V113.27l0-1.55A58.92,58.92,0,0,1,83.62,54.44m0-3a61.93,61.93,0,0,0-61.89,60.2h0v63.67c1.91,6.38,8.48,11,15.48,11a15.48,15.48,0,0,0,15.48-15.48,15.26,15.26,0,0,0-.59-4.19,62,62,0,0,0,63.12,0,15.26,15.26,0,0,0-.59,4.19,15.48,15.48,0,0,0,15.48,15.48c7,0,13.57-4.65,15.49-11V111.64h-.05a61.92,61.92,0,0,0-61.89-60.2Z"/></svg>