<svg id="Capa_1" data-name="Capa 1" xmlns="http://www.w3.org/2000/svg" viewBox="0 0 167.24 260.79"><defs><style>.cls-1{fill:#fff;stroke:#1d1e1c;stroke-linecap:round;stroke-linejoin:round;stroke-width:3px;}</style></defs><path class="cls-1" d="M56.94,161.32c-1.61,8.3,4.1,35.51-.64,32-4.1-3-8.15-5.62-14.23-3.88-5.67,1.62-13.46,15.69-7.77,15.84,12.29.33,29.11,1.3,38.17,1.3,2.15,0,11.53-38.27,5-55.42C72.63,150.51,58,155.88,56.94,161.32Z"/><path class="cls-1" d="M44,196.14c-1.66,1-3.4,2.14-5.21,3.45-2.07,1.5-4,3-5.68,4.53"/><path class="cls-1" d="M110.3,161.32c1.62,8.3-4.09,35.51.65,32,4.09-3,8.14-5.62,14.23-3.88,5.67,1.62,13.46,15.69,7.76,15.84-12.29.33-29.1,1.3-38.16,1.3-2.16,0-11.54-38.27-5-55.42C94.61,150.51,109.24,155.88,110.3,161.32Z"/><path class="cls-1" d="M123.24,196.14c1.65,1,3.4,2.14,5.2,3.45,2.08,1.5,4,3,5.69,4.53"/><path class="cls-1" d="M126.59,154.33s2-122.14-44.35-122.14c-41.63,0-42,122.34-42,122.34l-.84,4.39a3.74,3.74,0,0,0,6.28,3.37l2.53-2.47a3.75,3.75,0,0,1,5.6.44l4.62,6.19a3.74,3.74,0,0,0,6-.08l3-4.21a3.74,3.74,0,0,1,6.4.49L75,165a3.74,3.74,0,0,0,6.4.49l2.41-3.4a3.72,3.72,0,0,1,6.09,0l1.8,2.54a3.74,3.74,0,0,0,6.55-.85l0-.11a3.74,3.74,0,0,1,6.55-.85l.72,1a3.73,3.73,0,0,0,6.66-1.22h0a3.74,3.74,0,0,1,6-2l3.66,3a3.74,3.74,0,0,0,6-3.71Z"/></svg>