<svg id="Capa_1" data-name="Capa 1" xmlns="http://www.w3.org/2000/svg" viewBox="0 0 167.24 260.79"><defs><style>.cls-1{fill:#fff;stroke:#1d1e1c;stroke-linecap:round;stroke-linejoin:round;stroke-width:3px;}</style></defs><path class="cls-1" d="M117.3,138.38l.53-.19c-14.48-5.54-23.89-14.49-23.89-24.59S103.35,94.54,117.83,89a97.13,97.13,0,0,0-34.21-5.84A97.13,97.13,0,0,0,49.41,89c14.48,5.53,23.9,14.48,23.9,24.59s-9.42,19.05-23.9,24.59l.54.19c-14.78,5.52-24.43,14.56-24.43,24.79,0,16.81,26,30.43,58.1,30.43s58.11-13.62,58.11-30.43C141.73,152.94,132.08,143.9,117.3,138.38Z"/><path class="cls-1" d="M120.22,109.49S122.28,27.3,85.78,27.3c-45,0-39.12,82.32-39.12,82.32l-.71,3c-.59,2.41,3.11,4,5.34,2.27l2.16-1.66a3.77,3.77,0,0,1,4.77.29l3.93,4.16a3.72,3.72,0,0,0,5.15,0l2.53-2.83a3.65,3.65,0,0,1,5.45.33l1,1.56a3.66,3.66,0,0,0,5.45.33l2.05-2.29a3.71,3.71,0,0,1,5.2,0l1.53,1.71c1.47,1.65,4.68,1.32,5.57-.58l0-.07c.89-1.89,4.1-2.22,5.58-.57l.61.69c1.56,1.74,5,1.25,5.68-.82h0c.58-1.77,3.28-2.47,5.08-1.32l3.12,2c2.34,1.5,5.76-.18,5.11-2.5Z"/></svg>