<svg id="Capa_1" data-name="Capa 1" xmlns="http://www.w3.org/2000/svg" viewBox="0 0 167.24 260.79"><defs><style>.cls-1{fill:#fff;stroke:#1d1e1c;stroke-linecap:round;stroke-linejoin:round;stroke-width:3px;}</style></defs><path class="cls-1" d="M57.48,114.58c-4.36-9.74-12-39.71,3.29-57.51,6-7,16-16.51,26.84-14.52,8.52,1.56,13.51,9.26,14.24,10.41,3.75,6,4,14.55,4.38,31.49.19,8.71-.1,12.68,3,16.16a14.12,14.12,0,0,0,13.42,4.11c9.25-2.34,12.08-15.3,12.6-18.08,1.24-6.64-1-7.72,0-20.26.56-7.16,1.56-10.43,4.11-12.88a12.09,12.09,0,0,1,8.22-3.28c.79,0,4.95.12,6.57,2.74,0,0,.38.61,1.09,5.2-1.3-.62-5-2.2-7.66-.55s-2.76,5.22-2.74,9.31c0,13.39,3,16.93,3,25.48,0,3-.11,12.76-6.57,21.36-1.49,2-7,9.29-15.89,10.95-12,2.25-23.71-7.07-23.83-6.84s10.68,6.84,18.9,14.51c1.51,1.41,4.76,8.29,3.29,16.71-.94,5.37-7.1,7.94-6,12a3.76,3.76,0,0,0,1.65,2.46c2,1,4.1-1.42,6-.54,1.44.65,2.22,2.92,1.92,4.65-.72,4.07-7.7,6.49-13.15,6.3-1.68-.06-7.56-.26-9-3.56-1.12-2.51,1.38-4.39,4.66-13.42,2.29-6.3,2.21-8.52,1.92-10.13a13.75,13.75,0,0,0-3.84-7.12c-.53-.52-1.76-1.64-8.21-4.11-5.1-1.95-8.33-3.19-8.77-2.47s2.88,2.85,7.12,8.22c2.19,2.76,3.79,4.79,4.93,7.94A21.8,21.8,0,0,1,104,159.5,23,23,0,0,1,98.83,171,29.71,29.71,0,0,1,86,180a31.6,31.6,0,0,1-13.14,2.74,33,33,0,0,1-10.14-1.92c-2.58-.93-3.14-1.51-8.49-3.84-6.25-2.71-7.09-2.62-7.67-2.46-3.56.95-5.87,6.25-6.84,8.49-1.07,2.45-1.47,4.5-3.29,5.2a3.14,3.14,0,0,1-3-.27c-2-1.71.08-7.46,1.91-10.68a17.45,17.45,0,0,1,8.49-7.94,16.74,16.74,0,0,1,8.5-1.1c5.44.72,5.74,3.58,11.5,4.93a20.6,20.6,0,0,0,11.77-.82,13.52,13.52,0,0,0,6-3.84,14,14,0,0,0,3-7.66,21,21,0,0,0-.82-9.32c-.63-2.16-1-2.32-3.56-7.67-3.17-6.62-3.51-8.25-4.38-8.21-1.87.07-.84,7.57-6,14.79A34,34,0,0,1,61,158.4a44.75,44.75,0,0,1-9,4.93,45.4,45.4,0,0,1-9.31,2.47,31.72,31.72,0,0,1-7.67.54,27.78,27.78,0,0,1-11.23-3.28,22.55,22.55,0,0,1-6.3-4.66,21.33,21.33,0,0,1-4.93-9c-1.08-4.23-.47-7.48.55-12.87A51.57,51.57,0,0,1,16.67,125c2-4.36,2.68-4.12,5.48-9.86A70.28,70.28,0,0,0,26,105.54c1.81-5.45,1.8-7.22,1.65-8.49-.2-1.62-.55-4.58-2.74-6.3S20.8,90.16,18.31,88c-.39-.34-2.36-2-1.91-3.56s2.89-1.85,3.28-1.91c2.61-.4,4.74.88,6.85,2.19,2.27,1.4,4.64,2.87,6.3,5.75,1.79,3.1,1.74,6.09,1.64,9.31,0,1.93-.31,5.19-3,13.69-2.35,7.42-3.25,8.41-4.38,13.7-1.43,6.66-.89,9.29,0,11.23a13.79,13.79,0,0,0,4.38,5.2A15.28,15.28,0,0,0,38,146.35a17.4,17.4,0,0,0,8.49-.55A19.47,19.47,0,0,0,53.1,142a18.87,18.87,0,0,0,5.2-5.75A17.41,17.41,0,0,0,60.22,128,31.84,31.84,0,0,0,57.48,114.58Z"/></svg>