<svg id="Capa_1" data-name="Capa 1" xmlns="http://www.w3.org/2000/svg" viewBox="0 0 167.24 260.79"><defs><style>.cls-1{fill:#fff;stroke:#1d1d1b;stroke-miterlimit:10;stroke-width:3px;}</style></defs><path class="cls-1" d="M106.55,164.05a162.63,162.63,0,0,1,15.7,8.36c3.7,2.25,6.07,3.9,7.48,7,.34.75,2.27,4.94.31,8.59-1.49,2.78-4.4,3.71-7.06,4.55-3.78,1.2-4.75.43-15,.45-5.7,0-7.8.25-10.58-1.24a14,14,0,0,1-4.47-3.94c-.6-.83-2.46-3.54-3-12.36a71.73,71.73,0,0,1,.1-10.89"/><path class="cls-1" d="M61,164.05a161.78,161.78,0,0,0-15.71,8.36c-3.7,2.25-6.07,3.9-7.47,7-.35.75-2.27,4.94-.32,8.59,1.49,2.78,4.41,3.71,7.06,4.55,3.79,1.2,4.75.43,15,.45,5.7,0,7.79.25,10.57-1.24a13.86,13.86,0,0,0,4.47-3.94c.61-.83,2.46-3.54,3.06-12.36a72,72,0,0,0-.11-10.89"/><ellipse class="cls-1" cx="83.82" cy="106.88" rx="40.84" ry="69.29"/><path class="cls-1" d="M52.76,84.27C48.24,72.79,43.6,72.4,36.37,79.5c-2.11,2.07-3.74,2.71-7.35,12-8.09,20.8-3.19,39-1.55,44.9,1.74,6.25,3.74,13.42,7.74,13.94,4.88.63,9.74-9,11.23-12,2.21-4.41,5.56-13,4.64-25.55"/><path class="cls-1" d="M114.49,83.06c4.51-11.49,9.16-11.87,16.38-4.78,2.11,2.08,3.75,2.71,7.36,12,8.09,20.81,3.18,39,1.55,44.91C138,141.44,136,148.6,132,149.12c-4.87.63-9.73-9-11.22-12-2.22-4.4-5.57-13-4.65-25.55"/></svg>