<svg id="Capa_1" data-name="Capa 1" xmlns="http://www.w3.org/2000/svg" viewBox="0 0 167.24 260.79"><defs><style>.cls-1{fill:#fff;}.cls-1,.cls-2{stroke:#1d1d1b;stroke-miterlimit:10;stroke-width:3px;}.cls-2{fill:none;}</style></defs><path class="cls-1" d="M68.66,154.39c-28.84-3.6-22.38,32.09-22.38,32.09-12,0-21.67,9-21.67,20.05l35.67-.08c0-21.61,12.83-39.09,28.68-39.09"/><path class="cls-2" d="M27.63,207.23c0-7.92,6.75-14.33,15.1-14.33"/><path class="cls-2" d="M36.92,207c0-4.81,3.38-8.71,7.55-8.71"/><path class="cls-1" d="M98.58,154.9C127.42,151.3,121,187,121,187c12,0,21.68,9,21.68,20L107,207c0-21.61-12.83-39.1-28.69-39.1"/><path class="cls-2" d="M139.61,207.74c0-7.91-6.75-14.32-15.09-14.32"/><path class="cls-2" d="M130.32,207.55c0-4.81-3.37-8.71-7.54-8.71"/><path class="cls-1" d="M37.36,39.74h92.52a0,0,0,0,1,0,0v93.48a46.26,46.26,0,0,1-46.26,46.26h0a46.26,46.26,0,0,1-46.26-46.26V39.74A0,0,0,0,1,37.36,39.74Z"/></svg>