<svg id="Capa_1" data-name="Capa 1" xmlns="http://www.w3.org/2000/svg" viewBox="0 0 167.24 260.79"><defs><style>.cls-1{fill:#fff;stroke:#000;stroke-miterlimit:10;stroke-width:3px;}</style></defs><path id="path2160" class="cls-1" d="M82.91,31.08C73.8,30.62,64.35,35.17,61,43.67c-2.95,7.41-3.16,17,.49,24.36,2.14,4.32,9.56,8.54,1.88,11.32-6.26,2.26-6.86,14.8-14.9,9.2-6.34-4.4-17.28-1.72-19.6,6.62-2.9,10.47,9.66,22.39,19.49,16.32,6.55-4,7.37,6.26,10.56,10.07,4.66,5.57-7.54,11.49-9.75,18.28-3.13,9.63-5.58,19.91-4.67,30,.68,7.53,2.07,15.94,9.09,20.54,8.76,5.73,19.8,6,29.94,6.28A89.75,89.75,0,0,0,104.86,195c8.58-1.85,16.46-7.24,19.23-15.84,3.08-9.56,2.67-19.86.88-29.38-2.75-14.62-13.58-17.79-16.45-25.33-1.87-4.94,5.69-12.91,14.38-10.5,8.42,2.34,14.77-7.49,15.83-15.13,1.28-9.18-10.45-12.33-16.88-9.61-8.69,3.67-10.54-5.24-15.62-9-3.58-2.68-9-3.93-3.9-8.9,9-8.84,5.75-27-4-35.4A21.52,21.52,0,0,0,83,31.16"/></svg>