<svg id="Capa_1" data-name="Capa 1" xmlns="http://www.w3.org/2000/svg" viewBox="0 0 167.24 260.79"><defs><style>.cls-1{fill:#fff;}.cls-1,.cls-2{stroke:#000;stroke-miterlimit:10;stroke-width:3px;}.cls-2{fill:none;}</style></defs><path class="cls-1" d="M48.93,147.08A43,43,0,0,1,35.41,157.6a32.16,32.16,0,0,1-13.53,3.94c-8.28.32-13-3.39-13.89-2.06-1,1.52,4.38,7.84,11.45,11.45a34.09,34.09,0,0,0,17.09,3.38c3.9-.09,9.89-.23,15.78-3.75s8.14-8.33,8.83-7.89c.85.55-2.23,8.06-7.51,14.84-2.45,3.14-5,6.44-9.39,9.2-9.1,5.75-18.31,4.3-18.6,6.76-.2,1.7,4,3.48,4.7,3.76,10.6,4.38,28.05,1.63,38.88-10,8.81-9.43,10.52-21.81,13.14-21.22,1.19.27,1.15,2.86,1.88,6,3.17,13.54,17,21.13,20.1,22.73,2.46,1.26,11.82,5.89,22,3.38,1.38-.34,5.47-1.35,5.64-3.19.2-2.17-5.22-3.51-10.14-6.39-13.08-7.65-18.44-23.69-17.66-24.23.31-.21,1.81,1.84,3.38,3.38,14,13.77,51.95,4.65,51.84.75,0-.52-2-1.23-5.82-2.63a147.21,147.21,0,0,0-17.66-5.07c-13.72-3.19-14.81-3-17.46-4.69A25.16,25.16,0,0,1,109.6,146"/><path class="cls-2" d="M17.38,169.62a6.9,6.9,0,0,1,13,3.76"/><path class="cls-2" d="M37.29,173.56c0-2.95,3-4.81,5.07-4.69a4.39,4.39,0,0,1,3.94,4.33"/><path class="cls-2" d="M41.79,198.73a6.33,6.33,0,0,1,4.32-6.95,6.36,6.36,0,0,1,7.7,5.07"/><path class="cls-2" d="M58.7,194a5.81,5.81,0,1,1,9.58-6.58"/><path class="cls-2" d="M71.66,182.39c-2.93-2.92-2.72-6.84-.94-8.26,1.21-1,3.25-.87,5.07,0"/><path class="cls-2" d="M84.62,174.13A4.87,4.87,0,0,1,91,176.38,4.81,4.81,0,0,1,89.5,182"/><path class="cls-2" d="M93.26,185.77a6.39,6.39,0,0,1,7.85.19,4.41,4.41,0,0,1,.22,6.57"/><path class="cls-2" d="M106.41,195.38c.32-.21,3.55-3.61,6.57-2.63s3.44,5.66,3.57,6"/><path class="cls-2" d="M108.93,168.2a6,6,0,0,1,7.4-.77,7.38,7.38,0,0,1,2.91,5.38"/><path class="cls-2" d="M123.31,173.74c.81-3.47,3.61-5.86,6.67-5.81,3.4,0,6.37,3.12,6.67,7.14"/><path class="cls-2" d="M140.59,174.13c.24-3.41,2.34-6.1,4.92-6.38s4.84,1.78,5.6,4.93"/><path class="cls-2" d="M50.84,171.26c-2-2.19-.92-5.6.73-6.87a4.38,4.38,0,0,1,5.82.66"/><path class="cls-1" d="M79.58,33.45,28,150.15H131.17Z"/></svg>