<svg id="Capa_1" data-name="Capa 1" xmlns="http://www.w3.org/2000/svg" viewBox="0 0 167.24 260.79"><defs><style>.cls-1{fill:#fff;stroke:#000;stroke-miterlimit:10;stroke-width:3px;}</style></defs><path class="cls-1" d="M119.65,80.27c17.27,0,23.28,3,24.51,6.61,2.44,7.25-13.42,18.75-10.33,23.41,2,3.08,10.38.26,13.34,5.09a2.72,2.72,0,0,1,.53,2.09c-.73,2.58-7.69,3.26-13.07,2-2.55-.63-5.36-1.31-7-3.8-1.81-2.82-1-6.22-.36-8.59s6.41-18.14,5-18.16c-4.91-.07-10.44-.19-17-.32"/><path class="cls-1" d="M58.65,92.77c-10.91,13.39-17,16.15-20.64,14.79-7.16-2.7-6-22.26-11.59-22.82-3.67-.37-6.77,7.86-12.38,7.11a2.73,2.73,0,0,1-1.95-.92c-1.54-2.19,2.34-8,6.77-11.35,2.09-1.58,4.4-3.32,7.33-3,3.34.38,5.43,3.19,6.88,5.16S43.06,98.2,44,97.12c3.16-3.75,6.76-8,11-13"/><path class="cls-1" d="M71.1,146.31a25.35,25.35,0,0,0-9.63,11.36c-3.69,9.3,1.57,15.5-2.41,21.15-5.3,7.53-20.8,5.25-20.81,7.05,0,1.34,8.41.76,10.66,5.16,2.49,4.86-4.63,11.68-3.26,12.9,2,1.79,16.84-13,22.18-19.6a8.85,8.85,0,0,0,1-1.55c2.5-5-2.11-10.05-2.41-15.48-.18-3.24,1.09-7.8,7.57-13.59"/><path class="cls-1" d="M102.64,144.71a25.27,25.27,0,0,1,9.63,11.35c3.69,9.3-1.57,15.51,2.41,21.16,5.3,7.52,20.8,5.24,20.81,7.05,0,1.33-8.41.76-10.67,5.16-2.48,4.85,4.63,11.68,3.27,12.9-2,1.78-16.84-13-22.19-19.61a7.71,7.71,0,0,1-1-1.55c-2.51-5,2.11-10,2.41-15.48.18-3.23-1.1-7.8-7.57-13.59"/><path class="cls-1" d="M122.5,69.08a35.93,35.93,0,0,0-71.86,0c0,4,18.5,107.32,35.93,107.33S122.5,72.67,122.5,69.08Z"/></svg>