<svg id="Capa_1" data-name="Capa 1" xmlns="http://www.w3.org/2000/svg" viewBox="0 0 167.24 260.79"><defs><style>.cls-1,.cls-3{fill:#fff;}.cls-2{fill:none;stroke-linecap:round;stroke-linejoin:round;}.cls-2,.cls-3{stroke:#000;stroke-width:3px;}.cls-3{stroke-miterlimit:10;}</style></defs><path class="cls-1" d="M127.5,104.25c-3,0-5.36-2.78-5.64-6.45H110.27c-3,0-5.29-2.93-5.29-6.67V82.88c0-3.74,2.33-6.67,5.29-6.67H123V67.52c0-3.08,2-5.5,4.44-5.5h1.32c2.49,0,4.44,2.42,4.44,5.5,0,0,0,8.64,0,8.69h10.06c3.17,0,5.66,3.16,5.66,7.18V97.07c0,4-2.49,7.18-5.66,7.18Z"/><path d="M128.73,63.52c1.62,0,2.94,1.79,2.94,4V76a5.27,5.27,0,0,1-.28,1.67h11.82c2.31,0,4.17,2.55,4.17,5.68V97.07c0,3.14-1.86,5.68-4.17,5.68H127.5c-2.3,0-4.17-2.54-4.17-5.68V96.3H110.27c-2.09,0-3.79-2.32-3.79-5.17V82.88c0-2.85,1.7-5.17,3.79-5.17h14.48a5.27,5.27,0,0,1-.28-1.67V67.52c0-2.21,1.31-4,2.94-4h1.32m0-3h-1.32c-3.33,0-5.94,3.08-5.94,7v7.19h-11.2c-3.8,0-6.79,3.59-6.79,8.17v8.25c0,4.58,3,8.17,6.79,8.17h10.29c.8,3.75,3.56,6.45,6.94,6.45h15.71c4,0,7.17-3.81,7.17-8.68V83.39c0-4.86-3.15-8.68-7.17-8.68h-8.54V67.52c0-3.92-2.61-7-5.94-7Z"/><line class="cls-2" x1="133.75" y1="85.97" x2="147.76" y2="85.97"/><line class="cls-2" x1="133.75" y1="94.75" x2="147.76" y2="94.75"/><path class="cls-1" d="M24,103.86c-3.18,0-5.67-3.15-5.67-7.18V83c0-4,2.49-7.18,5.67-7.18h10v-8.7c0-3.08,2-5.5,4.43-5.5h1.33c2.49,0,4.43,2.42,4.43,5.5v8.7H57c3,0,5.29,2.92,5.29,6.66v8.26c0,3.73-2.32,6.66-5.29,6.66H45.38c-.28,3.67-2.65,6.45-5.64,6.45Z"/><path d="M39.84,63.13c1.62,0,2.93,1.79,2.93,4v8.52a5.06,5.06,0,0,1-.28,1.68H57c2.09,0,3.79,2.31,3.79,5.16v8.26c0,2.85-1.7,5.16-3.79,5.16H43.91v.77c0,3.14-1.87,5.68-4.17,5.68H24c-2.3,0-4.17-2.54-4.17-5.68V83c0-3.14,1.87-5.68,4.17-5.68H35.86a5.06,5.06,0,0,1-.28-1.68V67.13c0-2.21,1.31-4,2.93-4h1.33m0-3H38.51c-3.32,0-5.93,3.08-5.93,7v7.2H24c-4,0-7.17,3.81-7.17,8.68V96.68c0,4.87,3.15,8.68,7.17,8.68H39.74c3.38,0,6.15-2.7,6.94-6.45H57c3.81,0,6.79-3.59,6.79-8.16V82.49c0-4.58-3-8.16-6.79-8.16H45.77v-7.2c0-3.92-2.6-7-5.93-7Z"/><line class="cls-2" x1="33.5" y1="85.59" x2="19.49" y2="85.59"/><line class="cls-2" x1="33.5" y1="94.36" x2="19.49" y2="94.36"/><path class="cls-3" d="M74.72,165.2H67.23a5.16,5.16,0,0,0-5.16,5.16v17.55H52.78a5.16,5.16,0,0,0-5.16,5.16v7.48a5.16,5.16,0,0,0,5.16,5.16H74.72a5.16,5.16,0,0,0,5.16-5.16V170.36A5.16,5.16,0,0,0,74.72,165.2Z"/><path class="cls-3" d="M92.53,165.2H100a5.16,5.16,0,0,1,5.16,5.16v17.55h9.29a5.16,5.16,0,0,1,5.16,5.16v7.48a5.16,5.16,0,0,1-5.16,5.16H92.53a5.16,5.16,0,0,1-5.17-5.16V170.36A5.16,5.16,0,0,1,92.53,165.2Z"/><rect class="cls-3" x="53.33" y="43.94" width="60.59" height="126.42" rx="5.29"/></svg>