<svg id="Capa_1" data-name="Capa 1" xmlns="http://www.w3.org/2000/svg" viewBox="0 0 167.24 260.79"><defs><style>.cls-1,.cls-2{fill:#fff;stroke:#000;stroke-width:3px;}.cls-1{stroke-linecap:round;stroke-linejoin:round;}.cls-2{stroke-miterlimit:10;}</style></defs><path class="cls-1" d="M68.4,161.76a13.35,13.35,0,0,1-6.48,7.29,13.89,13.89,0,0,1-9.46.54c-4.82-1.24-5.21-3.78-9.18-4.05a10,10,0,0,0-7.57,2.7,9.38,9.38,0,0,0-2.43,8.91c1,3.6,4.07,5.3,6.22,6.49,2.85,1.58,5.68,1.86,11.34,2.43,4.46.45,7,.69,10.54,0,2.7-.53,4.93-1,7-2.7,1.09-.9,2.47-2.43,4.59-9.19a88.19,88.19,0,0,0,2.7-11.07"/><path class="cls-1" d="M83.26,162.57a28.2,28.2,0,0,0,3,12.42,20.22,20.22,0,0,0,3.51,5.14A21,21,0,0,0,97,185a26.18,26.18,0,0,0,7.57,1.89,31.7,31.7,0,0,0,7.29,0,38.21,38.21,0,0,0,8.37-1.89c3.67-1.17,4.82-2,5.68-3a7.84,7.84,0,0,0,1.62-3,6.67,6.67,0,0,0-.27-4.87,6.49,6.49,0,0,0-3.25-2.7c-3.61-1.62-7.38-.88-11.61,0-4.38.92-5.08,1.71-7.56,1.35a19.64,19.64,0,0,1-5.41-1.89,33.69,33.69,0,0,1-4.86-2.7C90,164.77,90,156.92,90,155"/><path class="cls-1" d="M35.22,180.58c0-5.68,4.11-10.27,9.18-10.27"/><path class="cls-1" d="M43.82,184.94c0-4.92,2.41-8.91,5.4-8.91"/><path class="cls-1" d="M115.18,186.16c0-3.88-4-7-8.92-7"/><path class="cls-1" d="M123.1,182.87c0-3.58-3.87-6.48-8.64-6.48"/><path class="cls-2" d="M114.86,121.76c0,36.08-14.56,48.1-32.53,48.1s-32.53-12-32.53-48.1S64.36,56.44,82.33,56.44,114.86,85.68,114.86,121.76Z"/><path class="cls-2" d="M108.11,113.68c19-5.8,23.32-11,23.5-14.86.17-3.59-3.25-6.89-2.16-13.51.18-1.11.85-5.21,3-5.67s4.47,3.06,4.59,3.24c3.31,5.09.56,11.08,2.43,11.89,1.31.56,2.58-2.42,6.75-3.51.52-.14,4.9-1.29,6.49.81,1.14,1.49.42,4.08-.54,5.67-2.22,3.67-6.67,3.54-6.76,5.4,0,1.22,1.86,1.52,4.6,4,1.67,1.55,4.92,4.56,4.59,8.11-.19,2.07-1.62,4.47-3.51,4.86-2.06.42-4.22-1.63-6.76-4s-3.13-3.75-3.78-3.51c-1,.35.29,3.81-.81,8.64-.15.69-1.43,6.13-3.51,6.21-1.37.06-2.71-2.24-3.24-4-1.23-4.16,1.37-7.14.54-8.1-1-1.13-6.26,1-22.15,11.88"/><path class="cls-2" d="M53.18,125.38c-4.47-2.87-12.55-10.56-14.6-12.58-3.45-3.38-5.18-5.08-6.1-6.24-2.1-2.65-2.7-4.09-4.14-4.2-1.8-.14-2.33,2-5.77,4.18-.52.33-5.4,3.36-7.23,1.81-1.2-1-.81-3.76,0-5.56s2.13-2.34,6.74-6.43c2.22-2,2.73-2.58,2.56-2.9-.28-.54-2.21.41-6.32.77,0,0-.49,0-5.7.19A5.85,5.85,0,0,1,14,90.5c3.18-3.53,11-.28,12-2.54.57-1.26-1.32-3.46-2-4.21-1.85-2.16-3.52-2.19-3.8-3.7A3.11,3.11,0,0,1,22,76.76c.42-.14,1-.2,3,.75a21,21,0,0,1,4.1,2.63C32.45,83,33,84.61,33.86,84.38c1.21-.35.22-3.81,2.38-6.41.27-.33,2.1-2.74,4.11-2.34,1.42.29,2.32,1.87,2.63,3,.46,1.77-.33,3-1.41,6.34,0,0-.42,1.3-1.35,5.13-.69,2.83,1.6,8,14.55,18.16"/></svg>